<?xml version="1.0" standalone="no"?>
<!DOCTYPE svg PUBLIC "-//W3C//DTD SVG 20010904//EN"
 "http://www.w3.org/TR/2001/REC-SVG-20010904/DTD/svg10.dtd">
<svg version="1.0" xmlns="http://www.w3.org/2000/svg"
 width="144.000000pt" height="144.000000pt" viewBox="0 0 144.000000 144.000000"
 preserveAspectRatio="xMidYMid meet">

<g transform="translate(0.000000,144.000000) scale(0.100000,-0.100000)"
fill="#000000" stroke="none">
<path d="M616 1179 c-127 -30 -247 -136 -321 -283 -20 -38 -44 -79 -56 -90
-69 -72 -88 -100 -95 -142 -10 -71 2 -110 54 -165 52 -56 93 -67 84 -23 l-5
25 38 -25 c38 -26 122 -56 156 -56 10 0 22 -7 27 -16 11 -20 61 -22 73 -3 12
20 11 53 -3 67 -15 15 -55 16 -64 1 -10 -16 -94 -4 -142 20 -22 11 -50 33 -62
48 -21 27 -22 34 -16 153 5 117 8 130 41 198 69 139 193 240 325 264 40 7 60
15 60 24 0 16 -34 17 -94 3z"/>
<path d="M835 1160 c-8 -14 -13 -10 60 -45 80 -38 173 -133 216 -221 l34 -68
3 -188 c3 -187 3 -188 25 -188 27 0 111 83 122 119 11 35 8 107 -6 133 -11 22
-31 46 -88 104 -14 13 -32 42 -42 64 -28 63 -92 151 -146 202 -69 64 -164 111
-178 88z"/>
<path d="M679 888 c-15 -28 -14 -75 2 -94 10 -13 10 -17 -2 -25 -15 -10 -78
-7 -116 6 -15 5 -23 3 -23 -3 0 -19 41 -34 90 -34 26 0 57 5 69 11 15 8 27 9
40 1 43 -22 161 -1 161 30 0 17 -17 19 -36 5 -19 -15 -114 -21 -114 -7 0 4 7
16 15 26 19 25 19 56 -1 84 -21 30 -69 30 -85 0z m59 -10 c15 -15 15 -43 1
-69 -10 -20 -11 -20 -30 -3 -21 19 -24 36 -9 65 12 22 21 24 38 7z"/>
<path d="M617 683 c-15 -14 -7 -43 12 -43 23 0 34 23 18 39 -13 13 -21 14 -30
4z"/>
<path d="M793 679 c-16 -16 -5 -39 17 -39 25 0 35 18 20 35 -15 18 -22 19 -37
4z"/>
<path d="M699 554 c-9 -11 -23 -14 -46 -11 -25 4 -33 2 -33 -9 0 -8 5 -14 11
-14 5 0 17 -16 25 -35 28 -68 103 -73 130 -9 8 19 21 37 29 41 8 3 15 11 15
18 0 10 -10 12 -33 8 -23 -3 -39 0 -50 11 -20 20 -31 20 -48 0z m54 -38 c15
-12 16 -18 7 -35 -14 -28 -56 -28 -71 1 -10 18 -8 24 7 35 22 16 34 16 57 -1z"/>
<path d="M690 406 c0 -9 37 -12 55 -5 15 6 11 8 -17 8 -21 1 -38 -1 -38 -3z"/>
</g>
</svg>
