<?xml version="1.0" standalone="no"?>
<!DOCTYPE svg PUBLIC "-//W3C//DTD SVG 20010904//EN"
 "http://www.w3.org/TR/2001/REC-SVG-20010904/DTD/svg10.dtd">
<svg version="1.0" xmlns="http://www.w3.org/2000/svg"
 width="144.000000pt" height="144.000000pt" viewBox="0 0 144.000000 144.000000"
 preserveAspectRatio="xMidYMid meet">

<g transform="translate(0.000000,144.000000) scale(0.100000,-0.100000)"
fill="#000000" stroke="none">
<path d="M448 1200 c-70 -12 -202 -79 -187 -95 3 -2 32 0 64 5 32 5 73 7 89 4
17 -4 38 -7 46 -8 9 -1 20 -5 25 -8 52 -31 85 -46 85 -38 0 8 28 31 120 98 7
5 -23 21 -60 32 -56 15 -131 19 -182 10z"/>
<path d="M1032 1180 c-13 -10 -49 -28 -80 -40 -110 -41 -195 -109 -237 -190
-16 -31 -43 -151 -47 -213 -2 -37 -12 -47 -51 -47 -51 0 -58 -18 -29 -77 14
-29 23 -55 20 -58 -8 -8 -106 62 -135 96 -29 34 -73 52 -100 42 l-21 -8 24
-70 c13 -38 24 -72 24 -73 0 -2 -28 -33 -62 -68 -73 -77 -68 -84 10 -13 32 28
70 58 86 66 29 15 31 14 52 -10 12 -14 30 -46 39 -72 l18 -46 -34 -36 -34 -36
40 27 c58 38 70 35 94 -29 12 -31 21 -59 21 -63 0 -4 -16 -20 -36 -35 -45 -37
-38 -45 16 -17 56 28 82 24 95 -18 10 -37 26 -37 36 -1 4 13 7 19 8 12 1 -8 9
-9 29 -2 15 4 38 11 52 13 14 3 33 19 43 36 10 16 24 30 32 30 17 0 75 60 75
78 0 6 7 12 15 12 23 0 86 60 101 98 8 17 21 32 29 32 39 0 85 68 85 125 0 20
4 34 9 31 11 -7 47 112 54 178 6 62 -8 168 -28 206 -24 46 -76 101 -124 132
-53 33 -59 33 -89 8z m33 -155 c33 -32 32 -55 0 -55 -33 0 -85 38 -85 62 0 28
55 24 85 -7z m-325 -366 c0 -10 -4 -19 -10 -19 -24 0 -6 -22 48 -58 69 -48
116 -91 108 -99 -6 -6 -139 81 -199 131 -31 25 -28 52 7 66 28 10 46 2 46 -21z
m24 -270 c6 -6 6 -9 0 -9 -12 0 -63 33 -99 65 -23 20 -17 18 30 -10 33 -21 64
-41 69 -46z"/>
<path d="M186 745 c8 -46 30 -105 40 -105 3 0 19 11 35 25 l29 24 -22 11 c-13
7 -38 28 -56 48 l-33 37 7 -40z"/>
</g>
</svg>
