<svg id="svg" version="1.1" xmlns="http://www.w3.org/2000/svg" xmlns:xlink="http://www.w3.org/1999/xlink" width="400" height="400" viewBox="0, 0, 400,400"><g id="svgg"><path id="path0" d="M103.100 0.292 C 101.615 0.371,100.400 0.608,100.400 0.818 C 100.400 1.028,99.230 1.200,97.800 1.200 C 96.333 1.200,95.200 1.374,95.200 1.600 C 95.200 1.820,94.480 2.000,93.600 2.000 C 92.720 2.000,92.000 2.180,92.000 2.400 C 92.000 2.620,91.280 2.800,90.400 2.800 C 89.520 2.800,88.800 2.980,88.800 3.200 C 88.800 3.420,88.181 3.600,87.424 3.600 C 86.667 3.600,85.936 3.780,85.800 4.000 C 85.664 4.220,85.023 4.400,84.376 4.400 C 83.729 4.400,83.200 4.580,83.200 4.800 C 83.200 5.020,82.660 5.200,82.000 5.200 C 81.340 5.200,80.800 5.380,80.800 5.600 C 80.800 5.820,80.249 6.000,79.576 6.000 C 78.863 6.000,78.456 6.167,78.600 6.400 C 78.744 6.633,78.337 6.800,77.624 6.800 C 76.951 6.800,76.400 6.980,76.400 7.200 C 76.400 7.420,76.040 7.600,75.600 7.600 C 75.160 7.600,74.800 7.780,74.800 8.000 C 74.800 8.220,74.382 8.400,73.871 8.400 C 73.361 8.400,72.237 8.743,71.374 9.163 C 70.511 9.583,69.669 9.842,69.502 9.740 C 69.336 9.637,69.200 9.743,69.200 9.976 C 69.200 10.209,68.855 10.400,68.433 10.400 C 68.012 10.400,67.607 10.535,67.533 10.700 C 67.345 11.124,62.401 13.600,61.744 13.600 C 61.445 13.600,61.200 13.736,61.200 13.902 C 61.200 14.069,60.615 14.460,59.900 14.772 C 59.185 15.084,58.330 15.626,58.000 15.977 C 57.670 16.327,56.545 17.044,55.500 17.570 C 54.455 18.096,53.600 18.677,53.600 18.863 C 53.600 19.048,53.280 19.200,52.888 19.200 C 52.497 19.200,51.917 19.560,51.600 20.000 C 51.283 20.440,50.815 20.800,50.560 20.800 C 50.305 20.800,49.355 21.520,48.448 22.400 C 47.542 23.279,46.800 23.893,46.800 23.763 C 46.800 23.339,41.694 27.528,38.967 30.188 C 37.502 31.618,36.190 32.736,36.052 32.673 C 35.745 32.534,32.430 35.897,32.653 36.120 C 32.740 36.207,31.637 37.483,30.201 38.954 C 27.530 41.692,23.338 46.800,23.763 46.800 C 23.893 46.800,23.279 47.542,22.400 48.448 C 21.520 49.355,20.800 50.305,20.800 50.560 C 20.800 50.815,20.440 51.283,20.000 51.600 C 19.560 51.917,19.200 52.497,19.200 52.888 C 19.200 53.280,19.048 53.600,18.863 53.600 C 18.677 53.600,18.095 54.455,17.568 55.500 C 17.042 56.545,16.492 57.490,16.346 57.600 C 16.201 57.710,15.633 58.645,15.085 59.677 C 14.536 60.710,13.949 61.430,13.780 61.277 C 13.610 61.125,13.585 61.198,13.723 61.441 C 13.861 61.684,13.716 62.224,13.400 62.641 C 13.084 63.058,12.820 63.715,12.813 64.100 C 12.806 64.485,12.620 64.800,12.400 64.800 C 12.180 64.800,12.000 65.250,12.000 65.800 C 12.000 66.350,11.820 66.800,11.600 66.800 C 11.380 66.800,11.200 67.081,11.200 67.424 C 11.200 67.767,11.058 67.960,10.885 67.852 C 10.712 67.745,10.530 68.140,10.481 68.729 C 10.433 69.318,10.214 69.860,9.994 69.934 C 9.775 70.008,9.697 70.233,9.821 70.434 C 9.945 70.635,9.857 70.800,9.624 70.800 C 9.391 70.800,9.200 71.160,9.200 71.600 C 9.200 72.040,9.039 72.400,8.842 72.400 C 8.298 72.400,8.529 74.363,9.100 74.583 C 9.375 74.688,9.600 74.598,9.600 74.381 C 9.600 74.127,17.420 73.994,31.600 74.007 C 52.117 74.025,53.600 74.072,53.606 74.713 C 53.611 75.303,53.667 75.315,54.000 74.800 C 54.258 74.400,54.390 74.367,54.394 74.700 C 54.398 75.029,54.652 74.961,55.137 74.500 C 55.645 74.018,55.769 73.590,55.536 73.124 C 55.168 72.390,55.732 71.787,56.400 72.200 C 56.620 72.336,56.800 72.167,56.800 71.824 C 56.800 71.481,57.070 71.200,57.400 71.200 C 57.730 71.200,58.000 70.981,58.000 70.714 C 58.000 70.447,58.355 69.862,58.790 69.414 C 61.510 66.609,62.800 65.120,62.800 64.784 C 62.800 64.573,63.076 64.400,63.413 64.400 C 63.749 64.400,64.128 64.131,64.254 63.802 C 64.381 63.474,64.645 63.304,64.842 63.426 C 65.039 63.548,65.200 63.436,65.200 63.178 C 65.200 62.920,65.952 62.054,66.871 61.254 C 67.790 60.454,68.952 59.395,69.453 58.900 C 69.954 58.405,70.475 58.000,70.610 58.000 C 70.746 58.000,71.108 57.775,71.415 57.500 C 72.718 56.331,73.187 56.000,73.540 56.000 C 73.746 56.000,74.022 55.719,74.154 55.375 C 74.286 55.031,74.576 54.861,74.797 54.998 C 75.019 55.135,75.200 55.078,75.200 54.872 C 75.200 54.666,75.740 54.273,76.400 54.000 C 77.060 53.727,77.600 53.357,77.600 53.178 C 77.600 53.000,77.959 52.740,78.398 52.601 C 78.836 52.462,79.428 52.134,79.713 51.874 C 80.543 51.114,81.940 50.400,82.595 50.400 C 82.928 50.400,83.200 50.220,83.200 50.000 C 83.200 49.780,83.560 49.600,84.000 49.600 C 84.440 49.600,84.800 49.420,84.800 49.200 C 84.800 48.980,85.160 48.800,85.600 48.800 C 86.040 48.800,86.400 48.620,86.400 48.400 C 86.400 48.180,86.760 48.000,87.200 48.000 C 87.640 48.000,88.000 47.820,88.000 47.600 C 88.000 47.380,88.461 47.200,89.024 47.200 C 89.604 47.200,89.940 47.027,89.800 46.800 C 89.660 46.574,89.988 46.400,90.553 46.400 C 91.103 46.400,91.664 46.220,91.800 46.000 C 91.936 45.780,92.487 45.600,93.024 45.600 C 93.561 45.600,94.000 45.420,94.000 45.200 C 94.000 44.980,94.439 44.800,94.976 44.800 C 95.513 44.800,96.064 44.620,96.200 44.400 C 96.336 44.180,97.157 44.000,98.024 44.000 C 98.891 44.000,99.600 43.820,99.600 43.600 C 99.600 43.380,100.219 43.200,100.976 43.200 C 101.733 43.200,102.464 43.020,102.600 42.800 C 102.736 42.580,103.521 42.400,104.344 42.400 C 105.167 42.400,106.011 42.242,106.220 42.049 C 107.636 40.739,292.364 40.739,293.780 42.049 C 293.989 42.242,294.833 42.400,295.656 42.400 C 296.479 42.400,297.264 42.580,297.400 42.800 C 297.536 43.020,298.267 43.200,299.024 43.200 C 299.781 43.200,300.400 43.380,300.400 43.600 C 300.400 43.820,301.109 44.000,301.976 44.000 C 302.843 44.000,303.664 44.180,303.800 44.400 C 303.936 44.620,304.487 44.800,305.024 44.800 C 305.561 44.800,306.000 44.980,306.000 45.200 C 306.000 45.420,306.439 45.600,306.976 45.600 C 307.513 45.600,308.064 45.780,308.200 46.000 C 308.336 46.220,308.897 46.400,309.447 46.400 C 310.012 46.400,310.340 46.574,310.200 46.800 C 310.060 47.027,310.396 47.200,310.976 47.200 C 311.539 47.200,312.000 47.380,312.000 47.600 C 312.000 47.820,312.360 48.000,312.800 48.000 C 313.240 48.000,313.600 48.180,313.600 48.400 C 313.600 48.620,313.960 48.800,314.400 48.800 C 314.840 48.800,315.200 48.980,315.200 49.200 C 315.200 49.420,315.560 49.600,316.000 49.600 C 316.440 49.600,316.800 49.780,316.800 50.000 C 316.800 50.220,317.072 50.400,317.405 50.400 C 318.060 50.400,319.457 51.114,320.287 51.874 C 320.572 52.134,321.164 52.462,321.602 52.601 C 322.041 52.740,322.400 53.000,322.400 53.178 C 322.400 53.357,322.940 53.727,323.600 54.000 C 324.260 54.273,324.800 54.666,324.800 54.872 C 324.800 55.078,324.981 55.135,325.203 54.998 C 325.424 54.861,325.714 55.031,325.846 55.375 C 325.978 55.719,326.259 56.000,326.471 56.000 C 326.684 56.000,327.108 56.225,327.415 56.500 C 328.616 57.577,329.176 58.000,329.401 58.000 C 329.531 58.000,330.046 58.405,330.547 58.900 C 331.048 59.395,332.210 60.454,333.129 61.254 C 334.048 62.054,334.800 62.920,334.800 63.178 C 334.800 63.436,334.961 63.548,335.158 63.426 C 335.355 63.304,335.619 63.474,335.746 63.802 C 335.872 64.131,336.251 64.400,336.587 64.400 C 336.924 64.400,337.200 64.573,337.200 64.784 C 337.200 65.120,338.490 66.609,341.210 69.414 C 341.645 69.862,342.000 70.447,342.000 70.714 C 342.000 70.981,342.270 71.200,342.600 71.200 C 342.930 71.200,343.200 71.481,343.200 71.824 C 343.200 72.167,343.380 72.336,343.600 72.200 C 344.268 71.787,344.832 72.390,344.464 73.124 C 344.231 73.590,344.355 74.018,344.863 74.500 C 345.268 74.885,345.600 75.009,345.600 74.776 C 345.600 74.543,345.780 74.464,346.000 74.600 C 346.220 74.736,346.400 74.662,346.400 74.437 C 346.400 74.161,353.635 74.020,368.400 74.007 C 382.580 73.994,390.400 74.127,390.400 74.381 C 390.400 74.598,390.625 74.688,390.900 74.583 C 391.471 74.363,391.702 72.400,391.158 72.400 C 390.961 72.400,390.800 72.040,390.800 71.600 C 390.800 71.160,390.609 70.800,390.376 70.800 C 390.143 70.800,390.055 70.635,390.179 70.434 C 390.303 70.233,390.225 70.008,390.006 69.934 C 389.786 69.860,389.567 69.318,389.519 68.729 C 389.470 68.140,389.288 67.745,389.115 67.852 C 388.942 67.960,388.800 67.767,388.800 67.424 C 388.800 67.081,388.620 66.800,388.400 66.800 C 388.180 66.800,388.000 66.350,388.000 65.800 C 388.000 65.250,387.820 64.800,387.600 64.800 C 387.380 64.800,387.194 64.485,387.187 64.100 C 387.180 63.715,386.916 63.058,386.600 62.641 C 386.284 62.224,386.139 61.684,386.277 61.441 C 386.415 61.198,386.390 61.125,386.220 61.277 C 386.051 61.430,385.464 60.710,384.915 59.677 C 384.367 58.645,383.799 57.710,383.654 57.600 C 383.508 57.490,382.958 56.545,382.432 55.500 C 381.905 54.455,381.323 53.600,381.137 53.600 C 380.952 53.600,380.800 53.280,380.800 52.888 C 380.800 52.497,380.440 51.917,380.000 51.600 C 379.560 51.283,379.200 50.815,379.200 50.560 C 379.200 50.305,378.480 49.355,377.600 48.448 C 376.721 47.542,376.107 46.800,376.237 46.800 C 376.662 46.800,372.470 41.692,369.799 38.954 C 368.363 37.483,367.260 36.207,367.347 36.120 C 367.570 35.897,364.255 32.534,363.948 32.673 C 363.810 32.736,362.498 31.618,361.033 30.188 C 358.306 27.528,353.200 23.339,353.200 23.763 C 353.200 23.893,352.458 23.279,351.552 22.400 C 350.645 21.520,349.695 20.800,349.440 20.800 C 349.185 20.800,348.717 20.440,348.400 20.000 C 348.083 19.560,347.503 19.200,347.112 19.200 C 346.720 19.200,346.400 19.048,346.400 18.863 C 346.400 18.677,345.545 18.096,344.500 17.570 C 343.455 17.044,342.330 16.327,342.000 15.977 C 341.670 15.626,340.815 15.084,340.100 14.772 C 339.385 14.460,338.800 14.069,338.800 13.902 C 338.800 13.736,338.555 13.600,338.256 13.600 C 337.599 13.600,332.655 11.124,332.467 10.700 C 332.393 10.535,331.988 10.400,331.567 10.400 C 331.145 10.400,330.800 10.209,330.800 9.976 C 330.800 9.743,330.664 9.637,330.498 9.740 C 330.331 9.842,329.489 9.583,328.626 9.163 C 327.763 8.743,326.639 8.400,326.129 8.400 C 325.618 8.400,325.200 8.220,325.200 8.000 C 325.200 7.780,324.840 7.600,324.400 7.600 C 323.960 7.600,323.600 7.420,323.600 7.200 C 323.600 6.980,323.049 6.800,322.376 6.800 C 321.663 6.800,321.256 6.633,321.400 6.400 C 321.544 6.167,321.137 6.000,320.424 6.000 C 319.751 6.000,319.200 5.820,319.200 5.600 C 319.200 5.380,318.660 5.200,318.000 5.200 C 317.340 5.200,316.800 5.020,316.800 4.800 C 316.800 4.580,316.271 4.400,315.624 4.400 C 314.977 4.400,314.336 4.220,314.200 4.000 C 314.064 3.780,313.333 3.600,312.576 3.600 C 311.819 3.600,311.200 3.420,311.200 3.200 C 311.200 2.980,310.480 2.800,309.600 2.800 C 308.720 2.800,308.000 2.620,308.000 2.400 C 308.000 2.180,307.280 2.000,306.400 2.000 C 305.520 2.000,304.800 1.820,304.800 1.600 C 304.800 1.375,303.678 1.200,302.233 1.200 C 300.536 1.200,299.610 1.031,299.500 0.700 C 299.344 0.233,111.474 -0.158,103.100 0.292 M302.000 72.013 C 302.000 72.226,301.640 72.400,301.200 72.400 C 300.760 72.400,300.397 72.625,300.394 72.900 C 300.390 73.230,300.288 73.256,300.094 72.978 C 299.585 72.246,296.800 72.274,296.800 73.011 C 296.800 73.361,296.650 73.555,296.467 73.441 C 296.283 73.328,296.133 73.494,296.133 73.811 C 296.133 74.202,296.282 74.264,296.596 74.003 C 296.894 73.756,297.207 73.767,297.475 74.035 C 297.763 74.323,298.083 74.260,298.514 73.829 C 298.856 73.487,299.195 73.374,299.268 73.578 C 299.341 73.782,302.325 73.995,305.900 74.051 C 309.475 74.107,312.400 74.298,312.400 74.476 C 312.400 74.654,312.574 74.800,312.787 74.800 C 313.001 74.800,313.083 74.560,312.971 74.268 C 312.630 73.381,308.814 72.440,305.900 72.523 C 304.414 72.565,303.199 72.484,303.200 72.343 C 303.200 72.201,302.930 71.982,302.600 71.855 C 302.270 71.729,302.000 71.799,302.000 72.013 M292.100 74.575 C 291.096 75.037,290.905 75.600,291.751 75.600 C 292.291 75.600,293.466 74.488,293.157 74.270 C 293.071 74.209,292.595 74.346,292.100 74.575 M314.087 74.790 C 314.374 75.250,314.728 75.432,314.935 75.225 C 315.395 74.765,314.919 74.000,314.173 74.000 C 313.696 74.000,313.681 74.140,314.087 74.790 M53.437 76.600 C 53.076 77.150,52.937 77.600,53.127 77.600 C 53.316 77.600,53.677 77.150,53.927 76.600 C 54.178 76.050,54.317 75.600,54.237 75.600 C 54.157 75.600,53.797 76.050,53.437 76.600 M346.073 76.600 C 346.323 77.150,346.684 77.600,346.873 77.600 C 347.063 77.600,346.924 77.150,346.563 76.600 C 346.203 76.050,345.843 75.600,345.763 75.600 C 345.683 75.600,345.822 76.050,346.073 76.600 " stroke="none" fill="#7e24b7" fill-rule="evenodd"></path><path id="path1" d="M40.987 257.600 C 40.987 270.470,41.038 275.735,41.100 269.300 C 41.162 262.865,41.162 252.335,41.100 245.900 C 41.038 239.465,40.987 244.730,40.987 257.600 M358.987 257.600 C 358.987 270.470,359.038 275.735,359.100 269.300 C 359.162 262.865,359.162 252.335,359.100 245.900 C 359.038 239.465,358.987 244.730,358.987 257.600 M60.800 332.651 C 60.800 333.116,62.343 334.812,62.494 334.513 C 62.581 334.341,62.235 333.801,61.726 333.314 C 61.217 332.827,60.800 332.529,60.800 332.651 M338.141 333.454 C 337.668 333.946,337.377 334.444,337.494 334.560 C 337.611 334.677,338.063 334.319,338.499 333.765 C 339.507 332.484,339.270 332.278,338.141 333.454 M65.413 337.580 C 65.224 337.885,67.160 339.432,67.355 339.132 C 67.402 339.059,67.030 338.606,66.529 338.123 C 66.028 337.641,65.526 337.397,65.413 337.580 M333.314 338.274 C 332.258 339.379,332.617 339.476,333.954 338.448 C 334.479 338.045,334.749 337.632,334.554 337.531 C 334.359 337.431,333.801 337.765,333.314 338.274 M17.290 342.345 C 16.759 342.672,17.480 344.791,18.124 344.797 C 18.302 344.799,18.317 345.011,18.158 345.268 C 17.969 345.573,18.079 345.655,18.475 345.504 C 18.926 345.330,19.089 345.567,19.113 346.437 C 19.145 347.544,20.083 348.984,20.500 348.567 C 20.607 348.459,20.978 348.967,21.324 349.696 C 21.669 350.424,22.413 351.555,22.975 352.210 C 23.538 352.864,23.999 353.559,24.000 353.754 C 24.000 353.949,24.450 354.525,25.000 355.035 C 25.550 355.545,26.000 356.122,26.000 356.318 C 26.000 356.514,27.036 357.738,28.303 359.037 C 29.569 360.337,31.052 362.030,31.597 362.800 C 32.863 364.587,35.405 367.131,37.190 368.397 C 37.955 368.939,39.636 370.422,40.925 371.692 C 42.215 372.961,43.443 374.000,43.654 374.000 C 43.865 374.000,44.455 374.450,44.965 375.000 C 45.475 375.550,46.058 376.000,46.260 376.000 C 46.463 376.000,47.432 376.715,48.414 377.589 C 49.397 378.462,50.385 379.182,50.612 379.189 C 50.838 379.195,51.283 379.560,51.600 380.000 C 51.917 380.440,52.482 380.800,52.855 380.800 C 53.228 380.800,53.593 380.967,53.667 381.170 C 53.740 381.374,54.070 381.599,54.400 381.670 C 54.730 381.742,55.291 382.115,55.647 382.500 C 56.003 382.885,56.505 383.200,56.764 383.200 C 57.022 383.200,57.620 383.560,58.092 384.000 C 58.564 384.440,59.456 385.024,60.075 385.297 C 60.694 385.571,61.200 385.931,61.200 386.098 C 61.200 386.264,61.560 386.400,62.000 386.400 C 62.440 386.400,62.800 386.580,62.800 386.800 C 62.800 387.020,63.160 387.200,63.600 387.200 C 64.040 387.200,64.400 387.380,64.400 387.600 C 64.400 387.820,64.760 388.000,65.200 388.000 C 65.640 388.000,66.000 388.180,66.000 388.400 C 66.000 388.620,66.360 388.800,66.800 388.800 C 67.240 388.800,67.600 388.980,67.600 389.200 C 67.600 389.420,67.836 389.600,68.125 389.600 C 68.414 389.600,69.583 390.050,70.723 390.600 C 71.863 391.150,73.247 391.600,73.798 391.600 C 74.349 391.600,74.800 391.780,74.800 392.000 C 74.800 392.220,75.072 392.400,75.405 392.400 C 75.993 392.400,76.418 392.567,78.295 393.538 C 78.787 393.792,79.552 394.000,79.995 394.000 C 80.438 394.000,80.800 394.180,80.800 394.400 C 80.800 394.620,81.340 394.800,82.000 394.800 C 82.660 394.800,83.200 394.980,83.200 395.200 C 83.200 395.420,83.729 395.600,84.376 395.600 C 85.023 395.600,85.664 395.780,85.800 396.000 C 85.936 396.220,86.667 396.400,87.424 396.400 C 88.181 396.400,88.800 396.580,88.800 396.800 C 88.800 397.020,89.520 397.200,90.400 397.200 C 91.280 397.200,92.000 397.380,92.000 397.600 C 92.000 397.820,92.720 398.000,93.600 398.000 C 94.480 398.000,95.200 398.180,95.200 398.400 C 95.200 398.625,96.322 398.800,97.767 398.800 C 99.464 398.800,100.390 398.969,100.500 399.300 C 100.745 400.036,299.255 400.036,299.500 399.300 C 299.610 398.969,300.536 398.800,302.233 398.800 C 303.678 398.800,304.800 398.625,304.800 398.400 C 304.800 398.180,305.520 398.000,306.400 398.000 C 307.280 398.000,308.000 397.820,308.000 397.600 C 308.000 397.380,308.720 397.200,309.600 397.200 C 310.480 397.200,311.200 397.020,311.200 396.800 C 311.200 396.580,311.819 396.400,312.576 396.400 C 313.333 396.400,314.064 396.220,314.200 396.000 C 314.336 395.780,314.977 395.600,315.624 395.600 C 316.271 395.600,316.800 395.420,316.800 395.200 C 316.800 394.980,317.340 394.800,318.000 394.800 C 318.660 394.800,319.200 394.620,319.200 394.400 C 319.200 394.180,319.562 394.000,320.005 394.000 C 320.448 394.000,321.168 393.820,321.605 393.600 C 322.042 393.380,322.758 393.020,323.195 392.800 C 323.632 392.580,324.262 392.400,324.595 392.400 C 324.928 392.400,325.200 392.220,325.200 392.000 C 325.200 391.780,325.651 391.600,326.202 391.600 C 326.753 391.600,328.137 391.150,329.277 390.600 C 330.417 390.050,331.586 389.600,331.875 389.600 C 332.164 389.600,332.400 389.420,332.400 389.200 C 332.400 388.980,332.760 388.800,333.200 388.800 C 333.640 388.800,334.000 388.620,334.000 388.400 C 334.000 388.180,334.360 388.000,334.800 388.000 C 335.240 388.000,335.600 387.820,335.600 387.600 C 335.600 387.380,335.960 387.200,336.400 387.200 C 336.840 387.200,337.200 387.020,337.200 386.800 C 337.200 386.580,337.560 386.400,338.000 386.400 C 338.440 386.400,338.800 386.264,338.800 386.098 C 338.800 385.931,339.306 385.571,339.925 385.297 C 340.544 385.024,341.436 384.440,341.908 384.000 C 342.380 383.560,342.978 383.200,343.236 383.200 C 343.495 383.200,343.997 382.885,344.353 382.500 C 344.709 382.115,345.270 381.741,345.600 381.670 C 345.930 381.598,346.260 381.373,346.333 381.170 C 346.407 380.966,346.772 380.800,347.145 380.800 C 347.518 380.800,348.083 380.440,348.400 380.000 C 348.717 379.560,349.162 379.195,349.388 379.189 C 349.615 379.182,350.603 378.462,351.586 377.589 C 352.568 376.715,353.537 376.000,353.740 376.000 C 353.942 376.000,354.525 375.550,355.035 375.000 C 355.545 374.450,356.135 374.000,356.346 374.000 C 356.557 374.000,357.785 372.961,359.075 371.692 C 360.364 370.422,362.045 368.939,362.810 368.397 C 364.595 367.131,367.137 364.587,368.403 362.800 C 368.948 362.030,370.431 360.337,371.697 359.037 C 372.964 357.738,374.000 356.514,374.000 356.318 C 374.000 356.122,374.450 355.545,375.000 355.035 C 375.550 354.525,376.000 353.949,376.000 353.754 C 376.001 353.559,376.462 352.864,377.025 352.210 C 377.587 351.555,378.331 350.424,378.676 349.696 C 379.022 348.967,379.393 348.459,379.500 348.567 C 379.917 348.984,380.855 347.544,380.887 346.437 C 380.911 345.567,381.074 345.330,381.525 345.504 C 381.921 345.655,382.031 345.573,381.842 345.268 C 381.683 345.011,381.698 344.799,381.876 344.797 C 382.520 344.791,383.241 342.672,382.710 342.345 C 382.442 342.179,382.133 342.133,382.023 342.243 C 381.913 342.353,382.058 342.589,382.345 342.766 C 382.748 343.015,382.708 343.150,382.167 343.357 C 381.781 343.505,381.271 343.414,381.033 343.154 C 380.716 342.809,380.734 342.758,381.100 342.965 C 381.375 343.120,381.600 343.054,381.600 342.818 C 381.600 342.295,331.045 342.412,329.800 342.938 C 329.262 343.165,329.175 343.150,329.534 342.893 C 329.966 342.584,329.943 342.464,329.413 342.260 C 329.030 342.114,328.860 342.173,329.003 342.405 C 329.137 342.622,328.898 342.800,328.470 342.800 C 328.022 342.800,327.602 343.149,327.478 343.625 C 327.341 344.145,326.996 344.403,326.540 344.325 C 326.143 344.256,325.814 344.410,325.809 344.667 C 325.796 345.333,325.200 345.845,325.200 345.190 C 325.200 344.832,325.015 344.900,324.655 345.392 C 324.356 345.802,323.774 346.186,323.363 346.247 C 322.951 346.307,322.551 346.546,322.474 346.778 C 322.397 347.010,321.988 347.200,321.567 347.200 C 321.145 347.200,320.800 347.470,320.800 347.800 C 320.800 348.130,320.665 348.381,320.500 348.357 C 319.896 348.270,318.400 348.903,318.400 349.247 C 318.400 349.441,318.055 349.600,317.633 349.600 C 317.212 349.600,316.807 349.735,316.733 349.900 C 316.538 350.340,313.222 352.000,312.539 352.000 C 312.216 352.000,312.064 352.180,312.200 352.400 C 312.336 352.620,312.077 352.800,311.624 352.800 C 311.171 352.800,310.797 353.025,310.794 353.300 C 310.790 353.633,310.658 353.600,310.400 353.200 C 310.187 352.870,310.008 352.780,310.003 353.000 C 309.992 353.482,308.117 354.400,307.144 354.400 C 306.761 354.400,306.336 354.580,306.200 354.800 C 306.064 355.020,305.503 355.200,304.953 355.200 C 304.388 355.200,304.060 355.374,304.200 355.600 C 304.353 355.847,303.636 356.002,302.324 356.006 C 300.805 356.011,300.371 356.123,300.800 356.400 C 301.232 356.679,300.840 356.791,299.400 356.800 C 297.960 356.809,297.568 356.921,298.000 357.200 C 298.423 357.473,297.862 357.590,296.100 357.594 C 294.704 357.597,293.600 357.777,293.600 358.000 C 293.600 358.226,292.459 358.400,290.976 358.400 C 289.533 358.400,288.436 358.535,288.538 358.700 C 288.640 358.865,248.798 359.000,200.000 359.000 C 151.202 359.000,111.360 358.865,111.462 358.700 C 111.564 358.535,110.467 358.400,109.024 358.400 C 107.541 358.400,106.400 358.226,106.400 358.000 C 106.400 357.777,105.296 357.597,103.900 357.594 C 102.138 357.590,101.577 357.473,102.000 357.200 C 102.432 356.921,102.040 356.809,100.600 356.800 C 99.160 356.791,98.768 356.679,99.200 356.400 C 99.629 356.123,99.195 356.011,97.676 356.006 C 96.364 356.002,95.647 355.847,95.800 355.600 C 95.940 355.374,95.612 355.200,95.047 355.200 C 94.497 355.200,93.936 355.020,93.800 354.800 C 93.664 354.580,93.239 354.400,92.856 354.400 C 91.883 354.400,90.008 353.482,89.997 353.000 C 89.992 352.780,89.813 352.870,89.600 353.200 C 89.342 353.600,89.210 353.633,89.206 353.300 C 89.203 353.025,88.829 352.800,88.376 352.800 C 87.923 352.800,87.664 352.620,87.800 352.400 C 87.936 352.180,87.784 352.000,87.461 352.000 C 86.778 352.000,83.462 350.340,83.267 349.900 C 83.193 349.735,82.788 349.600,82.367 349.600 C 81.945 349.600,81.600 349.441,81.600 349.247 C 81.600 348.903,80.104 348.270,79.500 348.357 C 79.335 348.381,79.200 348.130,79.200 347.800 C 79.200 347.470,78.855 347.200,78.433 347.200 C 78.012 347.200,77.603 347.010,77.526 346.778 C 77.449 346.546,77.049 346.307,76.637 346.247 C 76.226 346.186,75.644 345.802,75.345 345.392 C 74.985 344.900,74.800 344.832,74.800 345.190 C 74.800 345.845,74.204 345.333,74.191 344.667 C 74.186 344.410,73.885 344.250,73.521 344.311 C 73.146 344.373,72.750 344.071,72.603 343.611 C 72.458 343.154,71.998 342.800,71.549 342.800 C 71.111 342.800,70.863 342.622,70.997 342.405 C 71.140 342.173,70.970 342.114,70.587 342.260 C 70.057 342.464,70.034 342.584,70.466 342.893 C 70.825 343.150,70.738 343.165,70.200 342.938 C 68.955 342.412,18.400 342.295,18.400 342.818 C 18.400 343.054,18.625 343.120,18.900 342.965 C 19.266 342.758,19.284 342.809,18.967 343.154 C 18.729 343.414,18.219 343.505,17.833 343.357 C 17.292 343.150,17.252 343.015,17.655 342.766 C 17.942 342.589,18.087 342.353,17.977 342.243 C 17.867 342.133,17.558 342.179,17.290 342.345 " stroke="none" fill="#da8941" fill-rule="evenodd"></path><path id="path2" d="M40.846 138.200 L 40.800 158.600 20.400 158.493 L 0.000 158.386 0.000 210.793 L 0.000 263.200 20.000 263.200 L 40.000 263.200 40.059 265.100 L 40.118 267.000 40.449 264.600 C 40.806 262.009,41.438 119.925,41.098 118.600 C 40.985 118.160,40.872 126.980,40.846 138.200 M359.079 190.200 C 359.156 229.800,359.368 263.280,359.551 264.600 L 359.882 267.000 359.941 265.100 L 360.000 263.200 380.000 263.200 L 400.000 263.200 400.000 210.793 L 400.000 158.386 379.603 158.493 L 359.207 158.600 359.073 138.400 C 358.999 127.290,359.001 150.600,359.079 190.200 M156.108 155.000 C 155.426 155.770,154.750 156.400,154.606 156.400 C 154.461 156.400,154.073 156.670,153.743 157.000 C 152.884 157.859,153.480 157.740,154.822 156.784 C 155.833 156.065,157.906 153.600,157.501 153.600 C 157.416 153.600,156.789 154.230,156.108 155.000 M242.223 153.962 C 242.068 154.214,242.089 154.377,242.270 154.324 C 242.673 154.208,245.804 157.285,245.691 157.686 C 245.646 157.843,245.873 157.870,246.195 157.747 C 246.773 157.525,246.116 156.400,245.408 156.400 C 245.271 156.400,244.562 155.748,243.833 154.952 C 242.968 154.009,242.408 153.664,242.223 153.962 M105.498 156.300 C 105.151 156.995,105.449 157.798,106.099 157.924 C 106.594 158.019,106.727 157.876,106.556 157.429 C 106.423 157.083,106.143 156.800,105.934 156.800 C 105.724 156.800,105.664 156.620,105.800 156.400 C 105.936 156.180,105.957 156.000,105.847 156.000 C 105.737 156.000,105.580 156.135,105.498 156.300 M294.162 156.338 C 294.319 156.592,294.276 156.800,294.066 156.800 C 293.857 156.800,293.577 157.083,293.444 157.429 C 293.276 157.867,293.404 158.019,293.864 157.929 C 294.626 157.780,294.933 156.530,294.303 156.140 C 294.051 155.984,293.993 156.066,294.162 156.338 M104.839 158.647 C 105.080 158.937,104.963 159.288,104.505 159.647 C 103.850 160.161,103.843 160.143,104.400 159.400 C 104.956 158.659,104.948 158.640,104.304 159.145 C 103.922 159.445,103.712 159.858,103.839 160.063 C 103.965 160.268,103.889 160.652,103.668 160.918 C 103.448 161.183,103.224 161.580,103.170 161.800 C 102.805 163.295,102.667 163.600,102.353 163.600 C 102.159 163.600,102.000 164.140,102.000 164.800 C 102.000 165.460,101.820 166.000,101.600 166.000 C 101.380 166.000,101.200 166.439,101.200 166.976 C 101.200 167.513,101.020 168.064,100.800 168.200 C 100.580 168.336,100.400 168.977,100.400 169.624 C 100.400 170.271,100.258 170.800,100.085 170.800 C 99.912 170.800,99.726 171.382,99.672 172.093 C 99.617 172.805,99.399 173.561,99.187 173.773 C 98.974 173.986,98.800 174.664,98.800 175.280 C 98.800 175.896,98.654 176.400,98.475 176.400 C 98.296 176.400,98.106 177.240,98.053 178.267 C 98.000 179.294,97.814 180.419,97.641 180.767 C 97.468 181.115,97.284 182.390,97.231 183.600 C 97.179 184.810,96.971 185.860,96.768 185.933 C 96.566 186.007,96.400 187.841,96.400 190.010 C 96.400 192.300,96.226 194.060,95.985 194.209 C 95.469 194.528,95.519 205.503,96.038 205.823 C 96.237 205.947,96.400 207.826,96.400 210.000 C 96.400 212.204,96.577 214.062,96.800 214.200 C 97.020 214.336,97.200 215.348,97.200 216.450 C 97.200 217.551,97.370 218.771,97.578 219.159 C 97.786 219.548,98.000 220.706,98.053 221.733 C 98.106 222.760,98.296 223.600,98.475 223.600 C 98.654 223.600,98.800 224.140,98.800 224.800 C 98.800 225.460,98.980 226.000,99.200 226.000 C 99.420 226.000,99.600 226.720,99.600 227.600 C 99.600 228.480,99.780 229.200,100.000 229.200 C 100.220 229.200,100.400 229.563,100.400 230.006 C 100.400 231.133,101.331 234.000,101.697 234.000 C 101.864 234.000,102.000 234.439,102.000 234.976 C 102.000 235.513,102.180 236.064,102.400 236.200 C 102.620 236.336,102.800 236.799,102.800 237.229 C 102.800 237.659,102.959 238.323,103.154 238.705 C 104.828 241.988,106.000 244.604,106.000 245.056 C 106.000 245.355,106.180 245.600,106.400 245.600 C 106.620 245.600,106.800 245.960,106.800 246.400 C 106.800 246.840,106.980 247.200,107.200 247.200 C 107.420 247.200,107.600 247.560,107.600 248.000 C 107.600 248.440,107.780 248.800,108.000 248.800 C 108.220 248.800,108.400 249.153,108.400 249.584 C 108.400 250.016,108.779 250.722,109.243 251.154 C 109.706 251.586,109.965 252.133,109.819 252.369 C 109.673 252.606,109.726 252.800,109.937 252.800 C 110.462 252.800,112.173 255.670,112.048 256.340 C 111.992 256.637,112.139 256.762,112.373 256.617 C 112.608 256.471,112.800 256.643,112.800 257.000 C 112.800 257.356,112.980 257.536,113.200 257.400 C 113.420 257.264,113.600 257.523,113.600 257.976 C 113.600 258.429,113.780 258.800,114.000 258.800 C 114.220 258.800,114.400 259.001,114.400 259.247 C 114.400 259.493,115.164 260.435,116.098 261.342 C 117.033 262.248,117.754 263.175,117.702 263.401 C 117.650 263.628,118.011 264.064,118.504 264.371 C 119.316 264.876,119.350 264.868,118.866 264.282 C 117.836 263.036,118.992 263.001,155.062 263.200 C 175.048 263.310,191.715 263.259,192.100 263.086 C 192.485 262.913,192.800 262.920,192.800 263.101 C 192.800 263.282,193.171 263.458,193.625 263.492 C 194.203 263.535,194.409 263.352,194.314 262.877 C 194.173 262.176,193.208 262.068,191.092 262.516 C 190.434 262.655,190.080 262.595,190.219 262.368 C 190.349 262.159,190.651 262.108,190.889 262.255 C 191.151 262.417,191.208 262.337,191.034 262.055 C 190.875 261.798,190.577 261.691,190.372 261.817 C 190.168 261.944,190.000 261.895,190.000 261.709 C 190.000 261.523,189.465 261.329,188.810 261.280 C 187.892 261.210,187.674 261.327,187.853 261.794 C 187.981 262.127,187.886 262.400,187.643 262.400 C 187.399 262.400,187.200 262.100,187.200 261.733 C 187.200 261.367,187.089 261.178,186.952 261.314 C 186.816 261.450,186.448 261.305,186.134 260.991 C 185.814 260.672,185.042 260.481,184.381 260.558 C 183.732 260.633,183.200 260.539,183.200 260.348 C 183.200 260.156,183.065 260.021,182.900 260.047 C 182.735 260.073,182.465 260.051,182.300 259.997 C 181.561 259.758,181.325 259.694,180.092 259.404 C 179.372 259.235,178.686 258.940,178.568 258.748 C 178.450 258.557,177.823 258.400,177.176 258.400 C 176.529 258.400,176.000 258.220,176.000 258.000 C 176.000 257.780,175.640 257.600,175.200 257.600 C 174.760 257.600,174.400 257.454,174.400 257.275 C 174.400 257.096,173.770 256.702,173.000 256.400 C 172.230 256.098,171.600 255.743,171.600 255.610 C 171.600 255.478,171.198 255.340,170.706 255.303 C 170.214 255.266,169.749 255.048,169.673 254.818 C 169.596 254.588,169.268 254.400,168.943 254.400 C 168.618 254.400,168.464 254.220,168.600 254.000 C 168.736 253.780,168.567 253.600,168.224 253.600 C 167.881 253.600,167.600 253.420,167.600 253.200 C 167.600 252.980,167.240 252.800,166.800 252.800 C 166.360 252.800,166.000 252.650,166.000 252.468 C 166.000 252.285,165.556 251.898,165.014 251.607 C 164.471 251.317,164.139 250.899,164.275 250.678 C 164.412 250.457,164.330 250.396,164.094 250.542 C 163.858 250.688,163.393 250.536,163.061 250.204 C 162.729 249.872,162.266 249.600,162.033 249.600 C 161.524 249.600,151.200 239.450,151.200 238.949 C 151.199 238.757,150.753 238.082,150.208 237.448 C 149.663 236.814,149.331 236.111,149.470 235.886 C 149.610 235.661,149.543 235.588,149.322 235.725 C 149.101 235.861,148.683 235.529,148.393 234.986 C 148.102 234.444,147.715 234.000,147.532 234.000 C 147.350 234.000,147.200 233.640,147.200 233.200 C 147.200 232.760,147.020 232.400,146.800 232.400 C 146.580 232.400,146.400 232.130,146.400 231.800 C 146.400 231.470,146.220 231.200,146.000 231.200 C 145.780 231.200,145.600 230.930,145.600 230.600 C 145.600 230.270,145.420 230.000,145.200 230.000 C 144.980 230.000,144.800 229.640,144.800 229.200 C 144.800 228.760,144.664 228.400,144.498 228.400 C 144.331 228.400,143.960 227.815,143.671 227.100 C 143.383 226.385,142.979 225.487,142.774 225.105 C 142.568 224.723,142.400 224.138,142.400 223.805 C 142.400 223.472,142.263 223.200,142.095 223.200 C 141.927 223.200,141.460 221.985,141.057 220.500 C 140.653 219.015,139.981 216.682,139.562 215.316 C 139.143 213.950,138.800 212.274,138.800 211.590 C 138.800 210.907,138.614 210.000,138.387 209.576 C 137.864 208.598,137.829 191.289,138.349 190.656 C 138.556 190.405,138.723 189.537,138.722 188.727 C 138.721 187.916,138.839 187.060,138.984 186.825 C 139.256 186.385,141.071 179.864,141.468 177.900 C 141.591 177.295,141.880 176.800,142.112 176.800 C 142.344 176.800,142.428 176.695,142.300 176.567 C 142.172 176.438,142.502 175.467,143.033 174.409 C 143.565 173.350,144.000 172.195,144.000 171.842 C 144.000 171.489,144.180 171.200,144.400 171.200 C 144.620 171.200,144.800 170.930,144.800 170.600 C 144.800 170.270,144.980 170.000,145.200 170.000 C 145.420 170.000,145.600 169.629,145.600 169.176 C 145.600 168.723,145.780 168.464,146.000 168.600 C 146.220 168.736,146.400 168.567,146.400 168.224 C 146.400 167.881,146.591 167.600,146.824 167.600 C 147.057 167.600,147.130 167.411,146.987 167.179 C 146.844 166.948,147.194 166.327,147.764 165.799 C 148.334 165.270,148.800 164.560,148.800 164.219 C 148.800 163.879,148.950 163.600,149.132 163.600 C 149.315 163.600,149.702 163.156,149.993 162.614 C 150.283 162.071,150.673 161.722,150.860 161.837 C 151.047 161.953,151.200 161.756,151.200 161.400 C 151.200 161.044,151.350 160.845,151.533 160.959 C 151.717 161.072,151.867 160.903,151.867 160.582 C 151.867 160.262,151.695 160.000,151.484 160.000 C 151.274 160.000,151.324 159.732,151.596 159.405 C 151.991 158.928,151.981 158.769,151.545 158.608 C 150.324 158.156,104.463 158.194,104.839 158.647 M272.000 158.296 C 247.961 158.404,247.588 158.422,248.404 159.405 C 248.676 159.732,248.726 160.000,248.516 160.000 C 248.305 160.000,248.133 160.262,248.133 160.582 C 248.133 160.903,248.283 161.072,248.467 160.959 C 248.650 160.845,248.800 161.044,248.800 161.400 C 248.800 161.756,248.953 161.953,249.140 161.837 C 249.327 161.722,249.717 162.071,250.007 162.614 C 250.298 163.156,250.685 163.600,250.868 163.600 C 251.050 163.600,251.200 163.879,251.200 164.219 C 251.200 164.560,251.666 165.270,252.236 165.799 C 252.806 166.327,253.156 166.948,253.013 167.179 C 252.870 167.411,252.943 167.600,253.176 167.600 C 253.409 167.600,253.600 167.881,253.600 168.224 C 253.600 168.567,253.780 168.736,254.000 168.600 C 254.220 168.464,254.400 168.723,254.400 169.176 C 254.400 169.629,254.580 170.000,254.800 170.000 C 255.020 170.000,255.200 170.270,255.200 170.600 C 255.200 170.930,255.380 171.200,255.600 171.200 C 255.820 171.200,256.000 171.489,256.000 171.842 C 256.000 172.195,256.435 173.350,256.967 174.409 C 257.498 175.467,257.828 176.438,257.700 176.567 C 257.572 176.695,257.656 176.800,257.888 176.800 C 258.120 176.800,258.409 177.295,258.532 177.900 C 258.929 179.864,260.744 186.385,261.016 186.825 C 261.161 187.060,261.279 187.916,261.278 188.727 C 261.277 189.537,261.444 190.405,261.651 190.656 C 262.171 191.289,262.136 208.598,261.613 209.576 C 261.386 210.000,261.200 210.907,261.200 211.590 C 261.200 212.274,260.857 213.950,260.438 215.316 C 260.019 216.682,259.347 219.015,258.943 220.500 C 258.540 221.985,258.073 223.200,257.905 223.200 C 257.737 223.200,257.600 223.472,257.600 223.805 C 257.600 224.138,257.432 224.723,257.226 225.105 C 257.021 225.487,256.617 226.385,256.329 227.100 C 256.040 227.815,255.669 228.400,255.502 228.400 C 255.336 228.400,255.200 228.760,255.200 229.200 C 255.200 229.640,255.020 230.000,254.800 230.000 C 254.580 230.000,254.400 230.270,254.400 230.600 C 254.400 230.930,254.220 231.200,254.000 231.200 C 253.780 231.200,253.600 231.470,253.600 231.800 C 253.600 232.130,253.420 232.400,253.200 232.400 C 252.980 232.400,252.800 232.760,252.800 233.200 C 252.800 233.640,252.650 234.000,252.468 234.000 C 252.285 234.000,251.898 234.444,251.607 234.986 C 251.317 235.529,250.899 235.861,250.678 235.725 C 250.457 235.588,250.390 235.661,250.530 235.886 C 250.669 236.111,250.337 236.814,249.792 237.448 C 249.247 238.082,248.801 238.757,248.800 238.949 C 248.800 239.450,238.476 249.600,237.967 249.600 C 237.734 249.600,237.271 249.872,236.939 250.204 C 236.607 250.536,236.142 250.688,235.906 250.542 C 235.670 250.396,235.588 250.457,235.725 250.678 C 235.861 250.899,235.529 251.317,234.986 251.607 C 234.444 251.898,234.000 252.285,234.000 252.468 C 234.000 252.650,233.640 252.800,233.200 252.800 C 232.760 252.800,232.400 252.980,232.400 253.200 C 232.400 253.420,232.119 253.600,231.776 253.600 C 231.433 253.600,231.264 253.780,231.400 254.000 C 231.536 254.220,231.382 254.400,231.057 254.400 C 230.732 254.400,230.404 254.588,230.327 254.818 C 230.251 255.048,229.786 255.266,229.294 255.303 C 228.802 255.340,228.400 255.478,228.400 255.610 C 228.400 255.743,227.770 256.098,227.000 256.400 C 226.230 256.702,225.600 257.096,225.600 257.275 C 225.600 257.454,225.240 257.600,224.800 257.600 C 224.360 257.600,224.000 257.780,224.000 258.000 C 224.000 258.220,223.471 258.400,222.824 258.400 C 222.177 258.400,221.550 258.557,221.432 258.748 C 221.314 258.940,220.628 259.235,219.908 259.404 C 218.675 259.694,218.439 259.758,217.700 259.997 C 217.535 260.051,217.265 260.073,217.100 260.047 C 216.935 260.021,216.800 260.156,216.800 260.348 C 216.800 260.539,216.268 260.633,215.619 260.558 C 214.958 260.481,214.186 260.672,213.866 260.991 C 213.552 261.305,213.184 261.450,213.048 261.314 C 212.911 261.178,212.800 261.367,212.800 261.733 C 212.800 262.100,212.601 262.400,212.357 262.400 C 212.114 262.400,212.019 262.127,212.147 261.794 C 212.326 261.327,212.108 261.210,211.190 261.280 C 210.535 261.329,210.000 261.523,210.000 261.709 C 210.000 261.895,209.832 261.944,209.628 261.817 C 209.423 261.691,209.125 261.798,208.966 262.055 C 208.792 262.337,208.849 262.417,209.111 262.255 C 209.349 262.108,209.651 262.159,209.781 262.368 C 209.920 262.595,209.566 262.655,208.908 262.516 C 206.792 262.068,205.827 262.176,205.686 262.877 C 205.591 263.352,205.797 263.535,206.375 263.492 C 206.829 263.458,207.200 263.282,207.200 263.101 C 207.200 262.920,207.515 262.913,207.900 263.086 C 208.285 263.259,224.952 263.310,244.938 263.200 C 281.008 263.001,282.164 263.036,281.134 264.282 C 280.650 264.868,280.684 264.876,281.496 264.371 C 281.989 264.064,282.350 263.628,282.298 263.401 C 282.246 263.175,282.967 262.248,283.902 261.342 C 284.836 260.435,285.600 259.493,285.600 259.247 C 285.600 259.001,285.780 258.800,286.000 258.800 C 286.220 258.800,286.400 258.429,286.400 257.976 C 286.400 257.523,286.580 257.264,286.800 257.400 C 287.020 257.536,287.200 257.356,287.200 257.000 C 287.200 256.643,287.392 256.471,287.627 256.617 C 287.861 256.762,288.008 256.637,287.952 256.340 C 287.827 255.670,289.538 252.800,290.063 252.800 C 290.274 252.800,290.327 252.606,290.181 252.369 C 290.035 252.133,290.294 251.586,290.757 251.154 C 291.221 250.722,291.600 250.016,291.600 249.584 C 291.600 249.153,291.780 248.800,292.000 248.800 C 292.220 248.800,292.400 248.440,292.400 248.000 C 292.400 247.560,292.580 247.200,292.800 247.200 C 293.020 247.200,293.200 246.840,293.200 246.400 C 293.200 245.960,293.380 245.600,293.600 245.600 C 293.820 245.600,294.000 245.355,294.000 245.056 C 294.000 244.604,295.172 241.988,296.846 238.705 C 297.041 238.323,297.200 237.659,297.200 237.229 C 297.200 236.799,297.380 236.336,297.600 236.200 C 297.820 236.064,298.000 235.513,298.000 234.976 C 298.000 234.439,298.136 234.000,298.303 234.000 C 298.669 234.000,299.600 231.133,299.600 230.006 C 299.600 229.563,299.780 229.200,300.000 229.200 C 300.220 229.200,300.400 228.480,300.400 227.600 C 300.400 226.720,300.580 226.000,300.800 226.000 C 301.020 226.000,301.200 225.460,301.200 224.800 C 301.200 224.140,301.346 223.600,301.525 223.600 C 301.704 223.600,301.894 222.760,301.947 221.733 C 302.000 220.706,302.214 219.548,302.422 219.159 C 302.630 218.771,302.800 217.551,302.800 216.450 C 302.800 215.348,302.980 214.336,303.200 214.200 C 303.423 214.062,303.600 212.204,303.600 210.000 C 303.600 207.826,303.763 205.947,303.962 205.823 C 304.481 205.503,304.531 194.528,304.015 194.209 C 303.774 194.060,303.600 192.300,303.600 190.010 C 303.600 187.841,303.434 186.007,303.232 185.933 C 303.029 185.860,302.821 184.810,302.769 183.600 C 302.716 182.390,302.532 181.115,302.359 180.767 C 302.186 180.419,302.000 179.294,301.947 178.267 C 301.894 177.240,301.704 176.400,301.525 176.400 C 301.346 176.400,301.200 175.896,301.200 175.280 C 301.200 174.664,301.026 173.986,300.813 173.773 C 300.601 173.561,300.383 172.805,300.328 172.093 C 300.274 171.382,300.088 170.800,299.915 170.800 C 299.742 170.800,299.600 170.271,299.600 169.624 C 299.600 168.977,299.420 168.336,299.200 168.200 C 298.980 168.064,298.800 167.513,298.800 166.976 C 298.800 166.439,298.620 166.000,298.400 166.000 C 298.180 166.000,298.000 165.460,298.000 164.800 C 298.000 164.140,297.841 163.600,297.647 163.600 C 297.344 163.600,297.151 163.166,296.801 161.691 C 296.763 161.531,296.552 161.183,296.332 160.918 C 296.111 160.652,296.035 160.268,296.161 160.063 C 296.288 159.858,296.078 159.445,295.696 159.145 C 295.052 158.640,295.044 158.659,295.600 159.400 C 296.157 160.143,296.150 160.161,295.495 159.647 C 294.954 159.223,294.896 158.967,295.244 158.547 C 295.494 158.246,295.541 158.043,295.349 158.097 C 295.157 158.150,284.650 158.240,272.000 158.296 M194.686 262.808 C 194.852 263.440,195.017 263.518,195.444 263.163 C 196.064 262.649,195.823 262.000,195.014 262.000 C 194.670 262.000,194.551 262.293,194.686 262.808 M196.557 262.633 C 196.691 262.981,196.800 263.347,196.800 263.447 C 196.800 263.547,197.160 263.435,197.600 263.200 C 198.168 262.896,198.400 262.896,198.400 263.200 C 198.400 263.504,198.632 263.504,199.200 263.200 C 199.768 262.896,200.232 262.896,200.800 263.200 C 201.368 263.504,201.600 263.504,201.600 263.200 C 201.600 262.903,201.833 262.897,202.360 263.179 C 202.947 263.493,203.177 263.437,203.369 262.935 C 203.689 262.101,203.262 261.653,202.823 262.363 C 202.630 262.676,202.277 262.771,201.983 262.590 C 201.314 262.176,198.665 262.189,197.985 262.609 C 197.659 262.811,197.385 262.756,197.290 262.471 C 197.204 262.212,196.949 262.000,196.724 262.000 C 196.499 262.000,196.424 262.285,196.557 262.633 M204.228 262.355 C 204.107 262.550,204.255 262.914,204.556 263.163 C 204.983 263.518,205.148 263.440,205.314 262.808 C 205.527 261.991,204.673 261.634,204.228 262.355 " stroke="none" fill="#c22e65" fill-rule="evenodd"></path><path id="path3" d="M56.800 71.824 C 56.800 72.167,56.620 72.336,56.400 72.200 C 55.796 71.826,55.205 72.346,55.464 73.023 C 55.645 73.494,55.815 73.520,56.269 73.143 C 57.116 72.439,57.720 71.200,57.214 71.200 C 56.986 71.200,56.800 71.481,56.800 71.824 M342.764 71.933 C 343.443 73.201,344.272 73.711,344.536 73.023 C 344.795 72.346,344.204 71.826,343.600 72.200 C 343.380 72.336,343.200 72.167,343.200 71.824 C 343.200 71.481,343.014 71.200,342.786 71.200 C 342.508 71.200,342.501 71.442,342.764 71.933 M302.863 72.129 C 303.144 72.430,303.800 72.571,304.379 72.456 L 305.400 72.252 304.400 71.966 C 302.700 71.479,302.296 71.522,302.863 72.129 M294.579 73.565 C 294.734 73.817,294.541 74.000,294.120 74.000 C 293.720 74.000,293.157 74.378,292.868 74.839 C 292.528 75.384,292.073 75.608,291.572 75.477 C 291.147 75.366,290.800 75.449,290.800 75.661 C 290.800 75.873,290.612 75.931,290.382 75.789 C 289.703 75.369,288.641 76.443,289.281 76.902 C 289.653 77.170,289.596 77.209,289.079 77.042 C 288.682 76.914,288.142 76.993,287.879 77.218 C 287.615 77.443,287.040 77.904,286.600 78.243 C 286.160 78.582,286.070 78.721,286.400 78.553 C 286.919 78.288,286.925 78.339,286.443 78.933 C 286.137 79.310,285.791 79.525,285.675 79.409 C 285.362 79.096,284.000 80.440,284.000 81.062 C 284.000 81.358,283.790 81.600,283.533 81.600 C 283.277 81.600,283.181 81.714,283.320 81.853 C 283.459 81.992,283.170 82.423,282.678 82.810 C 282.186 83.197,281.528 84.163,281.217 84.957 C 280.905 85.751,280.544 86.400,280.413 86.400 C 280.282 86.400,280.134 86.895,280.084 87.500 C 280.034 88.105,279.815 88.660,279.597 88.733 C 279.378 88.807,279.200 89.377,279.200 90.000 C 279.200 90.623,279.010 91.197,278.777 91.274 C 278.197 91.468,278.192 102.752,278.772 103.332 C 279.007 103.567,279.200 104.253,279.200 104.856 C 279.200 105.459,279.380 106.064,279.600 106.200 C 279.820 106.336,280.000 106.797,280.000 107.224 C 280.000 107.651,280.180 108.000,280.400 108.000 C 280.620 108.000,280.800 108.360,280.800 108.800 C 280.800 109.240,280.980 109.600,281.200 109.600 C 281.420 109.600,281.600 109.894,281.600 110.253 C 281.600 110.612,281.916 111.197,282.303 111.553 C 282.689 111.909,283.256 112.689,283.563 113.286 C 283.870 113.884,284.273 114.278,284.460 114.163 C 284.647 114.047,284.800 114.161,284.800 114.416 C 284.800 114.960,287.612 117.577,288.212 117.591 C 288.438 117.596,288.883 117.960,289.200 118.400 C 289.517 118.840,290.082 119.200,290.455 119.200 C 290.828 119.200,291.193 119.335,291.267 119.500 C 291.505 120.035,294.851 121.600,295.758 121.600 C 296.243 121.600,296.811 121.763,297.020 121.963 C 297.366 122.294,298.381 122.449,303.500 122.956 C 304.435 123.048,305.281 122.992,305.381 122.831 C 305.480 122.670,306.605 122.497,307.881 122.447 C 309.156 122.396,310.260 122.185,310.333 121.978 C 310.407 121.770,310.904 121.600,311.439 121.600 C 312.443 121.600,312.954 121.404,315.000 120.236 C 315.660 119.859,316.515 119.451,316.900 119.329 C 317.285 119.207,317.600 118.948,317.600 118.753 C 317.600 118.559,317.864 118.400,318.186 118.400 C 319.008 118.400,324.186 113.081,324.795 111.613 C 325.071 110.946,325.466 110.400,325.672 110.400 C 325.878 110.400,325.945 110.235,325.820 110.032 C 325.695 109.830,325.864 109.393,326.196 109.061 C 326.528 108.729,326.800 108.174,326.800 107.829 C 326.800 107.483,326.980 107.200,327.200 107.200 C 327.420 107.200,327.600 106.570,327.600 105.800 C 327.600 105.030,327.780 104.400,328.000 104.400 C 328.220 104.400,328.400 103.601,328.400 102.624 C 328.400 101.647,328.580 100.736,328.800 100.600 C 329.020 100.464,329.200 99.003,329.200 97.353 C 329.200 95.455,329.053 94.444,328.800 94.600 C 328.552 94.753,328.400 94.012,328.400 92.647 C 328.400 91.437,328.220 90.336,328.000 90.200 C 327.780 90.064,327.600 89.434,327.600 88.800 C 327.600 88.166,327.420 87.536,327.200 87.400 C 326.980 87.264,326.800 86.793,326.800 86.353 C 326.800 85.913,326.620 85.664,326.400 85.800 C 326.180 85.936,326.000 85.711,326.000 85.299 C 326.000 84.888,325.640 84.164,325.200 83.692 C 324.760 83.220,324.400 82.635,324.400 82.393 C 324.400 82.151,324.192 82.081,323.938 82.238 C 323.649 82.417,323.585 82.348,323.767 82.054 C 323.944 81.767,322.951 80.497,321.220 78.792 C 318.672 76.284,317.956 75.774,317.442 76.100 C 317.355 76.155,316.908 75.860,316.449 75.445 C 315.727 74.791,315.523 74.764,314.933 75.245 C 314.330 75.735,314.282 75.715,314.521 75.079 C 314.672 74.676,314.629 74.459,314.423 74.586 C 314.221 74.711,313.942 74.630,313.804 74.407 C 313.666 74.183,313.373 74.000,313.153 74.000 C 312.933 74.000,312.864 74.180,313.000 74.400 C 313.136 74.620,313.057 74.800,312.824 74.800 C 312.591 74.800,312.400 74.654,312.400 74.476 C 312.400 74.298,309.475 74.107,305.900 74.051 C 302.325 73.995,299.341 73.782,299.268 73.578 C 299.195 73.374,298.859 73.484,298.520 73.823 C 298.003 74.340,297.801 74.353,297.252 73.903 C 296.432 73.231,294.198 72.949,294.579 73.565 M9.600 74.349 C 9.600 74.548,9.306 74.686,8.946 74.656 C 8.197 74.592,6.826 76.779,6.706 78.226 C 6.662 78.762,6.485 79.200,6.313 79.200 C 6.141 79.200,6.000 79.549,6.000 79.976 C 6.000 80.403,5.820 80.864,5.600 81.000 C 5.380 81.136,5.200 81.687,5.200 82.224 C 5.200 82.761,5.020 83.200,4.800 83.200 C 4.580 83.200,4.400 83.819,4.400 84.576 C 4.400 85.333,4.220 86.064,4.000 86.200 C 3.780 86.336,3.600 86.966,3.600 87.600 C 3.600 88.234,3.420 88.864,3.200 89.000 C 2.980 89.136,2.800 89.967,2.800 90.847 C 2.800 91.812,2.641 92.349,2.400 92.200 C 2.159 92.051,2.000 92.588,2.000 93.553 C 2.000 94.433,1.820 95.264,1.600 95.400 C 1.380 95.536,1.200 96.681,1.200 97.944 C 1.200 99.248,0.984 100.456,0.700 100.740 C 0.312 101.128,0.172 107.625,0.074 129.813 L -0.052 158.386 20.374 158.493 L 40.800 158.600 40.797 139.800 C 40.795 121.561,41.355 106.739,42.056 106.467 C 42.245 106.393,42.400 105.448,42.400 104.367 C 42.400 103.285,42.580 102.400,42.800 102.400 C 43.020 102.400,43.200 101.781,43.200 101.024 C 43.200 100.267,43.380 99.536,43.600 99.400 C 43.820 99.264,44.000 98.533,44.000 97.776 C 44.000 97.019,44.180 96.400,44.400 96.400 C 44.620 96.400,44.800 95.860,44.800 95.200 C 44.800 94.540,44.980 94.000,45.200 94.000 C 45.420 94.000,45.600 93.460,45.600 92.800 C 45.600 92.140,45.780 91.600,46.000 91.600 C 46.220 91.600,46.400 91.251,46.400 90.824 C 46.400 90.397,46.580 89.936,46.800 89.800 C 47.020 89.664,47.200 89.203,47.200 88.776 C 47.200 88.349,47.380 88.000,47.600 88.000 C 47.820 88.000,48.000 87.640,48.000 87.200 C 48.000 86.760,48.180 86.400,48.400 86.400 C 48.620 86.400,48.800 86.040,48.800 85.600 C 48.800 85.160,48.980 84.800,49.200 84.800 C 49.420 84.800,49.600 84.440,49.600 84.000 C 49.600 83.560,49.780 83.200,50.000 83.200 C 50.220 83.200,50.400 82.840,50.400 82.400 C 50.400 81.960,50.546 81.600,50.725 81.600 C 50.904 81.600,51.295 80.978,51.593 80.218 C 51.891 79.458,52.315 78.948,52.536 79.084 C 52.767 79.227,52.836 79.071,52.699 78.713 C 52.568 78.373,52.898 77.453,53.431 76.669 C 53.964 75.884,54.397 75.008,54.394 74.721 C 54.389 74.346,54.280 74.368,54.000 74.800 C 53.667 75.315,53.611 75.303,53.606 74.713 C 53.600 74.072,52.117 74.025,31.600 74.007 C 18.732 73.995,9.600 74.138,9.600 74.349 M346.400 74.437 C 346.400 74.662,346.220 74.736,346.000 74.600 C 345.288 74.160,345.576 75.206,346.569 76.669 C 347.102 77.453,347.432 78.373,347.301 78.713 C 347.164 79.071,347.233 79.227,347.464 79.084 C 347.685 78.948,348.109 79.458,348.407 80.218 C 348.705 80.978,349.096 81.600,349.275 81.600 C 349.454 81.600,349.600 81.960,349.600 82.400 C 349.600 82.840,349.780 83.200,350.000 83.200 C 350.220 83.200,350.400 83.560,350.400 84.000 C 350.400 84.440,350.580 84.800,350.800 84.800 C 351.020 84.800,351.200 85.160,351.200 85.600 C 351.200 86.040,351.380 86.400,351.600 86.400 C 351.820 86.400,352.000 86.760,352.000 87.200 C 352.000 87.640,352.180 88.000,352.400 88.000 C 352.620 88.000,352.800 88.349,352.800 88.776 C 352.800 89.203,352.980 89.664,353.200 89.800 C 353.420 89.936,353.600 90.397,353.600 90.824 C 353.600 91.251,353.780 91.600,354.000 91.600 C 354.220 91.600,354.400 92.140,354.400 92.800 C 354.400 93.460,354.580 94.000,354.800 94.000 C 355.020 94.000,355.200 94.540,355.200 95.200 C 355.200 95.860,355.380 96.400,355.600 96.400 C 355.820 96.400,356.000 97.019,356.000 97.776 C 356.000 98.533,356.180 99.264,356.400 99.400 C 356.620 99.536,356.800 100.267,356.800 101.024 C 356.800 101.781,356.980 102.400,357.200 102.400 C 357.420 102.400,357.600 103.285,357.600 104.367 C 357.600 105.448,357.755 106.393,357.944 106.467 C 358.645 106.739,359.205 121.561,359.203 139.800 L 359.200 158.600 379.626 158.493 L 400.052 158.386 399.926 129.813 C 399.828 107.625,399.688 101.128,399.300 100.740 C 399.016 100.456,398.800 99.248,398.800 97.944 C 398.800 96.681,398.620 95.536,398.400 95.400 C 398.180 95.264,398.000 94.433,398.000 93.553 C 398.000 92.588,397.841 92.051,397.600 92.200 C 397.359 92.349,397.200 91.812,397.200 90.847 C 397.200 89.967,397.020 89.136,396.800 89.000 C 396.580 88.864,396.400 88.234,396.400 87.600 C 396.400 86.966,396.220 86.336,396.000 86.200 C 395.780 86.064,395.600 85.333,395.600 84.576 C 395.600 83.819,395.420 83.200,395.200 83.200 C 394.980 83.200,394.800 82.761,394.800 82.224 C 394.800 81.687,394.620 81.136,394.400 81.000 C 394.180 80.864,394.000 80.403,394.000 79.976 C 394.000 79.549,393.859 79.200,393.687 79.200 C 393.515 79.200,393.338 78.762,393.294 78.226 C 393.174 76.779,391.803 74.592,391.054 74.656 C 390.694 74.686,390.400 74.548,390.400 74.349 C 390.400 74.138,381.268 73.995,368.400 74.007 C 353.635 74.020,346.400 74.161,346.400 74.437 M194.000 96.005 C 193.670 96.216,191.645 96.391,189.500 96.394 C 187.171 96.398,185.600 96.561,185.600 96.800 C 185.600 97.022,184.541 97.200,183.224 97.200 C 181.917 97.200,180.736 97.380,180.600 97.600 C 180.464 97.820,179.564 98.000,178.600 98.000 C 177.636 98.000,176.736 98.180,176.600 98.400 C 176.464 98.620,175.924 98.800,175.400 98.800 C 174.876 98.800,174.336 98.980,174.200 99.200 C 174.064 99.420,173.243 99.600,172.376 99.600 C 171.509 99.600,170.800 99.780,170.800 100.000 C 170.800 100.220,170.181 100.400,169.424 100.400 C 168.667 100.400,167.936 100.580,167.800 100.800 C 167.664 101.020,167.203 101.200,166.776 101.200 C 166.349 101.200,166.000 101.380,166.000 101.600 C 166.000 101.820,165.561 102.000,165.024 102.000 C 164.487 102.000,163.936 102.180,163.800 102.400 C 163.664 102.620,163.124 102.800,162.600 102.800 C 162.076 102.800,161.536 102.980,161.400 103.200 C 161.264 103.420,160.713 103.600,160.176 103.600 C 159.639 103.600,159.200 103.780,159.200 104.000 C 159.200 104.220,158.840 104.400,158.400 104.400 C 157.960 104.400,157.600 104.580,157.600 104.800 C 157.600 105.020,157.240 105.200,156.800 105.200 C 156.360 105.200,156.000 105.380,156.000 105.600 C 156.000 105.820,155.640 106.000,155.200 106.000 C 154.760 106.000,154.400 106.180,154.400 106.400 C 154.400 106.620,154.040 106.800,153.600 106.800 C 153.160 106.800,152.800 106.980,152.800 107.200 C 152.800 107.420,152.440 107.600,152.000 107.600 C 151.560 107.600,151.200 107.780,151.200 108.000 C 151.200 108.220,150.933 108.400,150.608 108.400 C 150.282 108.400,149.031 109.030,147.827 109.800 C 146.623 110.570,145.450 111.200,145.219 111.200 C 144.989 111.200,144.800 111.380,144.800 111.600 C 144.800 111.820,144.530 112.000,144.200 112.000 C 143.870 112.000,143.600 112.180,143.600 112.400 C 143.600 112.620,143.375 112.800,143.100 112.800 C 142.825 112.801,142.077 113.251,141.438 113.800 C 140.799 114.350,140.132 114.800,139.956 114.800 C 139.780 114.800,139.186 115.250,138.636 115.800 C 138.086 116.350,137.475 116.800,137.278 116.800 C 137.080 116.800,136.394 117.295,135.752 117.900 C 135.111 118.505,134.100 119.252,133.507 119.560 C 132.913 119.868,132.522 120.273,132.637 120.460 C 132.753 120.647,132.657 120.800,132.424 120.800 C 131.870 120.800,120.800 131.870,120.800 132.424 C 120.800 132.657,120.620 132.736,120.400 132.600 C 120.180 132.464,120.000 132.734,120.000 133.200 C 120.000 133.666,119.820 133.936,119.600 133.800 C 119.380 133.664,119.200 133.745,119.200 133.980 C 119.200 134.215,118.660 134.972,118.000 135.663 C 117.340 136.354,116.800 137.078,116.800 137.274 C 116.800 137.469,116.433 138.027,115.984 138.514 C 114.917 139.673,113.414 141.873,112.577 143.500 C 112.210 144.215,111.770 144.800,111.601 144.800 C 111.293 144.800,110.675 146.336,110.757 146.900 C 110.781 147.065,110.620 147.200,110.400 147.200 C 110.180 147.200,110.000 147.470,110.000 147.800 C 110.000 148.130,109.854 148.400,109.675 148.400 C 109.496 148.400,109.102 149.030,108.800 149.800 C 108.498 150.570,108.094 151.200,107.902 151.200 C 107.710 151.200,107.655 151.365,107.780 151.568 C 107.905 151.770,107.732 152.210,107.397 152.546 C 107.061 152.882,106.817 153.302,106.855 153.479 C 106.977 154.042,105.757 156.424,105.486 156.153 C 105.342 156.009,105.299 156.276,105.390 156.746 C 105.505 157.345,105.352 157.602,104.877 157.606 C 104.294 157.611,104.283 157.666,104.800 158.000 C 105.169 158.239,114.253 158.390,128.433 158.394 C 151.390 158.400,152.391 158.446,151.548 159.463 C 150.882 160.265,151.743 160.117,152.732 159.259 C 153.201 158.852,153.469 158.402,153.326 158.259 C 153.183 158.117,153.290 158.000,153.562 158.000 C 153.834 158.000,154.327 157.730,154.657 157.400 C 154.987 157.070,155.075 156.800,154.852 156.800 C 154.629 156.800,154.336 156.980,154.200 157.200 C 154.064 157.420,153.771 157.600,153.548 157.600 C 153.325 157.600,153.413 157.330,153.743 157.000 C 154.073 156.670,154.455 156.400,154.592 156.400 C 154.729 156.400,155.417 155.813,156.120 155.096 C 156.824 154.378,157.265 153.964,157.100 154.176 C 156.550 154.880,156.791 155.266,157.400 154.657 C 157.730 154.327,158.000 153.834,158.000 153.562 C 158.000 153.290,158.114 153.180,158.253 153.319 C 158.392 153.458,158.998 153.045,159.600 152.400 C 160.202 151.755,160.808 151.342,160.947 151.481 C 161.086 151.620,161.200 151.423,161.200 151.043 C 161.200 150.663,161.380 150.464,161.600 150.600 C 161.820 150.736,162.000 150.646,162.000 150.400 C 162.000 150.154,162.180 150.064,162.400 150.200 C 162.620 150.336,162.800 150.257,162.800 150.024 C 162.800 149.791,163.064 149.600,163.386 149.600 C 163.708 149.600,164.165 149.240,164.400 148.800 C 164.635 148.360,165.092 148.000,165.414 148.000 C 165.736 148.000,166.000 147.820,166.000 147.600 C 166.000 147.380,166.360 147.200,166.800 147.200 C 167.240 147.200,167.600 147.020,167.600 146.800 C 167.600 146.580,167.842 146.400,168.138 146.400 C 168.434 146.400,169.002 146.040,169.400 145.600 C 169.798 145.160,170.456 144.800,170.862 144.800 C 171.268 144.800,171.600 144.620,171.600 144.400 C 171.600 144.180,171.960 144.000,172.400 144.000 C 172.840 144.000,173.200 143.820,173.200 143.600 C 173.200 143.380,173.571 143.200,174.024 143.200 C 174.477 143.200,174.736 143.020,174.600 142.800 C 174.456 142.567,174.863 142.400,175.576 142.400 C 176.249 142.400,176.800 142.220,176.800 142.000 C 176.800 141.780,177.250 141.600,177.800 141.600 C 178.350 141.600,178.800 141.431,178.800 141.225 C 178.800 141.019,179.115 140.850,179.500 140.849 C 179.885 140.849,181.640 140.454,183.400 139.971 C 185.160 139.488,187.500 139.009,188.600 138.905 C 189.700 138.802,190.808 138.549,191.061 138.342 C 191.317 138.134,195.305 137.966,200.000 137.966 C 204.695 137.966,208.683 138.134,208.939 138.342 C 209.192 138.549,210.300 138.802,211.400 138.905 C 212.500 139.009,214.840 139.488,216.600 139.971 C 218.360 140.454,220.115 140.849,220.500 140.849 C 220.885 140.850,221.200 141.019,221.200 141.225 C 221.200 141.431,221.650 141.600,222.200 141.600 C 222.750 141.600,223.200 141.780,223.200 142.000 C 223.200 142.220,223.751 142.400,224.424 142.400 C 225.137 142.400,225.544 142.567,225.400 142.800 C 225.264 143.020,225.523 143.200,225.976 143.200 C 226.429 143.200,226.800 143.380,226.800 143.600 C 226.800 143.820,227.160 144.000,227.600 144.000 C 228.040 144.000,228.400 144.180,228.400 144.400 C 228.400 144.620,228.732 144.800,229.138 144.800 C 229.544 144.800,230.202 145.160,230.600 145.600 C 230.998 146.040,231.566 146.400,231.862 146.400 C 232.158 146.400,232.400 146.580,232.400 146.800 C 232.400 147.020,232.760 147.200,233.200 147.200 C 233.640 147.200,234.000 147.380,234.000 147.600 C 234.000 147.820,234.264 148.000,234.586 148.000 C 234.908 148.000,235.365 148.360,235.600 148.800 C 235.835 149.240,236.292 149.600,236.614 149.600 C 236.936 149.600,237.200 149.791,237.200 150.024 C 237.200 150.257,237.380 150.336,237.600 150.200 C 237.820 150.064,238.000 150.154,238.000 150.400 C 238.000 150.646,238.180 150.736,238.400 150.600 C 238.620 150.464,238.800 150.663,238.800 151.043 C 238.800 151.423,238.914 151.620,239.053 151.481 C 239.192 151.342,239.822 151.781,240.453 152.456 C 241.084 153.132,241.601 153.531,241.603 153.342 C 241.604 153.154,241.963 153.540,242.400 154.200 C 242.837 154.860,243.196 155.211,243.197 154.980 C 243.199 154.749,243.065 154.387,242.900 154.176 C 242.735 153.964,243.176 154.378,243.880 155.096 C 244.583 155.813,245.271 156.400,245.408 156.400 C 245.545 156.400,245.927 156.670,246.257 157.000 C 246.587 157.330,246.675 157.600,246.452 157.600 C 246.229 157.600,245.936 157.420,245.800 157.200 C 245.664 156.980,245.338 156.801,245.076 156.803 C 244.814 156.804,245.140 157.163,245.800 157.600 C 246.460 158.037,246.837 158.396,246.639 158.397 C 246.440 158.399,246.693 158.760,247.200 159.200 C 248.242 160.103,249.140 160.292,248.452 159.463 C 247.609 158.446,248.610 158.400,271.567 158.394 C 285.747 158.390,294.831 158.239,295.200 158.000 C 295.717 157.666,295.706 157.611,295.123 157.606 C 294.648 157.602,294.495 157.345,294.610 156.746 C 294.701 156.276,294.658 156.009,294.514 156.153 C 294.243 156.424,293.023 154.042,293.145 153.479 C 293.183 153.302,292.939 152.882,292.603 152.546 C 292.268 152.210,292.095 151.770,292.220 151.568 C 292.345 151.365,292.290 151.200,292.098 151.200 C 291.906 151.200,291.502 150.570,291.200 149.800 C 290.898 149.030,290.504 148.400,290.325 148.400 C 290.146 148.400,290.000 148.130,290.000 147.800 C 290.000 147.470,289.820 147.200,289.600 147.200 C 289.380 147.200,289.219 147.065,289.243 146.900 C 289.325 146.336,288.707 144.800,288.399 144.800 C 288.230 144.800,287.790 144.215,287.423 143.500 C 286.586 141.873,285.083 139.673,284.016 138.514 C 283.567 138.027,283.200 137.469,283.200 137.274 C 283.200 137.078,282.660 136.354,282.000 135.663 C 281.340 134.972,280.800 134.215,280.800 133.980 C 280.800 133.745,280.620 133.664,280.400 133.800 C 280.180 133.936,280.000 133.666,280.000 133.200 C 280.000 132.734,279.820 132.464,279.600 132.600 C 279.380 132.736,279.200 132.657,279.200 132.424 C 279.200 131.870,268.130 120.800,267.576 120.800 C 267.343 120.800,267.247 120.647,267.363 120.460 C 267.478 120.273,267.087 119.868,266.493 119.560 C 265.900 119.252,264.889 118.505,264.248 117.900 C 263.606 117.295,262.920 116.800,262.722 116.800 C 262.525 116.800,261.914 116.350,261.364 115.800 C 260.814 115.250,260.220 114.800,260.044 114.800 C 259.868 114.800,259.201 114.350,258.562 113.800 C 257.923 113.251,257.175 112.801,256.900 112.800 C 256.625 112.800,256.400 112.620,256.400 112.400 C 256.400 112.180,256.130 112.000,255.800 112.000 C 255.470 112.000,255.200 111.820,255.200 111.600 C 255.200 111.380,255.011 111.200,254.781 111.200 C 254.550 111.200,253.377 110.570,252.173 109.800 C 250.969 109.030,249.718 108.400,249.392 108.400 C 249.067 108.400,248.800 108.220,248.800 108.000 C 248.800 107.780,248.440 107.600,248.000 107.600 C 247.560 107.600,247.200 107.420,247.200 107.200 C 247.200 106.980,246.840 106.800,246.400 106.800 C 245.960 106.800,245.600 106.620,245.600 106.400 C 245.600 106.180,245.240 106.000,244.800 106.000 C 244.360 106.000,244.000 105.820,244.000 105.600 C 244.000 105.380,243.640 105.200,243.200 105.200 C 242.760 105.200,242.400 105.020,242.400 104.800 C 242.400 104.580,242.040 104.400,241.600 104.400 C 241.160 104.400,240.800 104.220,240.800 104.000 C 240.800 103.780,240.361 103.600,239.824 103.600 C 239.287 103.600,238.736 103.420,238.600 103.200 C 238.464 102.980,237.924 102.800,237.400 102.800 C 236.876 102.800,236.336 102.620,236.200 102.400 C 236.064 102.180,235.513 102.000,234.976 102.000 C 234.439 102.000,234.000 101.820,234.000 101.600 C 234.000 101.380,233.651 101.200,233.224 101.200 C 232.797 101.200,232.336 101.020,232.200 100.800 C 232.064 100.580,231.333 100.400,230.576 100.400 C 229.819 100.400,229.200 100.220,229.200 100.000 C 229.200 99.780,228.491 99.600,227.624 99.600 C 226.757 99.600,225.936 99.420,225.800 99.200 C 225.664 98.980,225.124 98.800,224.600 98.800 C 224.076 98.800,223.536 98.620,223.400 98.400 C 223.264 98.180,222.364 98.000,221.400 98.000 C 220.436 98.000,219.536 97.820,219.400 97.600 C 219.264 97.380,218.083 97.200,216.776 97.200 C 215.469 97.200,214.400 97.032,214.400 96.826 C 214.400 96.176,194.959 95.394,194.000 96.005 M106.545 157.400 C 106.677 157.744,106.553 158.000,106.254 158.000 C 105.968 158.000,105.733 157.730,105.733 157.400 C 105.733 157.070,105.864 156.800,106.024 156.800 C 106.184 156.800,106.418 157.070,106.545 157.400 M294.267 157.400 C 294.267 157.730,294.032 158.000,293.746 158.000 C 293.447 158.000,293.323 157.744,293.455 157.400 C 293.582 157.070,293.816 156.800,293.976 156.800 C 294.136 156.800,294.267 157.070,294.267 157.400 M104.490 158.870 C 104.551 159.162,104.412 159.367,104.183 159.328 C 103.954 159.288,103.738 159.623,103.704 160.073 C 103.671 160.523,103.680 160.825,103.726 160.745 C 103.771 160.665,104.133 160.213,104.530 159.740 C 105.014 159.163,105.108 158.791,104.816 158.610 C 104.573 158.460,104.429 158.575,104.490 158.870 M295.061 158.702 C 294.958 158.868,295.207 159.415,295.613 159.917 C 296.298 160.763,296.348 160.772,296.293 160.043 C 296.261 159.610,296.046 159.288,295.817 159.328 C 295.588 159.367,295.445 159.175,295.500 158.900 C 295.611 158.347,295.352 158.231,295.061 158.702 " stroke="none" fill="#ac1c8a" fill-rule="evenodd"></path><path id="path4" d="M160.400 248.300 C 160.400 248.469,160.760 248.832,161.200 249.107 C 161.640 249.382,162.000 249.469,162.000 249.300 C 162.000 249.131,161.640 248.768,161.200 248.493 C 160.760 248.218,160.400 248.131,160.400 248.300 M238.629 248.629 C 238.205 248.938,237.936 249.269,238.030 249.363 C 238.124 249.457,238.548 249.281,238.971 248.971 C 239.395 248.662,239.664 248.331,239.570 248.237 C 239.476 248.143,239.052 248.319,238.629 248.629 M182.180 259.968 C 182.332 260.213,182.607 260.319,182.793 260.204 C 182.979 260.089,183.224 260.181,183.336 260.408 C 183.448 260.634,183.494 260.590,183.437 260.310 C 183.380 260.030,183.012 259.738,182.619 259.662 C 182.175 259.575,182.009 259.691,182.180 259.968 M216.584 260.027 C 216.439 260.261,216.428 260.561,216.560 260.693 C 216.692 260.825,216.800 260.713,216.800 260.443 C 216.800 260.173,216.968 260.056,217.172 260.183 C 217.377 260.309,217.658 260.230,217.796 260.007 C 217.934 259.783,217.777 259.600,217.447 259.600 C 217.117 259.600,216.729 259.792,216.584 260.027 M186.084 260.958 C 186.368 261.265,186.735 261.434,186.900 261.334 C 187.065 261.235,187.200 261.433,187.200 261.776 C 187.200 262.119,187.380 262.400,187.600 262.400 C 188.294 262.400,188.035 261.670,187.111 261.023 C 186.006 260.249,185.393 260.210,186.084 260.958 M212.889 261.023 C 211.965 261.670,211.706 262.400,212.400 262.400 C 212.620 262.400,212.800 262.119,212.800 261.776 C 212.800 261.433,212.935 261.235,213.100 261.334 C 213.265 261.434,213.632 261.265,213.916 260.958 C 214.607 260.210,213.994 260.249,212.889 261.023 M190.122 261.853 C 190.148 262.396,190.388 262.661,190.782 262.583 C 191.122 262.516,191.670 262.442,192.000 262.418 C 192.478 262.384,192.457 262.292,191.897 261.966 C 191.510 261.741,191.030 261.658,190.831 261.781 C 190.632 261.904,190.381 261.779,190.275 261.502 C 190.169 261.226,190.100 261.384,190.122 261.853 M209.600 261.624 C 209.600 261.857,209.421 261.937,209.203 261.802 C 208.985 261.667,208.490 261.741,208.103 261.966 C 207.543 262.292,207.522 262.384,208.000 262.418 C 208.330 262.442,208.878 262.516,209.218 262.583 C 209.587 262.656,209.860 262.401,209.894 261.953 C 209.925 261.539,209.871 261.200,209.775 261.200 C 209.679 261.200,209.600 261.391,209.600 261.624 M194.278 262.778 C 194.435 263.378,194.290 263.542,193.641 263.493 C 193.178 263.458,192.800 263.282,192.800 263.101 C 192.800 262.920,192.485 262.913,192.100 263.086 C 191.715 263.259,175.066 263.310,155.103 263.200 C 116.249 262.986,115.904 263.001,118.449 264.835 C 118.862 265.133,119.200 265.697,119.200 266.088 C 119.200 266.727,119.639 266.983,120.500 266.847 C 120.665 266.821,120.800 267.179,120.800 267.643 C 120.800 268.214,120.986 268.414,121.380 268.263 C 121.787 268.107,121.886 268.233,121.712 268.686 C 121.547 269.116,121.620 269.235,121.932 269.042 C 122.189 268.883,122.400 268.967,122.400 269.229 C 122.400 269.726,123.906 271.200,124.413 271.200 C 124.572 271.200,124.924 271.734,125.194 272.386 C 125.464 273.038,125.891 273.533,126.143 273.486 C 126.394 273.439,126.559 273.612,126.510 273.871 C 126.460 274.130,126.955 274.579,127.610 274.868 C 128.264 275.158,128.800 275.526,128.800 275.685 C 128.800 276.141,133.591 280.800,134.059 280.800 C 134.290 280.800,134.983 281.340,135.600 282.000 C 136.217 282.660,136.937 283.200,137.200 283.200 C 137.463 283.200,138.158 283.695,138.743 284.300 C 139.329 284.905,140.043 285.449,140.330 285.509 C 140.617 285.568,141.234 285.973,141.701 286.409 C 142.169 286.844,142.787 287.200,143.075 287.200 C 143.364 287.200,143.600 287.358,143.600 287.551 C 143.600 287.745,144.140 288.127,144.800 288.400 C 145.460 288.673,146.000 289.055,146.000 289.249 C 146.000 289.442,146.197 289.600,146.437 289.600 C 146.677 289.600,147.328 289.958,147.884 290.395 C 148.439 290.832,149.053 291.091,149.247 290.971 C 149.441 290.851,149.600 290.943,149.600 291.176 C 149.600 291.409,149.960 291.600,150.400 291.600 C 150.840 291.600,151.200 291.780,151.200 292.000 C 151.200 292.220,151.560 292.400,152.000 292.400 C 152.440 292.400,152.800 292.580,152.800 292.800 C 152.800 293.020,153.160 293.200,153.600 293.200 C 154.040 293.200,154.400 293.380,154.400 293.600 C 154.400 293.820,154.760 294.000,155.200 294.000 C 155.640 294.000,156.000 294.180,156.000 294.400 C 156.000 294.620,156.360 294.800,156.800 294.800 C 157.240 294.800,157.600 294.980,157.600 295.200 C 157.600 295.420,157.949 295.600,158.376 295.600 C 158.803 295.600,159.264 295.780,159.400 296.000 C 159.536 296.220,160.097 296.400,160.647 296.400 C 161.212 296.400,161.540 296.574,161.400 296.800 C 161.256 297.033,161.663 297.200,162.376 297.200 C 163.049 297.200,163.600 297.380,163.600 297.600 C 163.600 297.820,163.949 298.000,164.376 298.000 C 164.803 298.000,165.264 298.180,165.400 298.400 C 165.536 298.620,166.087 298.800,166.624 298.800 C 167.161 298.800,167.600 298.980,167.600 299.200 C 167.600 299.420,168.320 299.600,169.200 299.600 C 170.080 299.600,170.800 299.780,170.800 300.000 C 170.800 300.220,171.329 300.400,171.976 300.400 C 172.623 300.400,173.264 300.580,173.400 300.800 C 173.536 301.020,174.267 301.200,175.024 301.200 C 175.781 301.200,176.400 301.345,176.400 301.522 C 176.400 301.699,177.149 301.888,178.064 301.942 C 178.979 301.996,180.047 302.211,180.437 302.420 C 180.828 302.629,182.049 302.800,183.150 302.800 C 184.252 302.800,185.264 302.980,185.400 303.200 C 185.538 303.423,187.404 303.600,189.624 303.600 C 191.856 303.600,193.600 303.766,193.600 303.978 C 193.600 304.200,196.244 304.357,200.000 304.357 C 203.756 304.357,206.400 304.200,206.400 303.978 C 206.400 303.766,208.144 303.600,210.376 303.600 C 212.596 303.600,214.462 303.423,214.600 303.200 C 214.736 302.980,215.748 302.800,216.850 302.800 C 217.951 302.800,219.172 302.629,219.563 302.420 C 219.953 302.211,221.021 301.996,221.936 301.942 C 222.851 301.888,223.600 301.699,223.600 301.522 C 223.600 301.345,224.219 301.200,224.976 301.200 C 225.733 301.200,226.464 301.020,226.600 300.800 C 226.736 300.580,227.377 300.400,228.024 300.400 C 228.671 300.400,229.200 300.220,229.200 300.000 C 229.200 299.780,229.920 299.600,230.800 299.600 C 231.680 299.600,232.400 299.420,232.400 299.200 C 232.400 298.980,232.839 298.800,233.376 298.800 C 233.913 298.800,234.464 298.620,234.600 298.400 C 234.736 298.180,235.197 298.000,235.624 298.000 C 236.051 298.000,236.400 297.820,236.400 297.600 C 236.400 297.380,236.951 297.200,237.624 297.200 C 238.337 297.200,238.744 297.033,238.600 296.800 C 238.460 296.574,238.788 296.400,239.353 296.400 C 239.903 296.400,240.464 296.220,240.600 296.000 C 240.736 295.780,241.197 295.600,241.624 295.600 C 242.051 295.600,242.400 295.420,242.400 295.200 C 242.400 294.980,242.760 294.800,243.200 294.800 C 243.640 294.800,244.000 294.620,244.000 294.400 C 244.000 294.180,244.360 294.000,244.800 294.000 C 245.240 294.000,245.600 293.820,245.600 293.600 C 245.600 293.380,245.960 293.200,246.400 293.200 C 246.840 293.200,247.200 293.020,247.200 292.800 C 247.200 292.580,247.560 292.400,248.000 292.400 C 248.440 292.400,248.800 292.220,248.800 292.000 C 248.800 291.780,249.160 291.600,249.600 291.600 C 250.040 291.600,250.400 291.409,250.400 291.176 C 250.400 290.943,250.559 290.851,250.753 290.971 C 250.947 291.091,251.561 290.832,252.116 290.395 C 252.672 289.958,253.240 289.600,253.379 289.600 C 253.732 289.600,256.171 287.866,256.333 287.500 C 256.407 287.335,256.688 287.200,256.958 287.200 C 257.228 287.200,257.831 286.844,258.299 286.409 C 258.766 285.973,259.383 285.568,259.670 285.509 C 259.957 285.449,260.671 284.905,261.257 284.300 C 261.842 283.695,262.537 283.200,262.800 283.200 C 263.063 283.200,263.783 282.660,264.400 282.000 C 265.017 281.340,265.710 280.800,265.941 280.800 C 266.409 280.800,271.200 276.141,271.200 275.685 C 271.200 275.526,271.736 275.158,272.390 274.868 C 273.045 274.579,273.540 274.130,273.490 273.871 C 273.441 273.612,273.606 273.439,273.857 273.486 C 274.109 273.533,274.536 273.038,274.806 272.386 C 275.076 271.734,275.428 271.200,275.587 271.200 C 276.094 271.200,277.600 269.726,277.600 269.229 C 277.600 268.967,277.811 268.883,278.068 269.042 C 278.380 269.235,278.453 269.116,278.288 268.686 C 278.114 268.233,278.213 268.107,278.620 268.263 C 279.014 268.414,279.200 268.214,279.200 267.643 C 279.200 267.179,279.335 266.821,279.500 266.847 C 280.361 266.983,280.800 266.727,280.800 266.088 C 280.800 265.697,281.138 265.133,281.551 264.835 C 284.096 263.001,283.751 262.986,244.897 263.200 C 224.934 263.310,208.285 263.259,207.900 263.086 C 207.515 262.913,207.200 262.920,207.200 263.101 C 207.200 263.282,206.822 263.458,206.359 263.493 C 205.710 263.542,205.565 263.378,205.722 262.778 C 205.834 262.349,205.762 262.100,205.563 262.223 C 205.363 262.346,205.200 262.729,205.200 263.073 C 205.200 263.581,205.089 263.606,204.604 263.204 C 204.277 262.932,204.107 262.550,204.228 262.355 C 204.349 262.160,204.269 262.000,204.051 262.000 C 203.832 262.000,203.540 262.360,203.400 262.800 C 203.194 263.449,203.001 263.522,202.373 263.186 C 201.833 262.896,201.600 262.901,201.600 263.200 C 201.600 263.504,201.368 263.504,200.800 263.200 C 200.232 262.896,199.768 262.896,199.200 263.200 C 198.632 263.504,198.400 263.504,198.400 263.200 C 198.400 262.901,198.167 262.896,197.627 263.186 C 196.999 263.522,196.806 263.449,196.600 262.800 C 196.460 262.360,196.168 262.000,195.949 262.000 C 195.731 262.000,195.651 262.160,195.772 262.355 C 195.893 262.550,195.723 262.932,195.396 263.204 C 194.911 263.606,194.800 263.581,194.800 263.073 C 194.800 262.729,194.637 262.346,194.437 262.223 C 194.238 262.100,194.166 262.349,194.278 262.778 M199.300 262.276 C 199.685 262.376,200.315 262.376,200.700 262.276 C 201.085 262.175,200.770 262.093,200.000 262.093 C 199.230 262.093,198.915 262.175,199.300 262.276 M116.800 263.000 C 116.800 263.367,116.993 263.602,117.230 263.523 C 117.466 263.445,117.660 263.209,117.660 263.000 C 117.660 262.791,117.466 262.555,117.230 262.477 C 116.993 262.398,116.800 262.633,116.800 263.000 M282.278 262.656 C 281.958 262.975,282.319 263.600,282.824 263.600 C 283.031 263.600,283.200 263.330,283.200 263.000 C 283.200 262.381,282.728 262.205,282.278 262.656 M40.397 264.800 L 40.256 267.000 40.106 265.100 L 39.956 263.200 19.935 263.200 L -0.086 263.200 0.057 281.267 C 0.168 295.261,0.313 299.371,0.700 299.500 C 1.031 299.610,1.200 300.536,1.200 302.233 C 1.200 303.678,1.375 304.800,1.600 304.800 C 1.820 304.800,2.000 305.430,2.000 306.200 C 2.000 306.970,2.180 307.600,2.400 307.600 C 2.620 307.600,2.800 308.410,2.800 309.400 C 2.800 310.390,2.980 311.200,3.200 311.200 C 3.420 311.200,3.600 311.729,3.600 312.376 C 3.600 313.023,3.780 313.664,4.000 313.800 C 4.220 313.936,4.400 314.667,4.400 315.424 C 4.400 316.181,4.580 316.800,4.800 316.800 C 5.020 316.800,5.200 317.214,5.200 317.720 C 5.200 318.226,5.379 318.819,5.598 319.038 C 5.816 319.256,6.035 319.909,6.083 320.489 C 6.130 321.068,6.312 321.455,6.485 321.348 C 6.658 321.240,6.800 321.523,6.800 321.976 C 6.800 322.429,6.980 322.800,7.200 322.800 C 7.420 322.800,7.600 323.340,7.600 324.000 C 7.600 324.660,7.760 325.200,7.955 325.200 C 8.150 325.200,8.405 325.695,8.523 326.300 C 8.934 328.413,9.039 328.724,9.552 329.342 C 9.836 329.685,9.964 330.134,9.837 330.341 C 9.709 330.547,9.871 330.818,10.196 330.943 C 10.531 331.072,10.685 331.435,10.550 331.785 C 10.421 332.123,10.514 332.400,10.757 332.400 C 11.001 332.400,11.200 332.584,11.200 332.808 C 11.200 333.032,11.650 333.929,12.200 334.800 C 12.750 335.671,13.200 336.663,13.200 337.005 C 13.200 337.346,13.469 337.728,13.798 337.854 C 14.126 337.981,14.305 338.230,14.194 338.410 C 14.083 338.589,14.256 338.999,14.577 339.320 C 14.899 339.642,15.067 340.000,14.951 340.116 C 14.835 340.232,15.113 340.446,15.570 340.590 C 16.026 340.735,16.400 341.016,16.400 341.214 C 16.400 341.413,16.085 341.468,15.700 341.338 C 15.242 341.183,15.317 341.338,15.919 341.786 C 16.424 342.163,17.099 342.371,17.419 342.248 C 17.738 342.126,18.000 342.180,18.000 342.370 C 18.000 342.559,17.730 342.818,17.400 342.945 C 16.716 343.207,16.584 344.000,17.224 344.000 C 17.457 344.000,17.524 343.801,17.374 343.557 C 17.191 343.262,17.372 343.201,17.916 343.373 C 18.384 343.522,18.859 343.428,19.028 343.154 C 19.215 342.852,19.154 342.782,18.862 342.962 C 18.608 343.119,18.400 343.057,18.400 342.824 C 18.400 342.271,68.530 342.228,69.562 342.779 C 69.952 342.988,70.662 343.057,71.140 342.932 C 71.908 342.731,71.817 342.609,70.349 341.883 C 69.436 341.431,68.609 340.755,68.511 340.379 C 68.412 340.004,67.887 339.495,67.344 339.247 C 66.800 338.999,66.453 338.638,66.573 338.443 C 66.693 338.249,66.499 338.115,66.143 338.145 C 65.786 338.175,65.447 337.905,65.389 337.543 C 65.253 336.694,62.805 334.350,62.349 334.632 C 62.025 334.832,61.829 334.241,61.963 333.470 C 61.994 333.289,61.836 333.254,61.612 333.393 C 61.387 333.532,60.995 333.188,60.741 332.630 C 60.487 332.072,59.946 331.510,59.539 331.381 C 59.133 331.252,58.800 330.888,58.800 330.573 C 58.800 330.258,58.632 330.000,58.427 330.000 C 58.222 330.000,57.928 329.603,57.774 329.119 C 57.620 328.634,57.248 327.991,56.947 327.689 C 55.947 326.689,52.800 322.106,52.800 321.649 C 52.800 321.402,52.664 321.200,52.498 321.200 C 52.331 321.200,51.941 320.615,51.630 319.900 C 51.319 319.185,50.960 318.510,50.832 318.400 C 50.360 317.994,49.600 316.392,49.600 315.805 C 49.600 315.472,49.420 315.200,49.200 315.200 C 48.980 315.200,48.800 314.840,48.800 314.400 C 48.800 313.960,48.664 313.600,48.498 313.600 C 48.331 313.600,47.956 313.015,47.664 312.300 C 46.541 309.550,46.296 308.978,45.953 308.305 C 45.759 307.923,45.600 307.248,45.600 306.805 C 45.600 306.362,45.420 306.000,45.200 306.000 C 44.980 306.000,44.800 305.460,44.800 304.800 C 44.800 304.140,44.620 303.600,44.400 303.600 C 44.180 303.600,44.000 302.880,44.000 302.000 C 44.000 301.120,43.840 300.400,43.644 300.400 C 43.288 300.400,42.965 299.002,42.535 295.600 C 42.410 294.610,42.172 293.710,42.006 293.600 C 41.570 293.311,41.125 285.788,40.812 273.400 C 40.661 267.460,40.475 263.590,40.397 264.800 M359.085 274.800 C 358.743 288.283,358.452 293.299,357.995 293.600 C 357.829 293.710,357.590 294.610,357.465 295.600 C 357.035 299.002,356.712 300.400,356.356 300.400 C 356.160 300.400,356.000 301.120,356.000 302.000 C 356.000 302.880,355.820 303.600,355.600 303.600 C 355.380 303.600,355.200 304.140,355.200 304.800 C 355.200 305.460,355.020 306.000,354.800 306.000 C 354.580 306.000,354.400 306.362,354.400 306.805 C 354.400 307.248,354.241 307.923,354.047 308.305 C 353.704 308.978,353.459 309.550,352.336 312.300 C 352.044 313.015,351.669 313.600,351.502 313.600 C 351.336 313.600,351.200 313.960,351.200 314.400 C 351.200 314.840,351.020 315.200,350.800 315.200 C 350.580 315.200,350.400 315.472,350.400 315.805 C 350.400 316.392,349.640 317.994,349.168 318.400 C 349.040 318.510,348.681 319.185,348.370 319.900 C 348.059 320.615,347.669 321.200,347.502 321.200 C 347.336 321.200,347.200 321.402,347.200 321.649 C 347.200 322.106,344.053 326.689,343.053 327.689 C 342.752 327.991,342.380 328.634,342.226 329.119 C 342.072 329.603,341.778 330.000,341.573 330.000 C 341.368 330.000,341.200 330.258,341.200 330.573 C 341.200 330.888,340.867 331.252,340.461 331.381 C 340.054 331.510,339.513 332.072,339.259 332.630 C 339.005 333.188,338.613 333.532,338.388 333.393 C 338.164 333.254,338.006 333.289,338.037 333.470 C 338.171 334.241,337.975 334.832,337.651 334.632 C 337.195 334.350,334.747 336.694,334.611 337.543 C 334.553 337.905,334.214 338.175,333.857 338.145 C 333.501 338.115,333.307 338.249,333.427 338.443 C 333.547 338.638,333.200 338.999,332.656 339.247 C 332.113 339.495,331.588 340.004,331.489 340.379 C 331.391 340.755,330.564 341.431,329.651 341.883 C 328.183 342.609,328.092 342.731,328.860 342.932 C 329.338 343.057,330.048 342.988,330.438 342.779 C 331.470 342.228,381.600 342.271,381.600 342.824 C 381.600 343.057,381.392 343.119,381.138 342.962 C 380.846 342.782,380.785 342.852,380.972 343.154 C 381.141 343.428,381.616 343.522,382.084 343.373 C 382.628 343.201,382.809 343.262,382.626 343.557 C 382.476 343.801,382.543 344.000,382.776 344.000 C 383.416 344.000,383.284 343.207,382.600 342.945 C 382.270 342.818,382.000 342.559,382.000 342.370 C 382.000 342.180,382.262 342.126,382.581 342.248 C 382.901 342.371,383.576 342.163,384.081 341.786 C 384.683 341.338,384.758 341.183,384.300 341.338 C 383.915 341.468,383.600 341.413,383.600 341.214 C 383.600 341.016,383.974 340.735,384.430 340.590 C 384.887 340.446,385.165 340.232,385.049 340.116 C 384.933 340.000,385.101 339.642,385.423 339.320 C 385.744 338.999,385.917 338.589,385.806 338.410 C 385.695 338.230,385.874 337.981,386.202 337.854 C 386.531 337.728,386.800 337.346,386.800 337.005 C 386.800 336.663,387.250 335.671,387.800 334.800 C 388.350 333.929,388.800 333.032,388.800 332.808 C 388.800 332.584,388.999 332.400,389.243 332.400 C 389.486 332.400,389.579 332.123,389.450 331.785 C 389.315 331.435,389.469 331.072,389.804 330.943 C 390.129 330.818,390.291 330.547,390.163 330.341 C 390.036 330.134,390.164 329.685,390.448 329.342 C 390.961 328.724,391.066 328.413,391.477 326.300 C 391.595 325.695,391.850 325.200,392.045 325.200 C 392.240 325.200,392.400 324.660,392.400 324.000 C 392.400 323.340,392.580 322.800,392.800 322.800 C 393.020 322.800,393.200 322.429,393.200 321.976 C 393.200 321.523,393.342 321.240,393.515 321.348 C 393.688 321.455,393.870 321.068,393.917 320.489 C 393.965 319.909,394.184 319.256,394.402 319.038 C 394.621 318.819,394.800 318.226,394.800 317.720 C 394.800 317.214,394.980 316.800,395.200 316.800 C 395.420 316.800,395.600 316.181,395.600 315.424 C 395.600 314.667,395.780 313.936,396.000 313.800 C 396.220 313.664,396.400 313.023,396.400 312.376 C 396.400 311.729,396.580 311.200,396.800 311.200 C 397.020 311.200,397.200 310.390,397.200 309.400 C 397.200 308.410,397.380 307.600,397.600 307.600 C 397.820 307.600,398.000 306.970,398.000 306.200 C 398.000 305.430,398.180 304.800,398.400 304.800 C 398.625 304.800,398.800 303.678,398.800 302.233 C 398.800 300.536,398.969 299.610,399.300 299.500 C 399.687 299.371,399.832 295.261,399.943 281.267 L 400.086 263.200 380.043 263.200 L 360.000 263.200 359.935 265.100 L 359.870 267.000 359.632 264.800 C 359.501 263.590,359.255 268.090,359.085 274.800 M71.581 343.572 C 71.900 343.779,72.305 343.858,72.481 343.750 C 72.656 343.642,72.800 343.743,72.800 343.976 C 72.800 344.209,73.016 344.400,73.280 344.400 C 74.112 344.400,72.918 343.466,71.905 343.324 C 71.218 343.228,71.140 343.288,71.581 343.572 " stroke="none" fill="#ce6349" fill-rule="evenodd"></path></g></svg>