<svg id="svg" version="1.1" xmlns="http://www.w3.org/2000/svg" xmlns:xlink="http://www.w3.org/1999/xlink" width="400" height="400" viewBox="0, 0, 400,400"><g id="svgg"><path id="path0" d="M189.545 108.988 C 189.411 109.122,187.614 109.403,185.551 109.612 C 181.632 110.010,178.311 110.514,175.100 111.196 C 174.055 111.418,172.435 111.761,171.500 111.958 C 166.374 113.037,156.589 116.238,151.600 118.468 C 147.781 120.175,139.626 124.352,139.200 124.819 C 139.090 124.940,138.190 125.508,137.200 126.081 C 124.157 133.638,110.134 149.647,105.211 162.600 C 105.044 163.040,104.712 163.850,104.474 164.400 C 103.519 166.606,101.999 172.052,101.126 176.400 C 100.425 179.885,100.426 193.342,101.127 196.800 C 102.019 201.205,102.454 202.868,103.688 206.600 C 104.892 210.238,108.695 218.487,109.282 218.733 C 109.457 218.807,109.600 219.040,109.600 219.251 C 109.600 221.421,120.447 234.239,126.600 239.341 C 130.356 242.455,130.239 242.366,133.200 244.407 C 134.630 245.393,135.890 246.299,136.000 246.419 C 136.298 246.746,142.168 250.181,144.637 251.473 C 147.011 252.715,147.346 253.177,146.833 254.505 C 146.643 254.997,146.083 256.750,145.588 258.400 C 145.094 260.050,144.379 262.390,144.000 263.600 C 143.621 264.810,142.905 267.150,142.408 268.800 C 141.911 270.450,141.367 272.160,141.198 272.600 C 141.029 273.040,140.670 274.210,140.400 275.200 C 140.130 276.190,139.770 277.360,139.600 277.800 C 139.430 278.240,139.072 279.410,138.804 280.400 C 138.536 281.390,138.155 282.613,137.958 283.119 C 137.761 283.624,137.600 284.542,137.600 285.159 C 137.600 285.776,137.400 286.853,137.157 287.553 C 135.845 291.314,138.508 292.159,143.466 289.553 C 146.319 288.054,160.326 279.044,160.800 278.403 C 160.910 278.254,162.710 276.993,164.800 275.600 C 166.890 274.207,168.690 272.955,168.800 272.818 C 168.910 272.681,171.160 271.058,173.800 269.211 C 182.986 262.783,182.058 263.277,184.252 263.650 C 196.791 265.784,217.141 264.534,231.000 260.778 C 231.880 260.539,233.050 260.253,233.600 260.142 C 234.150 260.031,234.960 259.797,235.400 259.622 C 235.840 259.448,237.460 258.912,239.000 258.432 C 240.540 257.952,242.205 257.388,242.700 257.179 C 243.540 256.825,244.242 256.541,246.500 255.641 C 251.420 253.681,264.513 246.610,266.091 245.061 C 266.371 244.786,267.500 243.952,268.600 243.207 C 269.700 242.462,270.690 241.751,270.800 241.626 C 270.910 241.502,272.170 240.413,273.600 239.207 C 281.508 232.539,288.779 223.281,293.085 214.400 C 295.850 208.695,297.447 203.842,298.873 196.800 C 299.576 193.333,299.577 179.880,298.876 176.400 C 298.025 172.176,296.509 166.705,295.579 164.500 C 295.371 164.005,295.039 163.195,294.842 162.700 C 291.011 153.057,283.078 142.215,274.400 134.761 C 269.643 130.675,262.116 125.200,261.255 125.200 C 261.042 125.200,260.807 125.065,260.733 124.900 C 260.500 124.375,252.488 120.225,247.922 118.264 C 237.961 113.986,227.432 111.204,215.000 109.568 C 211.426 109.097,189.926 108.608,189.545 108.988 M158.923 162.863 C 164.043 163.686,166.289 166.354,165.217 170.337 C 164.279 173.821,162.695 174.567,156.200 174.585 L 151.000 174.600 150.751 177.200 C 150.614 178.630,150.577 186.460,150.669 194.600 L 150.836 209.400 149.918 211.200 C 147.741 215.467,141.955 215.451,139.426 211.170 C 138.647 209.852,138.616 209.142,138.608 192.400 L 138.600 175.000 135.000 174.993 C 125.580 174.974,121.371 171.200,124.850 165.893 C 126.672 163.113,126.716 163.103,136.538 163.125 C 141.412 163.136,147.290 163.006,149.600 162.835 C 151.910 162.665,154.305 162.497,154.923 162.463 C 155.541 162.428,157.341 162.608,158.923 162.863 M245.251 164.048 C 247.395 165.551,247.806 167.178,247.739 173.900 C 247.705 177.255,247.786 180.000,247.918 180.000 C 248.050 180.000,251.768 176.422,256.179 172.049 C 264.771 163.532,265.315 163.169,268.286 163.969 C 271.038 164.710,273.256 168.117,272.628 170.640 C 272.440 171.397,269.986 174.169,265.570 178.614 C 261.846 182.362,258.800 185.666,258.800 185.957 C 258.800 186.440,260.034 188.137,268.307 199.028 C 273.041 205.260,273.600 206.199,273.600 207.911 C 273.600 211.558,271.213 213.800,267.332 213.800 C 264.425 213.800,263.949 213.453,260.467 208.800 C 259.233 207.150,258.119 205.710,257.992 205.600 C 257.865 205.490,257.329 204.770,256.800 204.000 C 256.271 203.230,255.739 202.510,255.617 202.400 C 255.496 202.290,254.093 200.450,252.500 198.312 C 248.306 192.683,248.086 192.907,247.907 203.000 C 247.758 211.441,246.699 213.547,242.242 214.271 C 237.947 214.968,235.623 211.665,235.494 204.680 C 235.250 191.484,235.694 167.379,236.198 166.410 C 237.926 163.091,242.270 161.957,245.251 164.048 M182.621 164.052 C 184.833 165.092,186.295 167.158,187.536 171.000 C 188.034 172.540,188.594 174.160,188.780 174.600 C 188.967 175.040,189.336 176.030,189.600 176.800 C 190.152 178.409,190.508 179.350,191.146 180.900 C 191.396 181.505,191.804 182.495,192.054 183.100 C 192.303 183.705,192.663 184.605,192.854 185.100 C 193.468 186.695,193.905 187.769,194.524 189.200 C 202.105 206.738,202.904 211.535,198.585 213.565 C 193.922 215.757,190.936 214.056,188.811 207.999 C 188.309 206.570,187.717 205.171,187.494 204.892 C 186.853 204.088,170.397 204.377,169.990 205.200 C 169.616 205.954,169.030 207.395,168.363 209.200 C 165.578 216.731,156.562 216.289,156.623 208.624 C 156.644 206.042,156.854 205.064,158.001 202.200 C 158.178 201.760,158.728 200.320,159.223 199.000 C 159.719 197.680,160.277 196.429,160.462 196.220 C 160.648 196.011,160.800 195.604,160.800 195.316 C 160.800 195.027,161.178 193.938,161.640 192.896 C 162.102 191.853,162.623 190.640,162.799 190.200 C 162.975 189.760,163.402 188.752,163.750 187.960 C 164.789 185.587,168.220 176.467,169.603 172.400 C 172.486 163.919,176.653 161.247,182.621 164.052 M213.340 164.018 C 216.002 165.588,216.000 165.573,216.000 184.753 L 216.000 201.985 217.035 202.245 C 217.605 202.388,219.742 202.382,221.785 202.232 C 229.886 201.637,233.600 203.388,233.600 207.800 C 233.600 212.720,230.792 213.658,216.600 213.480 C 206.508 213.354,205.971 213.217,204.543 210.400 L 203.631 208.600 203.745 187.800 C 203.826 172.857,203.990 166.755,204.326 166.131 C 205.860 163.286,210.326 162.239,213.340 164.018 M178.030 181.096 C 177.730 182.143,177.362 183.180,177.214 183.400 C 177.066 183.620,176.699 184.610,176.400 185.600 C 176.101 186.590,175.741 187.580,175.600 187.800 C 175.459 188.020,175.100 189.010,174.802 190.000 C 174.505 190.990,174.112 191.971,173.930 192.180 C 172.880 193.388,173.608 193.600,178.800 193.600 C 181.660 193.600,184.000 193.448,184.000 193.263 C 184.000 193.077,183.290 190.872,182.422 188.363 C 178.850 178.031,178.891 178.099,178.030 181.096 " stroke="none" fill="#3d2524" fill-rule="evenodd"></path><path id="path1" d="M178.300 0.275 C 176.375 0.361,174.800 0.604,174.800 0.816 C 174.800 1.027,173.461 1.200,171.824 1.200 C 170.187 1.200,168.736 1.380,168.600 1.600 C 168.464 1.820,167.478 2.000,166.410 2.000 C 165.341 2.000,164.407 2.170,164.333 2.378 C 164.260 2.586,163.255 2.798,162.100 2.849 C 160.945 2.901,160.000 3.091,160.000 3.271 C 160.000 3.452,159.201 3.600,158.224 3.600 C 157.247 3.600,156.336 3.780,156.200 4.000 C 156.064 4.220,155.243 4.400,154.376 4.400 C 153.509 4.400,152.800 4.580,152.800 4.800 C 152.800 5.020,152.080 5.200,151.200 5.200 C 150.320 5.200,149.600 5.380,149.600 5.600 C 149.600 5.820,148.981 6.000,148.224 6.000 C 147.467 6.000,146.736 6.180,146.600 6.400 C 146.464 6.620,145.924 6.800,145.400 6.800 C 144.876 6.800,144.336 6.980,144.200 7.200 C 144.064 7.420,143.333 7.600,142.576 7.600 C 141.819 7.600,141.200 7.780,141.200 8.000 C 141.200 8.220,140.771 8.400,140.246 8.400 C 139.355 8.400,136.018 9.285,134.200 10.003 C 133.760 10.177,132.770 10.536,132.000 10.800 C 130.307 11.382,128.840 11.971,127.905 12.447 C 127.523 12.641,126.848 12.800,126.405 12.800 C 125.962 12.800,125.600 12.980,125.600 13.200 C 125.600 13.420,125.240 13.600,124.800 13.600 C 124.360 13.600,124.000 13.780,124.000 14.000 C 124.000 14.220,123.561 14.400,123.024 14.400 C 122.487 14.400,121.936 14.580,121.800 14.800 C 121.664 15.020,121.203 15.200,120.776 15.200 C 120.349 15.200,120.000 15.380,120.000 15.600 C 120.000 15.820,119.640 16.000,119.200 16.000 C 118.760 16.000,118.400 16.180,118.400 16.400 C 118.400 16.620,118.128 16.800,117.795 16.800 C 117.462 16.800,116.877 16.962,116.495 17.159 C 116.113 17.357,114.180 18.300,112.200 19.255 C 110.220 20.211,108.540 21.129,108.467 21.296 C 108.393 21.463,107.988 21.600,107.567 21.600 C 107.145 21.600,106.800 21.780,106.800 22.000 C 106.800 22.220,106.440 22.400,106.000 22.400 C 105.560 22.400,105.200 22.580,105.200 22.800 C 105.200 23.020,104.880 23.200,104.488 23.200 C 104.097 23.200,103.517 23.560,103.200 24.000 C 102.883 24.440,102.372 24.800,102.066 24.800 C 101.415 24.800,97.463 26.859,97.267 27.300 C 97.193 27.465,96.956 27.600,96.739 27.600 C 96.522 27.600,95.559 28.140,94.600 28.800 C 93.641 29.460,92.703 30.000,92.516 30.000 C 92.329 30.000,91.917 30.360,91.600 30.800 C 91.283 31.240,90.743 31.600,90.400 31.600 C 90.057 31.600,89.517 31.960,89.200 32.400 C 88.883 32.840,88.343 33.200,88.000 33.200 C 87.657 33.200,87.117 33.560,86.800 34.000 C 86.483 34.440,85.991 34.800,85.708 34.800 C 85.425 34.800,84.628 35.340,83.937 36.000 C 83.246 36.660,82.478 37.200,82.229 37.200 C 81.980 37.200,81.517 37.560,81.200 38.000 C 80.883 38.440,80.375 38.800,80.072 38.800 C 79.769 38.800,79.017 39.340,78.400 40.000 C 77.783 40.660,77.147 41.200,76.986 41.200 C 76.826 41.200,76.358 41.588,75.947 42.061 C 75.536 42.535,75.200 42.803,75.200 42.658 C 75.200 42.512,74.633 42.935,73.941 43.597 C 73.248 44.258,72.514 44.800,72.309 44.800 C 72.105 44.800,71.276 45.481,70.469 46.313 C 69.661 47.145,68.370 48.267,67.600 48.806 C 66.830 49.346,64.439 51.590,62.287 53.793 C 57.582 58.611,58.611 57.582,53.793 62.287 C 51.590 64.439,49.342 66.830,48.799 67.600 C 48.255 68.370,47.043 69.770,46.105 70.711 C 45.167 71.651,44.400 72.577,44.400 72.768 C 44.400 72.959,43.905 73.671,43.300 74.349 C 41.514 76.352,41.200 76.752,41.200 77.023 C 41.200 77.164,40.660 77.783,40.000 78.400 C 39.340 79.017,38.800 79.769,38.800 80.072 C 38.800 80.375,38.440 80.883,38.000 81.200 C 37.560 81.517,37.200 81.980,37.200 82.229 C 37.200 82.478,36.660 83.246,36.000 83.937 C 35.340 84.628,34.800 85.425,34.800 85.708 C 34.800 85.991,34.440 86.483,34.000 86.800 C 33.560 87.117,33.200 87.697,33.200 88.088 C 33.200 88.480,33.050 88.800,32.868 88.800 C 32.685 88.800,32.281 89.295,31.970 89.900 C 31.660 90.505,31.089 91.291,30.703 91.647 C 30.316 92.003,30.000 92.505,30.000 92.764 C 30.000 93.022,29.669 93.589,29.264 94.023 C 28.859 94.458,28.274 95.305,27.965 95.907 C 27.655 96.508,27.290 97.090,27.153 97.200 C 26.723 97.547,24.800 101.549,24.800 102.098 C 24.800 102.387,24.440 102.883,24.000 103.200 C 23.560 103.517,23.200 104.097,23.200 104.488 C 23.200 104.880,23.020 105.200,22.800 105.200 C 22.580 105.200,22.400 105.560,22.400 106.000 C 22.400 106.440,22.220 106.800,22.000 106.800 C 21.780 106.800,21.600 107.145,21.600 107.567 C 21.600 107.988,21.465 108.393,21.300 108.467 C 20.860 108.662,19.200 111.978,19.200 112.661 C 19.200 112.984,19.020 113.136,18.800 113.000 C 18.580 112.864,18.400 113.113,18.400 113.553 C 18.400 113.993,18.220 114.464,18.000 114.600 C 17.780 114.736,17.600 115.197,17.600 115.624 C 17.600 116.051,17.420 116.400,17.200 116.400 C 16.980 116.400,16.800 116.850,16.800 117.400 C 16.800 117.950,16.620 118.400,16.400 118.400 C 16.180 118.400,16.000 118.760,16.000 119.200 C 16.000 119.640,15.820 120.000,15.600 120.000 C 15.380 120.000,15.200 120.349,15.200 120.776 C 15.200 121.203,15.020 121.664,14.800 121.800 C 14.580 121.936,14.400 122.487,14.400 123.024 C 14.400 123.561,14.220 124.000,14.000 124.000 C 13.780 124.000,13.600 124.360,13.600 124.800 C 13.600 125.240,13.420 125.600,13.200 125.600 C 12.980 125.600,12.800 125.962,12.800 126.405 C 12.800 126.848,12.641 127.523,12.447 127.905 C 12.252 128.287,11.871 129.140,11.600 129.800 C 11.329 130.460,10.948 131.313,10.753 131.695 C 10.559 132.077,10.400 132.664,10.400 133.000 C 10.400 133.336,10.237 133.923,10.037 134.305 C 9.446 135.435,8.400 139.217,8.400 140.222 C 8.400 140.734,8.220 141.264,8.000 141.400 C 7.780 141.536,7.600 142.166,7.600 142.800 C 7.600 143.434,7.420 144.064,7.200 144.200 C 6.980 144.336,6.800 144.876,6.800 145.400 C 6.800 145.924,6.620 146.464,6.400 146.600 C 6.180 146.736,6.000 147.467,6.000 148.224 C 6.000 148.981,5.820 149.600,5.600 149.600 C 5.380 149.600,5.200 150.320,5.200 151.200 C 5.200 152.080,5.020 152.800,4.800 152.800 C 4.580 152.800,4.400 153.509,4.400 154.376 C 4.400 155.243,4.220 156.064,4.000 156.200 C 3.780 156.336,3.600 157.247,3.600 158.224 C 3.600 159.201,3.420 160.000,3.200 160.000 C 2.980 160.000,2.800 160.900,2.800 162.000 C 2.800 163.100,2.620 164.000,2.400 164.000 C 2.178 164.000,2.000 165.059,2.000 166.376 C 2.000 167.683,1.820 168.864,1.600 169.000 C 1.380 169.136,1.200 170.371,1.200 171.744 C 1.200 173.207,0.993 174.447,0.700 174.740 C 0.311 175.129,0.200 180.743,0.200 200.087 C 0.200 219.608,0.307 224.969,0.700 225.100 C 1.035 225.212,1.200 226.171,1.200 228.010 C 1.200 229.518,1.380 230.864,1.600 231.000 C 1.820 231.136,2.000 232.317,2.000 233.624 C 2.000 234.941,2.178 236.000,2.400 236.000 C 2.620 236.000,2.800 236.900,2.800 238.000 C 2.800 239.100,2.980 240.000,3.200 240.000 C 3.420 240.000,3.600 240.799,3.600 241.776 C 3.600 242.753,3.780 243.664,4.000 243.800 C 4.220 243.936,4.400 244.757,4.400 245.624 C 4.400 246.491,4.580 247.200,4.800 247.200 C 5.020 247.200,5.200 247.920,5.200 248.800 C 5.200 249.680,5.380 250.400,5.600 250.400 C 5.820 250.400,6.000 251.019,6.000 251.776 C 6.000 252.533,6.180 253.264,6.400 253.400 C 6.620 253.536,6.800 254.177,6.800 254.824 C 6.800 255.471,6.980 256.000,7.200 256.000 C 7.420 256.000,7.600 256.529,7.600 257.176 C 7.600 257.823,7.780 258.464,8.000 258.600 C 8.220 258.736,8.400 259.266,8.400 259.778 C 8.400 260.649,9.292 264.000,10.003 265.800 C 10.177 266.240,10.536 267.230,10.800 268.000 C 11.382 269.693,11.971 271.160,12.447 272.095 C 12.641 272.477,12.800 273.152,12.800 273.595 C 12.800 274.038,12.980 274.400,13.200 274.400 C 13.420 274.400,13.600 274.760,13.600 275.200 C 13.600 275.640,13.780 276.000,14.000 276.000 C 14.220 276.000,14.400 276.439,14.400 276.976 C 14.400 277.513,14.580 278.064,14.800 278.200 C 15.020 278.336,15.200 278.797,15.200 279.224 C 15.200 279.651,15.380 280.000,15.600 280.000 C 15.820 280.000,16.000 280.360,16.000 280.800 C 16.000 281.240,16.180 281.600,16.400 281.600 C 16.620 281.600,16.800 281.872,16.800 282.205 C 16.800 282.538,16.962 283.123,17.159 283.505 C 17.357 283.887,18.300 285.820,19.255 287.800 C 20.211 289.780,21.129 291.460,21.296 291.533 C 21.463 291.607,21.600 292.012,21.600 292.433 C 21.600 292.855,21.780 293.200,22.000 293.200 C 22.220 293.200,22.400 293.560,22.400 294.000 C 22.400 294.440,22.580 294.800,22.800 294.800 C 23.020 294.800,23.200 295.036,23.200 295.325 C 23.200 295.613,23.560 296.236,24.000 296.708 C 24.440 297.180,24.800 297.755,24.800 297.986 C 24.800 298.543,26.917 302.563,27.300 302.733 C 27.465 302.807,27.600 303.044,27.600 303.261 C 27.600 303.478,28.140 304.441,28.800 305.400 C 29.460 306.359,30.000 307.297,30.000 307.484 C 30.000 307.671,30.360 308.083,30.800 308.400 C 31.240 308.717,31.600 309.257,31.600 309.600 C 31.600 309.943,31.960 310.483,32.400 310.800 C 32.840 311.117,33.200 311.657,33.200 312.000 C 33.200 312.343,33.560 312.883,34.000 313.200 C 34.440 313.517,34.800 314.009,34.800 314.292 C 34.800 314.575,35.340 315.372,36.000 316.063 C 36.660 316.754,37.200 317.522,37.200 317.771 C 37.200 318.020,37.560 318.483,38.000 318.800 C 38.440 319.117,38.800 319.625,38.800 319.928 C 38.800 320.231,39.296 320.956,39.901 321.540 C 40.507 322.123,41.537 323.320,42.189 324.200 C 42.842 325.080,43.696 326.149,44.088 326.575 C 44.480 327.002,44.800 327.502,44.800 327.686 C 44.800 327.870,45.565 328.819,46.500 329.794 C 49.455 332.877,50.400 333.942,50.400 334.190 C 50.400 334.322,52.065 336.049,54.100 338.028 C 58.506 342.311,57.530 341.336,62.287 346.207 C 64.439 348.410,66.830 350.658,67.600 351.201 C 68.370 351.745,69.770 352.957,70.711 353.895 C 71.651 354.833,72.583 355.600,72.782 355.600 C 72.980 355.600,73.381 355.832,73.671 356.114 C 73.962 356.397,74.920 357.162,75.800 357.813 C 76.680 358.465,77.877 359.493,78.460 360.099 C 79.044 360.704,79.769 361.200,80.072 361.200 C 80.375 361.200,80.883 361.560,81.200 362.000 C 81.517 362.440,81.980 362.800,82.229 362.800 C 82.478 362.800,83.246 363.340,83.937 364.000 C 84.628 364.660,85.425 365.200,85.708 365.200 C 85.991 365.200,86.483 365.560,86.800 366.000 C 87.117 366.440,87.657 366.800,88.000 366.800 C 88.343 366.800,88.883 367.160,89.200 367.600 C 89.517 368.040,90.057 368.400,90.400 368.400 C 90.743 368.400,91.283 368.760,91.600 369.200 C 91.917 369.640,92.414 370.000,92.705 370.000 C 92.996 370.000,93.589 370.331,94.023 370.736 C 94.458 371.141,95.305 371.726,95.907 372.035 C 96.508 372.345,97.090 372.690,97.200 372.802 C 97.627 373.237,101.533 375.200,101.971 375.200 C 102.225 375.200,102.820 375.560,103.292 376.000 C 103.764 376.440,104.387 376.800,104.675 376.800 C 104.964 376.800,105.200 376.980,105.200 377.200 C 105.200 377.420,105.560 377.600,106.000 377.600 C 106.440 377.600,106.800 377.780,106.800 378.000 C 106.800 378.220,107.160 378.400,107.600 378.400 C 108.040 378.400,108.400 378.580,108.400 378.800 C 108.400 379.020,108.760 379.200,109.200 379.200 C 109.640 379.200,110.000 379.336,110.000 379.502 C 110.000 379.669,110.585 380.055,111.300 380.361 C 112.015 380.667,113.309 381.251,114.175 381.659 C 115.041 382.066,115.986 382.400,116.275 382.400 C 116.564 382.400,116.800 382.580,116.800 382.800 C 116.800 383.020,117.160 383.200,117.600 383.200 C 118.040 383.200,118.400 383.380,118.400 383.600 C 118.400 383.820,118.665 384.000,118.988 384.000 C 119.311 384.000,120.217 384.360,121.000 384.800 C 121.783 385.240,122.779 385.600,123.212 385.600 C 123.645 385.600,124.000 385.780,124.000 386.000 C 124.000 386.220,124.360 386.400,124.800 386.400 C 125.240 386.400,125.600 386.580,125.600 386.800 C 125.600 387.020,126.140 387.200,126.800 387.200 C 127.460 387.200,128.000 387.380,128.000 387.600 C 128.000 387.820,128.349 388.000,128.776 388.000 C 129.203 388.000,129.650 388.157,129.768 388.348 C 129.886 388.540,130.541 388.808,131.224 388.945 C 131.906 389.081,133.034 389.442,133.732 389.747 C 135.704 390.608,139.191 391.600,140.246 391.600 C 140.771 391.600,141.200 391.780,141.200 392.000 C 141.200 392.220,141.830 392.400,142.600 392.400 C 143.370 392.400,144.000 392.580,144.000 392.800 C 144.000 393.020,144.529 393.200,145.176 393.200 C 145.823 393.200,146.464 393.380,146.600 393.600 C 146.736 393.820,147.467 394.000,148.224 394.000 C 148.981 394.000,149.600 394.180,149.600 394.400 C 149.600 394.620,150.309 394.800,151.176 394.800 C 152.043 394.800,152.864 394.980,153.000 395.200 C 153.136 395.420,153.856 395.600,154.600 395.600 C 155.344 395.600,156.064 395.780,156.200 396.000 C 156.336 396.220,157.247 396.400,158.224 396.400 C 159.201 396.400,160.000 396.548,160.000 396.729 C 160.000 396.909,160.945 397.099,162.100 397.151 C 163.255 397.202,164.260 397.414,164.333 397.622 C 164.407 397.830,165.431 398.000,166.610 398.000 C 167.788 398.000,168.864 398.180,169.000 398.400 C 169.136 398.620,170.482 398.800,171.990 398.800 C 173.829 398.800,174.788 398.965,174.900 399.300 C 175.144 400.032,224.856 400.032,225.100 399.300 C 225.212 398.965,226.171 398.800,228.010 398.800 C 229.518 398.800,230.864 398.620,231.000 398.400 C 231.136 398.180,232.216 398.000,233.400 398.000 C 234.584 398.000,235.664 397.820,235.800 397.600 C 235.936 397.380,236.836 397.200,237.800 397.200 C 238.764 397.200,239.664 397.020,239.800 396.800 C 239.936 396.580,240.746 396.400,241.600 396.400 C 242.454 396.400,243.264 396.220,243.400 396.000 C 243.536 395.780,244.447 395.600,245.424 395.600 C 246.401 395.600,247.200 395.420,247.200 395.200 C 247.200 394.980,247.920 394.800,248.800 394.800 C 249.680 394.800,250.400 394.620,250.400 394.400 C 250.400 394.180,251.019 394.000,251.776 394.000 C 252.533 394.000,253.264 393.820,253.400 393.600 C 253.536 393.380,254.177 393.200,254.824 393.200 C 255.471 393.200,256.000 393.020,256.000 392.800 C 256.000 392.580,256.630 392.400,257.400 392.400 C 258.170 392.400,258.800 392.220,258.800 392.000 C 258.800 391.780,259.229 391.600,259.754 391.600 C 260.645 391.600,263.982 390.715,265.800 389.997 C 266.240 389.823,267.230 389.464,268.000 389.200 C 269.693 388.618,271.160 388.029,272.095 387.553 C 272.477 387.359,273.152 387.200,273.595 387.200 C 274.038 387.200,274.400 387.020,274.400 386.800 C 274.400 386.580,274.760 386.400,275.200 386.400 C 275.640 386.400,276.000 386.220,276.000 386.000 C 276.000 385.780,276.540 385.600,277.200 385.600 C 277.860 385.600,278.400 385.420,278.400 385.200 C 278.400 384.980,278.760 384.800,279.200 384.800 C 279.640 384.800,280.000 384.620,280.000 384.400 C 280.000 384.180,280.360 384.000,280.800 384.000 C 281.240 384.000,281.600 383.820,281.600 383.600 C 281.600 383.380,281.872 383.200,282.205 383.200 C 282.793 383.200,283.218 383.033,285.095 382.062 C 285.587 381.808,286.247 381.600,286.561 381.600 C 286.876 381.600,287.193 381.465,287.267 381.300 C 287.340 381.135,288.300 380.552,289.400 380.005 C 290.500 379.458,291.490 378.918,291.600 378.805 C 292.063 378.330,293.634 377.600,294.195 377.600 C 294.528 377.600,294.800 377.420,294.800 377.200 C 294.800 376.980,295.036 376.800,295.325 376.800 C 295.613 376.800,296.236 376.440,296.708 376.000 C 297.180 375.560,297.737 375.200,297.946 375.200 C 298.486 375.200,302.573 373.069,302.733 372.704 C 302.807 372.537,303.039 372.400,303.250 372.400 C 303.698 372.400,306.139 370.738,306.333 370.300 C 306.407 370.135,306.746 370.000,307.086 370.000 C 307.427 370.000,307.997 369.684,308.353 369.297 C 308.709 368.911,309.495 368.340,310.100 368.030 C 310.705 367.719,311.200 367.315,311.200 367.132 C 311.200 366.950,311.520 366.800,311.912 366.800 C 312.303 366.800,312.883 366.440,313.200 366.000 C 313.517 365.560,314.009 365.200,314.292 365.200 C 314.575 365.200,315.372 364.660,316.063 364.000 C 316.754 363.340,317.522 362.800,317.771 362.800 C 318.020 362.800,318.483 362.440,318.800 362.000 C 319.117 361.560,319.572 361.200,319.810 361.200 C 320.049 361.200,320.892 360.615,321.685 359.900 C 323.893 357.908,324.800 357.187,324.800 357.422 C 324.800 357.540,325.258 357.178,325.818 356.618 C 326.378 356.058,327.003 355.600,327.208 355.600 C 327.412 355.600,328.349 354.833,329.289 353.895 C 330.230 352.957,331.630 351.745,332.400 351.201 C 333.170 350.658,335.561 348.410,337.713 346.207 C 342.418 341.389,341.389 342.418,346.207 337.713 C 348.410 335.561,350.658 333.170,351.201 332.400 C 351.745 331.630,352.957 330.230,353.895 329.289 C 354.833 328.349,355.600 327.412,355.600 327.208 C 355.600 327.003,356.058 326.378,356.618 325.818 C 357.178 325.258,357.511 324.800,357.357 324.800 C 357.203 324.800,357.465 324.464,357.939 324.053 C 358.412 323.642,358.800 323.183,358.800 323.031 C 358.800 322.880,359.339 322.181,359.998 321.478 C 360.657 320.775,361.197 320.015,361.198 319.788 C 361.199 319.562,361.560 319.117,362.000 318.800 C 362.440 318.483,362.800 318.020,362.800 317.771 C 362.800 317.522,363.340 316.754,364.000 316.063 C 364.660 315.372,365.200 314.575,365.200 314.292 C 365.200 314.009,365.560 313.517,366.000 313.200 C 366.440 312.883,366.800 312.343,366.800 312.000 C 366.800 311.657,367.160 311.117,367.600 310.800 C 368.040 310.483,368.400 309.969,368.400 309.659 C 368.400 309.348,368.788 308.758,369.261 308.347 C 369.735 307.936,370.004 307.600,369.858 307.600 C 369.713 307.600,370.226 306.702,370.997 305.604 C 371.769 304.506,372.400 303.426,372.400 303.204 C 372.400 302.982,372.580 302.800,372.800 302.800 C 373.020 302.800,373.200 302.440,373.200 302.000 C 373.200 301.560,373.347 301.200,373.526 301.200 C 373.874 301.200,375.200 298.642,375.200 297.970 C 375.200 297.748,375.560 297.180,376.000 296.708 C 376.440 296.236,376.800 295.613,376.800 295.325 C 376.800 295.036,376.980 294.800,377.200 294.800 C 377.420 294.800,377.600 294.440,377.600 294.000 C 377.600 293.560,377.780 293.200,378.000 293.200 C 378.220 293.200,378.400 292.855,378.400 292.433 C 378.400 292.012,378.537 291.607,378.704 291.533 C 378.871 291.460,379.789 289.780,380.745 287.800 C 381.700 285.820,382.643 283.887,382.841 283.505 C 383.038 283.123,383.200 282.538,383.200 282.205 C 383.200 281.872,383.380 281.600,383.600 281.600 C 383.820 281.600,384.000 281.240,384.000 280.800 C 384.000 280.360,384.180 280.000,384.400 280.000 C 384.620 280.000,384.800 279.651,384.800 279.224 C 384.800 278.797,384.980 278.336,385.200 278.200 C 385.420 278.064,385.600 277.513,385.600 276.976 C 385.600 276.439,385.780 276.000,386.000 276.000 C 386.220 276.000,386.400 275.640,386.400 275.200 C 386.400 274.760,386.580 274.400,386.800 274.400 C 387.020 274.400,387.200 274.038,387.200 273.595 C 387.200 273.152,387.359 272.477,387.553 272.095 C 388.029 271.160,388.618 269.693,389.200 268.000 C 389.464 267.230,389.829 266.240,390.009 265.800 C 390.190 265.360,390.470 264.460,390.631 263.800 C 390.793 263.140,391.003 262.330,391.098 262.000 C 391.194 261.670,391.365 260.815,391.480 260.100 C 391.594 259.385,391.848 258.800,392.044 258.800 C 392.240 258.800,392.400 258.170,392.400 257.400 C 392.400 256.630,392.580 256.000,392.800 256.000 C 393.020 256.000,393.200 255.471,393.200 254.824 C 393.200 254.177,393.380 253.536,393.600 253.400 C 393.820 253.264,394.000 252.544,394.000 251.800 C 394.000 251.056,394.180 250.336,394.400 250.200 C 394.620 250.064,394.800 249.333,394.800 248.576 C 394.800 247.819,394.980 247.200,395.200 247.200 C 395.420 247.200,395.600 246.491,395.600 245.624 C 395.600 244.757,395.780 243.936,396.000 243.800 C 396.220 243.664,396.400 242.753,396.400 241.776 C 396.400 240.799,396.580 240.000,396.800 240.000 C 397.020 240.000,397.200 239.111,397.200 238.024 C 397.200 236.937,397.380 235.936,397.600 235.800 C 397.820 235.664,398.000 234.584,398.000 233.400 C 398.000 232.216,398.180 231.136,398.400 231.000 C 398.620 230.864,398.800 229.518,398.800 228.010 C 398.800 226.171,398.965 225.212,399.300 225.100 C 399.693 224.969,399.800 219.591,399.800 200.000 C 399.800 180.409,399.693 175.031,399.300 174.900 C 398.965 174.788,398.800 173.829,398.800 171.990 C 398.800 170.482,398.620 169.136,398.400 169.000 C 398.180 168.864,398.000 167.784,398.000 166.600 C 398.000 165.416,397.820 164.336,397.600 164.200 C 397.380 164.064,397.200 163.063,397.200 161.976 C 397.200 160.889,397.020 160.000,396.800 160.000 C 396.580 160.000,396.400 159.201,396.400 158.224 C 396.400 157.247,396.220 156.336,396.000 156.200 C 395.780 156.064,395.600 155.243,395.600 154.376 C 395.600 153.509,395.420 152.800,395.200 152.800 C 394.980 152.800,394.800 152.181,394.800 151.424 C 394.800 150.667,394.620 149.936,394.400 149.800 C 394.180 149.664,394.000 148.944,394.000 148.200 C 394.000 147.456,393.820 146.736,393.600 146.600 C 393.380 146.464,393.200 145.823,393.200 145.176 C 393.200 144.529,393.020 144.000,392.800 144.000 C 392.580 144.000,392.400 143.471,392.400 142.824 C 392.400 142.177,392.240 141.548,392.044 141.427 C 391.849 141.306,391.595 140.621,391.480 139.904 C 391.365 139.187,391.194 138.330,391.098 138.000 C 391.003 137.670,390.793 136.860,390.631 136.200 C 390.470 135.540,390.190 134.640,390.009 134.200 C 389.829 133.760,389.464 132.770,389.200 132.000 C 388.618 130.307,388.029 128.840,387.553 127.905 C 387.359 127.523,387.200 126.848,387.200 126.405 C 387.200 125.962,387.020 125.600,386.800 125.600 C 386.580 125.600,386.400 125.240,386.400 124.800 C 386.400 124.360,386.220 124.000,386.000 124.000 C 385.780 124.000,385.600 123.561,385.600 123.024 C 385.600 122.487,385.420 121.936,385.200 121.800 C 384.980 121.664,384.800 121.203,384.800 120.776 C 384.800 120.349,384.620 120.000,384.400 120.000 C 384.180 120.000,384.000 119.640,384.000 119.200 C 384.000 118.760,383.820 118.400,383.600 118.400 C 383.380 118.400,383.200 118.040,383.200 117.600 C 383.200 117.160,383.020 116.800,382.800 116.800 C 382.580 116.800,382.401 116.485,382.403 116.100 C 382.407 115.325,379.186 108.678,378.704 108.467 C 378.537 108.393,378.400 107.988,378.400 107.567 C 378.400 107.145,378.220 106.800,378.000 106.800 C 377.780 106.800,377.600 106.440,377.600 106.000 C 377.600 105.560,377.420 105.200,377.200 105.200 C 376.980 105.200,376.800 104.964,376.800 104.675 C 376.800 104.387,376.440 103.764,376.000 103.292 C 375.560 102.820,375.200 102.225,375.200 101.971 C 375.200 101.389,373.105 97.447,372.700 97.267 C 372.535 97.193,372.400 96.956,372.400 96.739 C 372.400 96.522,371.860 95.559,371.200 94.600 C 370.540 93.641,370.000 92.703,370.000 92.516 C 370.000 92.329,369.640 91.917,369.200 91.600 C 368.760 91.283,368.400 90.743,368.400 90.400 C 368.400 90.057,368.040 89.517,367.600 89.200 C 367.160 88.883,366.800 88.343,366.800 88.000 C 366.800 87.657,366.440 87.117,366.000 86.800 C 365.560 86.483,365.200 85.943,365.200 85.600 C 365.200 85.257,364.840 84.717,364.400 84.400 C 363.960 84.083,363.600 83.620,363.600 83.371 C 363.600 83.122,363.060 82.354,362.400 81.663 C 361.740 80.972,361.200 80.208,361.200 79.964 C 361.200 79.720,360.660 79.017,360.000 78.400 C 359.340 77.783,358.800 77.147,358.800 76.986 C 358.800 76.826,358.412 76.358,357.939 75.947 C 357.465 75.536,357.197 75.200,357.342 75.200 C 357.488 75.200,357.065 74.633,356.403 73.941 C 355.742 73.248,355.200 72.514,355.200 72.309 C 355.200 72.105,354.519 71.276,353.687 70.469 C 352.855 69.661,351.733 68.370,351.194 67.600 C 350.654 66.830,348.410 64.439,346.207 62.287 C 341.389 57.582,342.418 58.611,337.713 53.793 C 335.561 51.590,333.172 49.342,332.405 48.799 C 331.638 48.255,330.135 46.953,329.065 45.905 C 327.995 44.857,326.949 44.000,326.741 44.000 C 326.534 44.000,325.930 43.595,325.401 43.100 C 323.937 41.731,323.260 41.200,322.977 41.200 C 322.836 41.200,322.217 40.660,321.600 40.000 C 320.983 39.340,320.280 38.800,320.036 38.800 C 319.792 38.800,319.028 38.260,318.337 37.600 C 317.646 36.940,316.878 36.400,316.629 36.400 C 316.380 36.400,315.917 36.040,315.600 35.600 C 315.283 35.160,314.743 34.800,314.400 34.800 C 314.057 34.800,313.517 34.440,313.200 34.000 C 312.883 33.560,312.343 33.200,312.000 33.200 C 311.657 33.200,311.117 32.840,310.800 32.400 C 310.483 31.960,309.943 31.600,309.600 31.600 C 309.257 31.600,308.717 31.240,308.400 30.800 C 308.083 30.360,307.586 30.000,307.295 30.000 C 307.004 30.000,306.411 29.669,305.977 29.264 C 305.542 28.859,304.695 28.274,304.093 27.965 C 303.492 27.655,302.910 27.310,302.800 27.198 C 302.373 26.763,298.467 24.800,298.029 24.800 C 297.775 24.800,297.180 24.440,296.708 24.000 C 296.236 23.560,295.613 23.200,295.325 23.200 C 295.036 23.200,294.800 23.020,294.800 22.800 C 294.800 22.580,294.440 22.400,294.000 22.400 C 293.560 22.400,293.200 22.220,293.200 22.000 C 293.200 21.780,292.840 21.600,292.400 21.600 C 291.960 21.600,291.599 21.465,291.599 21.300 C 291.598 21.135,290.608 20.550,289.400 20.000 C 288.192 19.450,287.202 18.865,287.201 18.700 C 287.201 18.535,286.921 18.400,286.581 18.400 C 286.240 18.400,285.216 18.040,284.306 17.600 C 283.395 17.160,282.414 16.800,282.125 16.800 C 281.836 16.800,281.600 16.620,281.600 16.400 C 281.600 16.180,281.240 16.000,280.800 16.000 C 280.360 16.000,280.000 15.820,280.000 15.600 C 280.000 15.380,279.640 15.200,279.200 15.200 C 278.760 15.200,278.400 15.020,278.400 14.800 C 278.400 14.580,277.860 14.400,277.200 14.400 C 276.540 14.400,276.000 14.220,276.000 14.000 C 276.000 13.780,275.640 13.600,275.200 13.600 C 274.760 13.600,274.400 13.420,274.400 13.200 C 274.400 12.980,274.038 12.800,273.595 12.800 C 273.152 12.800,272.477 12.641,272.095 12.447 C 271.713 12.252,270.860 11.871,270.200 11.600 C 269.540 11.329,268.687 10.948,268.305 10.753 C 267.923 10.559,267.336 10.400,267.000 10.400 C 266.664 10.400,266.077 10.237,265.695 10.037 C 264.553 9.440,260.778 8.400,259.754 8.400 C 259.229 8.400,258.800 8.220,258.800 8.000 C 258.800 7.780,258.181 7.600,257.424 7.600 C 256.667 7.600,255.936 7.420,255.800 7.200 C 255.664 6.980,255.124 6.800,254.600 6.800 C 254.076 6.800,253.536 6.620,253.400 6.400 C 253.264 6.180,252.533 6.000,251.776 6.000 C 251.019 6.000,250.400 5.820,250.400 5.600 C 250.400 5.380,249.680 5.200,248.800 5.200 C 247.920 5.200,247.200 5.020,247.200 4.800 C 247.200 4.580,246.491 4.400,245.624 4.400 C 244.757 4.400,243.936 4.220,243.800 4.000 C 243.664 3.780,242.753 3.600,241.776 3.600 C 240.799 3.600,240.000 3.420,240.000 3.200 C 240.000 2.980,239.100 2.800,238.000 2.800 C 236.900 2.800,236.000 2.620,236.000 2.400 C 236.000 2.178,234.941 2.000,233.624 2.000 C 232.317 2.000,231.136 1.820,231.000 1.600 C 230.864 1.380,229.518 1.200,228.010 1.200 C 226.193 1.200,225.211 1.034,225.103 0.708 C 224.941 0.222,187.291 -0.126,178.300 0.275 M214.400 108.830 C 215.170 109.031,216.472 109.197,217.294 109.198 C 218.116 109.199,219.556 109.373,220.494 109.584 C 221.432 109.795,223.280 110.168,224.600 110.414 C 233.430 112.055,244.686 115.783,252.607 119.690 C 258.407 122.551,268.552 128.692,269.600 129.976 C 269.710 130.110,270.610 130.843,271.600 131.604 C 298.644 152.389,307.590 186.083,293.688 214.800 C 292.889 216.450,292.133 217.890,292.008 218.000 C 291.883 218.110,291.335 219.055,290.791 220.100 C 290.247 221.145,289.666 222.000,289.501 222.000 C 289.335 222.000,289.200 222.225,289.200 222.500 C 289.199 222.775,288.794 223.479,288.300 224.064 C 287.805 224.650,286.590 226.259,285.600 227.641 C 283.618 230.408,275.525 238.741,273.000 240.613 C 272.121 241.266,271.041 242.140,270.600 242.555 C 267.599 245.386,253.652 253.454,247.300 256.034 C 246.805 256.235,245.950 256.580,245.400 256.800 C 244.850 257.020,243.995 257.372,243.500 257.583 C 242.380 258.060,236.618 259.983,235.000 260.421 C 225.606 262.958,222.553 263.545,213.262 264.596 C 206.823 265.325,194.989 265.389,187.585 264.736 L 182.170 264.258 177.585 267.410 C 175.063 269.144,172.910 270.665,172.800 270.791 C 172.690 270.916,170.890 272.173,168.800 273.585 C 166.710 274.996,164.910 276.263,164.800 276.401 C 164.486 276.793,149.925 286.630,148.276 287.564 C 147.464 288.024,146.170 288.760,145.400 289.200 C 144.630 289.640,143.338 290.375,142.529 290.833 C 139.082 292.785,136.390 291.813,136.411 288.624 C 136.424 286.538,138.594 277.814,139.998 274.200 C 140.169 273.760,140.527 272.590,140.793 271.600 C 141.060 270.610,141.440 269.487,141.639 269.105 C 141.838 268.723,142.000 268.136,142.000 267.800 C 142.000 267.464,142.162 266.877,142.361 266.495 C 142.560 266.113,142.940 264.990,143.207 264.000 C 143.473 263.010,143.830 261.840,144.000 261.400 C 144.170 260.960,144.530 259.790,144.800 258.800 C 145.070 257.810,145.446 256.640,145.635 256.200 C 146.337 254.564,146.238 253.064,145.397 252.622 C 138.954 249.236,130.711 243.959,128.800 241.995 C 128.690 241.881,127.610 240.986,126.400 240.004 C 123.682 237.798,117.273 231.377,115.738 229.323 C 115.112 228.485,114.193 227.350,113.696 226.800 C 113.198 226.250,112.691 225.485,112.569 225.100 C 112.446 224.715,112.200 224.400,112.022 224.400 C 111.843 224.400,111.473 223.860,111.200 223.200 C 110.927 222.540,110.589 222.000,110.451 222.000 C 110.312 222.000,109.753 221.145,109.209 220.100 C 108.665 219.055,108.117 218.110,107.992 218.000 C 107.642 217.693,104.956 212.069,103.979 209.600 C 98.186 194.954,98.447 176.018,104.633 162.091 C 106.533 157.814,108.510 154.106,110.047 151.938 C 110.461 151.354,110.800 150.694,110.800 150.472 C 110.800 150.249,110.945 150.007,111.123 149.933 C 111.301 149.860,112.060 148.900,112.810 147.800 C 117.496 140.926,126.422 132.539,135.575 126.407 C 143.726 120.947,155.294 115.621,164.400 113.137 C 165.170 112.927,166.430 112.571,167.200 112.347 C 167.970 112.123,169.320 111.783,170.200 111.592 C 171.080 111.400,172.610 111.051,173.600 110.815 C 178.629 109.618,184.633 108.789,191.000 108.414 C 197.230 108.046,212.433 108.317,214.400 108.830 M126.766 164.768 C 124.883 166.319,124.085 168.652,124.810 170.479 C 126.007 173.496,127.147 173.954,133.800 174.092 L 139.000 174.200 139.277 177.000 C 139.430 178.540,139.446 186.146,139.314 193.902 C 139.012 211.623,139.313 212.919,143.857 213.458 C 149.936 214.178,150.200 213.267,150.200 191.612 L 150.200 174.200 155.400 174.098 C 162.768 173.953,164.800 172.783,164.800 168.682 C 164.800 163.897,163.597 163.600,144.242 163.600 L 128.182 163.600 126.766 164.768 M176.212 164.238 C 173.668 165.169,171.200 168.025,171.200 170.038 C 171.200 170.431,171.020 170.864,170.800 171.000 C 170.580 171.136,170.400 171.599,170.400 172.029 C 170.400 172.459,170.226 173.123,170.013 173.505 C 169.800 173.887,169.364 175.010,169.044 176.000 C 168.724 176.990,167.625 179.960,166.601 182.600 C 164.827 187.175,164.510 187.948,163.079 191.200 C 162.740 191.970,162.074 193.590,161.600 194.800 C 161.126 196.010,160.503 197.540,160.216 198.200 C 159.929 198.860,159.475 200.030,159.207 200.800 C 158.939 201.570,158.582 202.560,158.415 203.000 C 156.022 209.293,156.768 212.480,160.895 213.591 C 164.379 214.529,166.349 212.953,168.216 207.731 C 169.823 203.236,168.890 203.600,178.800 203.600 C 188.243 203.600,187.871 203.510,188.773 206.000 C 191.384 213.202,192.755 214.522,196.652 213.588 C 201.519 212.420,201.813 207.671,197.583 198.504 C 197.152 197.572,196.800 196.573,196.800 196.284 C 196.800 195.996,196.647 195.589,196.460 195.380 C 196.273 195.171,195.808 194.190,195.427 193.200 C 195.046 192.210,194.461 190.770,194.126 190.000 C 193.792 189.230,193.381 188.240,193.213 187.800 C 193.045 187.360,192.703 186.505,192.454 185.900 C 192.204 185.295,191.844 184.395,191.654 183.900 C 191.463 183.405,191.103 182.505,190.854 181.900 C 189.390 178.351,188.557 176.099,187.342 172.406 C 184.866 164.883,181.399 162.339,176.212 164.238 M207.397 164.194 C 204.533 165.453,204.601 165.099,204.595 178.942 C 204.592 185.794,204.430 194.572,204.234 198.449 C 203.833 206.373,204.240 209.546,205.906 211.484 L 206.850 212.582 217.925 212.587 C 231.427 212.594,233.200 212.038,233.200 207.800 C 233.200 204.003,230.944 203.000,222.400 203.000 L 215.800 203.000 215.600 185.129 C 215.407 167.847,215.373 167.220,214.572 166.129 C 212.915 163.872,209.949 163.072,207.397 164.194 M238.759 164.514 C 236.279 166.182,235.950 167.529,236.398 174.177 C 236.653 177.951,236.653 182.678,236.400 187.691 C 235.352 208.437,236.018 212.653,240.454 213.362 C 242.690 213.720,244.194 213.251,245.661 211.738 L 246.995 210.360 247.136 202.880 C 247.282 195.124,247.654 193.600,249.401 193.600 C 249.654 193.600,252.945 197.714,256.714 202.743 C 264.338 212.916,264.638 213.200,267.739 213.200 C 269.758 213.200,270.005 213.091,271.343 211.610 C 273.940 208.736,273.742 207.362,270.022 202.400 C 263.780 194.074,258.962 187.745,258.508 187.271 C 257.471 186.192,258.154 185.254,264.900 178.499 L 271.800 171.590 271.773 169.692 C 271.728 166.532,269.683 164.400,266.698 164.400 C 264.865 164.400,263.627 165.396,256.820 172.344 C 250.316 178.981,247.656 181.390,247.264 180.997 C 247.119 180.851,247.000 177.732,247.000 174.066 C 247.000 168.448,246.889 167.197,246.293 166.107 C 244.907 163.570,241.297 162.807,238.759 164.514 M180.327 180.300 C 184.051 191.000,184.788 193.372,184.483 193.677 C 184.293 193.867,181.631 193.973,178.568 193.912 L 173.000 193.800 173.139 192.800 C 173.215 192.250,173.408 191.620,173.567 191.400 C 173.726 191.180,174.101 190.190,174.400 189.200 C 174.699 188.210,175.059 187.220,175.200 187.000 C 175.341 186.780,175.701 185.790,176.000 184.800 C 176.299 183.810,176.659 182.820,176.800 182.600 C 176.941 182.380,177.300 181.390,177.599 180.400 C 178.580 177.147,179.221 177.124,180.327 180.300 " stroke="none" fill="#fbeb3c" fill-rule="evenodd"></path><path id="path2" d="M197.900 108.295 C 199.055 108.376,200.945 108.376,202.100 108.295 C 203.255 108.214,202.310 108.148,200.000 108.148 C 197.690 108.148,196.745 108.214,197.900 108.295 M185.600 108.802 C 185.023 108.987,185.954 109.031,187.800 108.906 C 189.560 108.786,191.075 108.623,191.167 108.544 C 191.496 108.259,186.578 108.487,185.600 108.802 M208.833 108.544 C 208.925 108.623,210.440 108.786,212.200 108.906 C 214.046 109.031,214.977 108.987,214.400 108.802 C 213.422 108.487,208.504 108.259,208.833 108.544 M179.800 109.620 C 179.261 109.865,179.654 109.905,181.000 109.741 C 182.100 109.607,183.075 109.431,183.167 109.349 C 183.517 109.036,180.561 109.274,179.800 109.620 M216.833 109.349 C 216.925 109.431,217.900 109.607,219.000 109.741 C 220.346 109.905,220.739 109.865,220.200 109.620 C 219.439 109.274,216.483 109.036,216.833 109.349 M175.400 110.419 C 174.842 110.671,175.085 110.707,176.200 110.538 C 177.080 110.404,177.875 110.228,177.967 110.147 C 178.310 109.844,176.168 110.071,175.400 110.419 M222.033 110.147 C 222.125 110.228,222.920 110.404,223.800 110.538 C 224.915 110.707,225.158 110.671,224.600 110.419 C 223.832 110.071,221.690 109.844,222.033 110.147 M172.000 111.218 C 171.562 111.515,171.724 111.552,172.600 111.356 C 174.071 111.027,174.390 110.798,173.367 110.806 C 172.945 110.809,172.330 110.995,172.000 111.218 M226.433 110.944 C 226.525 111.023,227.140 111.208,227.800 111.356 C 228.676 111.552,228.838 111.515,228.400 111.218 C 227.860 110.853,226.032 110.598,226.433 110.944 M162.800 113.600 C 162.267 113.945,162.267 113.988,162.800 113.988 C 163.130 113.988,163.670 113.813,164.000 113.600 C 164.533 113.255,164.533 113.212,164.000 113.212 C 163.670 113.212,163.130 113.387,162.800 113.600 M245.400 116.711 C 245.760 117.043,248.467 118.198,250.000 118.674 C 250.508 118.832,250.506 118.799,249.985 118.458 C 249.068 117.858,244.936 116.284,245.400 116.711 M151.700 117.612 C 150.361 118.151,150.611 118.424,152.000 117.940 C 152.660 117.710,153.200 117.449,153.200 117.361 C 153.200 117.124,152.713 117.205,151.700 117.612 M148.800 119.000 C 148.250 119.314,147.980 119.572,148.200 119.572 C 148.420 119.572,149.050 119.314,149.600 119.000 C 150.150 118.686,150.420 118.428,150.200 118.428 C 149.980 118.428,149.350 118.686,148.800 119.000 M252.400 119.767 C 252.400 119.844,253.525 120.481,254.900 121.182 C 256.275 121.883,257.220 122.281,257.000 122.066 C 256.232 121.316,252.400 119.401,252.400 119.767 M144.600 121.027 C 143.940 121.370,143.220 121.835,143.000 122.061 C 142.780 122.287,143.365 122.077,144.300 121.595 C 145.235 121.113,146.000 120.647,146.000 120.560 C 146.000 120.320,145.900 120.353,144.600 121.027 M138.881 124.172 C 136.921 125.558,136.785 125.865,138.600 124.805 C 140.478 123.710,141.125 123.191,140.580 123.220 C 140.371 123.230,139.607 123.659,138.881 124.172 M259.400 123.490 C 259.620 123.700,260.520 124.276,261.400 124.770 C 262.280 125.265,262.640 125.370,262.200 125.004 C 261.306 124.261,258.772 122.891,259.400 123.490 M128.000 132.034 L 126.200 133.665 128.100 132.184 C 129.766 130.886,130.259 130.397,129.900 130.401 C 129.845 130.402,128.990 131.136,128.000 132.034 M270.000 130.539 C 270.000 130.630,270.810 131.367,271.800 132.179 C 272.790 132.990,273.593 133.507,273.584 133.327 C 273.569 133.001,270.000 130.226,270.000 130.539 M122.848 136.422 C 121.224 137.965,119.974 139.307,120.069 139.403 C 120.165 139.498,121.579 138.232,123.212 136.588 C 126.955 132.820,126.740 132.721,122.848 136.422 M278.594 138.306 C 281.230 140.998,283.472 143.200,283.575 143.200 C 283.927 143.200,278.557 137.707,275.565 135.006 C 274.594 134.130,275.957 135.615,278.594 138.306 M117.822 141.575 L 116.244 143.400 118.003 141.714 C 118.970 140.786,119.680 139.965,119.580 139.888 C 119.481 139.812,118.690 140.571,117.822 141.575 M115.359 144.500 C 113.607 146.521,113.087 147.200,113.290 147.200 C 113.407 147.200,114.167 146.390,114.979 145.400 C 116.481 143.566,116.779 142.863,115.359 144.500 M284.955 145.319 C 285.803 146.353,286.580 147.200,286.682 147.200 C 286.955 147.200,284.421 144.060,283.877 143.724 C 283.622 143.566,284.107 144.284,284.955 145.319 M291.960 155.800 C 292.634 157.105,293.188 157.828,293.185 157.400 C 293.183 157.180,292.814 156.550,292.364 156.000 C 291.821 155.336,291.685 155.269,291.960 155.800 M293.807 159.479 C 294.407 160.914,294.800 161.562,294.800 161.116 C 294.800 160.684,293.585 158.000,293.389 158.000 C 293.279 158.000,293.467 158.666,293.807 159.479 M104.196 163.072 C 103.858 163.881,103.633 164.700,103.697 164.891 C 103.761 165.082,104.116 164.420,104.487 163.419 C 105.293 161.245,105.070 160.979,104.196 163.072 M295.513 163.419 C 295.884 164.420,296.239 165.082,296.303 164.891 C 296.431 164.506,295.293 161.600,295.014 161.600 C 294.917 161.600,295.142 162.419,295.513 163.419 M130.515 163.496 C 131.788 163.576,133.768 163.575,134.915 163.494 C 136.062 163.414,135.020 163.349,132.600 163.350 C 130.180 163.351,129.242 163.416,130.515 163.496 M144.100 163.499 C 147.125 163.567,152.075 163.567,155.100 163.499 C 158.125 163.431,155.650 163.375,149.600 163.375 C 143.550 163.375,141.075 163.431,144.100 163.499 M239.000 163.937 C 238.340 164.340,237.535 165.015,237.212 165.435 C 236.726 166.068,236.795 166.053,237.612 165.350 C 239.897 163.384,242.472 163.037,244.700 164.396 C 245.415 164.832,246.000 165.098,246.000 164.988 C 246.000 163.521,240.926 162.759,239.000 163.937 M126.487 164.700 C 125.530 165.635,125.514 165.681,126.381 165.006 C 128.088 163.676,128.169 163.600,127.886 163.600 C 127.736 163.600,127.106 164.095,126.487 164.700 M161.780 164.157 C 162.429 164.458,163.373 165.222,163.878 165.853 C 164.383 166.484,164.797 166.809,164.798 166.575 C 164.801 165.904,162.702 164.114,161.600 163.849 C 160.759 163.646,160.787 163.695,161.780 164.157 M175.700 164.012 C 174.315 164.569,174.634 164.814,176.100 164.320 C 176.815 164.079,177.475 163.818,177.567 163.741 C 177.892 163.466,176.586 163.656,175.700 164.012 M180.000 163.684 C 180.110 163.793,180.826 164.093,181.591 164.351 C 182.356 164.610,182.806 164.650,182.591 164.439 C 182.376 164.229,181.660 163.929,181.000 163.772 C 180.340 163.616,179.890 163.576,180.000 163.684 M207.000 163.978 C 206.560 164.158,205.840 164.732,205.400 165.253 L 204.600 166.200 205.536 165.405 C 206.051 164.968,206.951 164.398,207.536 164.138 C 208.727 163.608,208.250 163.466,207.000 163.978 M212.433 164.100 C 212.525 164.155,213.140 164.650,213.800 165.200 L 215.000 166.200 214.030 165.100 C 213.497 164.495,212.882 164.000,212.664 164.000 C 212.445 164.000,212.342 164.045,212.433 164.100 M263.760 165.154 C 261.936 166.504,257.674 170.800,258.159 170.800 C 258.342 170.800,259.146 170.051,259.946 169.135 C 265.552 162.715,271.676 162.990,271.773 169.668 C 271.791 170.909,271.914 171.337,272.138 170.937 C 274.386 166.928,267.648 162.277,263.760 165.154 M172.975 166.100 L 171.800 167.400 173.100 166.225 C 174.312 165.130,174.584 164.800,174.275 164.800 C 174.206 164.800,173.621 165.385,172.975 166.100 M184.300 166.019 C 185.015 166.800,185.600 167.644,185.600 167.895 C 185.600 168.147,185.763 168.454,185.963 168.577 C 186.916 169.166,185.758 167.131,184.465 165.945 L 183.000 164.600 184.300 166.019 M102.225 168.825 C 101.847 170.171,101.613 171.346,101.703 171.437 C 101.794 171.527,102.175 170.498,102.550 169.150 C 102.925 167.802,103.160 166.626,103.072 166.538 C 102.984 166.450,102.603 167.479,102.225 168.825 M204.351 166.900 C 204.324 167.175,204.279 173.880,204.251 181.800 C 204.220 190.497,204.316 194.774,204.493 192.600 C 204.654 190.620,204.744 183.915,204.693 177.701 C 204.611 167.755,204.527 165.098,204.351 166.900 M247.000 174.194 C 247.000 181.773,246.986 181.739,249.264 179.739 C 252.237 177.130,257.998 171.465,257.840 171.306 C 257.757 171.223,255.554 173.236,252.945 175.778 C 250.336 178.320,248.021 180.339,247.801 180.263 C 247.551 180.178,247.451 178.109,247.536 174.763 C 247.611 171.813,247.521 169.008,247.336 168.529 C 247.133 168.002,247.000 170.240,247.000 174.194 M297.454 169.000 C 297.874 170.903,298.448 172.046,298.156 170.400 C 298.020 169.630,297.746 168.730,297.549 168.400 C 297.314 168.008,297.281 168.216,297.454 169.000 M236.129 181.600 C 236.127 191.980,236.144 192.243,236.438 186.270 C 236.609 182.788,236.610 177.838,236.440 175.270 C 236.188 171.471,236.130 172.651,236.129 181.600 M264.642 178.758 C 258.565 184.843,257.918 185.620,258.154 186.558 C 258.298 187.131,258.628 187.600,258.888 187.600 C 259.247 187.600,259.245 187.485,258.880 187.120 C 257.899 186.139,258.549 185.259,265.096 178.704 C 268.778 175.017,271.701 172.000,271.591 172.000 C 271.481 172.000,268.354 175.041,264.642 178.758 M162.493 172.980 C 161.326 173.624,160.956 174.000,161.489 174.000 C 161.721 174.000,162.336 173.646,162.856 173.213 C 163.926 172.322,163.814 172.250,162.493 172.980 M133.584 174.293 C 136.909 174.382,138.684 174.588,138.915 174.913 C 139.163 175.263,139.215 175.231,139.098 174.800 C 138.964 174.307,138.010 174.196,133.767 174.180 L 128.600 174.160 133.584 174.293 M150.267 174.267 C 150.120 174.413,150.026 175.268,150.057 176.167 L 150.114 177.800 150.357 176.200 L 150.600 174.600 155.600 174.381 L 160.600 174.162 155.567 174.081 C 152.798 174.036,150.413 174.120,150.267 174.267 M188.045 174.400 C 188.053 174.730,188.406 175.720,188.829 176.600 C 189.252 177.480,189.486 177.762,189.349 177.226 C 188.973 175.761,188.029 173.714,188.045 174.400 M100.215 178.215 C 100.061 179.454,100.017 180.550,100.119 180.652 C 100.220 180.754,100.430 179.823,100.585 178.585 C 100.739 177.346,100.783 176.250,100.681 176.148 C 100.580 176.046,100.370 176.977,100.215 178.215 M299.269 176.800 C 299.256 177.350,299.395 178.520,299.577 179.400 C 299.789 180.426,299.916 180.641,299.931 180.000 C 299.944 179.450,299.805 178.280,299.623 177.400 C 299.411 176.374,299.284 176.159,299.269 176.800 M178.267 178.267 C 177.724 178.810,178.021 179.280,178.603 178.798 C 179.111 178.376,179.275 178.497,179.649 179.569 C 179.893 180.269,180.162 180.771,180.248 180.685 C 180.334 180.600,180.205 179.961,179.963 179.265 C 179.547 178.071,178.864 177.669,178.267 178.267 M139.360 184.600 C 139.361 187.900,139.422 189.197,139.498 187.482 C 139.573 185.767,139.572 183.067,139.497 181.482 C 139.421 179.897,139.359 181.300,139.360 184.600 M180.445 181.600 C 180.453 181.930,180.806 182.920,181.229 183.800 C 181.652 184.680,181.886 184.962,181.749 184.426 C 181.373 182.961,180.429 180.914,180.445 181.600 M165.691 183.880 C 165.470 184.496,164.897 185.990,164.416 187.200 C 163.936 188.410,163.709 189.220,163.912 189.000 C 164.420 188.449,166.476 183.143,166.264 182.931 C 166.170 182.836,165.912 183.263,165.691 183.880 M99.740 186.400 C 99.740 188.270,99.809 189.035,99.893 188.100 C 99.977 187.165,99.977 185.635,99.893 184.700 C 99.809 183.765,99.740 184.530,99.740 186.400 M300.142 186.600 C 300.141 188.580,300.208 189.440,300.292 188.512 C 300.376 187.584,300.377 185.964,300.295 184.912 C 300.212 183.860,300.143 184.620,300.142 186.600 M259.940 189.116 C 260.433 189.809,261.044 190.504,261.297 190.660 C 261.550 190.817,261.354 190.377,260.860 189.684 C 260.367 188.991,259.756 188.296,259.503 188.140 C 259.250 187.983,259.446 188.423,259.940 189.116 M262.575 192.532 C 263.191 193.339,263.776 194.000,263.875 194.000 C 264.153 194.000,262.421 191.660,261.909 191.344 C 261.659 191.189,261.959 191.724,262.575 192.532 M100.076 193.200 C 100.067 193.750,100.203 195.010,100.380 196.000 C 100.620 197.350,100.707 197.500,100.727 196.600 C 100.742 195.940,100.605 194.680,100.423 193.800 C 100.216 192.798,100.086 192.574,100.076 193.200 M150.142 195.800 C 150.141 197.780,150.208 198.640,150.292 197.712 C 150.376 196.784,150.377 195.164,150.295 194.112 C 150.212 193.060,150.143 193.820,150.142 195.800 M299.400 194.800 C 299.244 196.147,299.201 197.334,299.305 197.438 C 299.409 197.542,299.619 196.522,299.771 195.171 C 299.924 193.821,299.967 192.634,299.867 192.533 C 299.766 192.433,299.556 193.453,299.400 194.800 M248.105 194.500 C 247.334 195.331,247.260 195.956,247.135 202.687 C 247.061 206.695,247.122 209.665,247.272 209.287 C 247.421 208.909,247.556 205.589,247.572 201.909 C 247.600 195.251,247.605 195.215,248.587 194.572 C 249.534 193.951,249.617 193.971,250.624 195.063 L 251.673 196.200 250.809 194.900 C 249.790 193.365,249.233 193.283,248.105 194.500 M264.975 195.732 C 265.591 196.539,266.176 197.200,266.275 197.200 C 266.553 197.200,264.821 194.860,264.309 194.544 C 264.059 194.389,264.359 194.924,264.975 195.732 M252.340 197.516 C 252.833 198.209,253.444 198.904,253.697 199.060 C 253.950 199.217,253.754 198.777,253.260 198.084 C 252.767 197.391,252.156 196.696,251.903 196.540 C 251.650 196.383,251.846 196.823,252.340 197.516 M268.986 201.034 C 271.790 204.704,272.797 205.892,272.177 204.800 C 271.574 203.739,267.104 197.988,266.676 197.723 C 266.448 197.583,267.488 199.072,268.986 201.034 M138.954 202.800 C 138.954 205.550,139.018 206.675,139.096 205.300 C 139.174 203.925,139.174 201.675,139.096 200.300 C 139.018 198.925,138.954 200.050,138.954 202.800 M298.600 199.600 C 298.448 200.291,298.407 200.941,298.509 201.042 C 298.611 201.144,298.809 200.653,298.950 199.950 C 299.283 198.283,298.960 197.960,298.600 199.600 M150.478 202.800 C 150.430 204.670,150.306 206.920,150.202 207.800 L 150.012 209.400 150.420 207.802 C 150.645 206.923,150.769 204.673,150.696 202.802 L 150.565 199.400 150.478 202.800 M254.740 200.716 C 255.233 201.409,255.844 202.104,256.097 202.260 C 256.350 202.417,256.154 201.977,255.660 201.284 C 255.167 200.591,254.556 199.896,254.303 199.740 C 254.050 199.583,254.246 200.023,254.740 200.716 M101.844 203.000 C 102.173 204.471,102.402 204.790,102.394 203.767 C 102.391 203.345,102.205 202.730,101.982 202.400 C 101.685 201.962,101.648 202.124,101.844 203.000 M235.701 203.400 C 235.705 204.280,235.787 204.593,235.883 204.095 C 235.979 203.598,235.975 202.878,235.875 202.495 C 235.775 202.113,235.696 202.520,235.701 203.400 M297.849 202.615 C 297.712 202.973,297.615 203.566,297.634 203.933 C 297.653 204.300,297.827 204.069,298.021 203.420 C 298.398 202.158,298.265 201.533,297.849 202.615 M215.856 202.889 C 215.954 203.049,218.981 203.139,222.583 203.089 C 226.185 203.040,229.042 202.910,228.932 202.800 C 228.613 202.481,215.658 202.569,215.856 202.889 M257.375 204.132 C 257.991 204.939,258.576 205.600,258.675 205.600 C 258.953 205.600,257.221 203.260,256.709 202.944 C 256.459 202.789,256.759 203.324,257.375 204.132 M169.698 204.100 C 169.478 204.375,169.188 205.050,169.053 205.600 C 168.879 206.309,168.982 206.222,169.405 205.300 L 170.002 204.000 178.781 204.000 C 186.720 204.000,187.599 204.067,187.968 204.700 C 188.192 205.085,188.381 205.211,188.388 204.980 C 188.423 203.752,187.363 203.600,178.769 203.600 C 172.312 203.600,169.996 203.728,169.698 204.100 M232.404 205.300 C 232.840 206.015,233.197 207.140,233.197 207.800 C 233.197 208.460,232.840 209.585,232.404 210.300 C 231.968 211.015,231.702 211.600,231.812 211.600 C 232.317 211.600,233.597 208.875,233.597 207.800 C 233.597 206.725,232.317 204.000,231.812 204.000 C 231.702 204.000,231.968 204.585,232.404 205.300 M102.578 205.600 C 103.069 207.368,105.310 212.987,105.690 213.400 C 105.892 213.620,105.662 212.810,105.179 211.600 C 104.696 210.390,103.946 208.410,103.514 207.200 C 102.687 204.889,102.104 203.893,102.578 205.600 M200.262 206.200 C 200.396 207.080,200.572 207.875,200.653 207.967 C 200.956 208.310,200.729 206.168,200.381 205.400 C 200.129 204.842,200.093 205.085,200.262 206.200 M296.510 207.100 C 296.068 208.365,295.309 210.390,294.824 211.600 C 294.340 212.810,294.108 213.620,294.310 213.400 C 294.674 213.004,296.908 207.435,297.399 205.700 C 297.912 203.888,297.291 204.866,296.510 207.100 M259.775 207.332 C 260.391 208.139,260.976 208.800,261.075 208.800 C 261.353 208.800,259.621 206.460,259.109 206.144 C 258.859 205.989,259.159 206.524,259.775 207.332 M156.924 209.000 C 156.926 210.320,157.001 210.812,157.090 210.093 C 157.179 209.374,157.177 208.294,157.086 207.693 C 156.995 207.092,156.922 207.680,156.924 209.000 M167.913 208.581 C 167.542 209.581,167.317 210.400,167.414 210.400 C 167.693 210.400,168.831 207.494,168.703 207.109 C 168.639 206.918,168.284 207.580,167.913 208.581 M204.034 207.800 C 204.022 208.240,204.187 208.870,204.400 209.200 C 204.914 209.995,204.914 208.996,204.400 207.800 L 204.056 207.000 204.034 207.800 M236.012 208.800 C 236.012 209.130,236.187 209.670,236.400 210.000 C 236.745 210.533,236.788 210.533,236.788 210.000 C 236.788 209.670,236.613 209.130,236.400 208.800 C 236.055 208.267,236.012 208.267,236.012 208.800 M262.397 210.707 C 263.102 211.646,264.065 212.607,264.539 212.842 C 265.214 213.179,265.169 213.069,264.331 212.336 C 263.743 211.821,262.779 210.860,262.189 210.200 C 261.455 209.378,261.521 209.538,262.397 210.707 M272.800 209.532 C 272.800 209.788,272.125 210.747,271.300 211.662 C 270.475 212.578,270.172 213.095,270.627 212.813 C 271.662 212.169,273.404 209.670,273.058 209.324 C 272.916 209.183,272.800 209.276,272.800 209.532 M149.265 211.017 C 148.595 212.488,148.723 212.802,149.447 211.465 C 149.786 210.840,149.988 210.254,149.896 210.163 C 149.805 210.071,149.521 210.456,149.265 211.017 M200.432 210.774 C 200.414 211.090,200.000 211.810,199.511 212.374 L 198.623 213.400 199.759 212.343 C 200.384 211.762,200.798 211.042,200.679 210.743 C 200.505 210.305,200.457 210.311,200.432 210.774 M166.473 211.631 C 166.201 212.068,165.397 212.779,164.689 213.211 C 163.980 213.643,163.628 213.998,163.906 213.999 C 164.529 214.000,167.480 211.346,167.184 211.050 C 167.066 210.933,166.746 211.194,166.473 211.631 M245.375 212.100 L 244.200 213.400 245.500 212.225 C 246.215 211.579,246.800 210.994,246.800 210.925 C 246.800 210.616,246.470 210.888,245.375 212.100 M192.087 212.900 C 192.706 213.505,193.435 213.995,193.706 213.988 C 193.978 213.981,193.840 213.777,193.400 213.533 C 192.960 213.290,192.231 212.800,191.781 212.445 C 191.330 212.090,191.468 212.295,192.087 212.900 M207.455 212.788 C 207.770 213.104,226.048 213.184,227.520 212.876 C 228.246 212.724,223.983 212.597,218.047 212.594 C 212.111 212.591,207.345 212.678,207.455 212.788 M142.693 213.664 C 143.644 214.040,146.089 214.059,146.660 213.694 C 146.913 213.532,145.965 213.396,144.553 213.392 C 143.141 213.388,142.304 213.510,142.693 213.664 M239.800 213.624 C 240.828 214.035,242.471 214.071,243.059 213.694 C 243.312 213.532,242.502 213.378,241.259 213.352 C 239.770 213.320,239.273 213.413,239.800 213.624 M266.266 213.600 C 266.749 213.795,267.634 213.799,268.266 213.609 C 269.246 213.315,269.128 213.268,267.400 213.260 C 265.872 213.253,265.604 213.333,266.266 213.600 M109.673 221.000 C 109.923 221.550,110.284 222.000,110.473 222.000 C 110.663 222.000,110.524 221.550,110.163 221.000 C 109.803 220.450,109.443 220.000,109.363 220.000 C 109.283 220.000,109.422 220.450,109.673 221.000 M289.837 221.000 C 289.476 221.550,289.337 222.000,289.527 222.000 C 289.716 222.000,290.077 221.550,290.327 221.000 C 290.578 220.450,290.717 220.000,290.637 220.000 C 290.557 220.000,290.197 220.450,289.837 221.000 M111.273 223.400 C 111.523 223.950,111.884 224.400,112.073 224.400 C 112.263 224.400,112.124 223.950,111.763 223.400 C 111.403 222.850,111.043 222.400,110.963 222.400 C 110.883 222.400,111.022 222.850,111.273 223.400 M288.245 223.388 C 287.880 223.944,287.722 224.400,287.895 224.400 C 288.284 224.400,289.319 222.786,289.082 222.549 C 288.986 222.453,288.610 222.831,288.245 223.388 M112.749 225.400 C 113.410 226.609,114.371 227.763,114.557 227.571 C 114.648 227.477,114.180 226.770,113.517 226.000 C 112.854 225.230,112.509 224.960,112.749 225.400 M284.768 228.300 C 282.630 230.695,281.821 231.717,282.264 231.463 C 282.519 231.317,283.481 230.298,284.401 229.199 C 286.168 227.088,286.437 226.430,284.768 228.300 M115.522 229.000 C 115.988 229.660,117.476 231.370,118.829 232.800 L 121.290 235.400 118.572 232.200 C 115.306 228.354,114.384 227.387,115.522 229.000 M279.217 234.585 L 277.033 237.000 279.398 234.714 C 280.698 233.457,281.681 232.371,281.581 232.300 C 281.482 232.229,280.417 233.257,279.217 234.585 M124.022 237.900 C 124.034 238.065,124.619 238.638,125.322 239.174 L 126.600 240.149 125.425 238.874 C 124.203 237.549,123.985 237.397,124.022 237.900 M273.600 239.686 C 272.390 240.788,271.777 241.445,272.239 241.145 C 273.464 240.349,276.108 237.973,275.942 237.816 C 275.864 237.743,274.810 238.584,273.600 239.686 M270.224 242.361 C 270.102 242.559,268.066 244.026,265.701 245.620 C 261.719 248.304,259.708 249.808,261.200 248.987 C 264.280 247.292,271.592 242.000,270.854 242.000 C 270.630 242.000,270.347 242.162,270.224 242.361 M131.019 243.630 C 131.151 243.844,132.821 245.063,134.729 246.338 C 138.559 248.897,139.626 249.542,139.000 248.920 C 138.286 248.210,130.771 243.230,131.019 243.630 M140.000 249.620 C 141.387 250.561,142.178 250.835,141.200 250.036 C 140.650 249.586,140.020 249.217,139.800 249.215 C 139.580 249.213,139.670 249.396,140.000 249.620 M259.100 249.829 C 257.605 250.640,257.696 250.978,259.200 250.200 C 259.860 249.859,260.400 249.494,260.400 249.390 C 260.400 249.132,260.357 249.147,259.100 249.829 M256.000 251.600 C 255.230 252.022,254.744 252.374,254.920 252.383 C 255.344 252.405,257.600 251.232,257.600 250.990 C 257.600 250.728,257.577 250.737,256.000 251.600 M145.929 252.849 C 146.196 253.206,146.307 253.836,146.177 254.249 C 145.947 254.977,145.954 254.977,146.413 254.258 C 146.799 253.653,146.753 253.394,146.165 252.858 C 145.519 252.268,145.494 252.267,145.929 252.849 M235.200 260.000 C 234.376 260.264,234.341 260.326,235.000 260.354 C 235.440 260.373,236.070 260.213,236.400 260.000 C 237.101 259.547,236.614 259.547,235.200 260.000 M232.400 260.800 C 231.576 261.064,231.541 261.126,232.200 261.154 C 232.640 261.173,233.270 261.013,233.600 260.800 C 234.301 260.347,233.814 260.347,232.400 260.800 M229.200 261.600 C 228.396 261.857,228.357 261.923,229.000 261.932 C 229.440 261.938,230.160 261.789,230.600 261.600 C 231.619 261.162,230.568 261.162,229.200 261.600 M225.600 262.400 C 224.233 262.688,224.228 262.695,225.400 262.719 C 226.060 262.733,226.960 262.589,227.400 262.400 C 228.362 261.987,227.564 261.987,225.600 262.400 M221.400 263.200 L 219.800 263.486 221.200 263.515 C 221.970 263.531,222.960 263.389,223.400 263.200 C 224.343 262.795,223.662 262.795,221.400 263.200 M179.006 266.030 C 177.469 267.129,176.029 268.231,175.806 268.479 C 175.582 268.727,176.902 267.886,178.738 266.610 L 182.076 264.291 185.738 264.506 C 188.280 264.656,188.849 264.620,187.600 264.390 C 183.369 263.612,182.028 263.868,179.006 266.030 M214.505 264.287 C 215.114 264.379,216.014 264.377,216.505 264.282 C 216.997 264.187,216.500 264.111,215.400 264.114 C 214.300 264.117,213.897 264.195,214.505 264.287 M211.300 264.676 C 211.685 264.776,212.315 264.776,212.700 264.676 C 213.085 264.575,212.770 264.493,212.000 264.493 C 211.230 264.493,210.915 264.575,211.300 264.676 M195.100 265.099 C 197.795 265.168,202.205 265.168,204.900 265.099 C 207.595 265.030,205.390 264.973,200.000 264.973 C 194.610 264.973,192.405 265.030,195.100 265.099 M141.467 269.067 C 141.320 269.213,141.211 269.708,141.225 270.167 C 141.249 270.933,141.282 270.923,141.634 270.042 C 142.026 269.063,141.944 268.589,141.467 269.067 M170.997 271.651 C 168.587 273.448,168.331 273.910,170.600 272.370 C 171.700 271.623,172.675 270.965,172.767 270.906 C 172.858 270.848,172.857 270.724,172.764 270.631 C 172.671 270.537,171.876 270.997,170.997 271.651 M138.651 278.360 C 138.293 279.455,138.011 280.586,138.025 280.875 C 138.039 281.164,138.400 280.336,138.827 279.035 C 139.254 277.734,139.536 276.603,139.453 276.520 C 139.370 276.437,139.009 277.265,138.651 278.360 M160.200 279.158 C 158.000 280.671,155.750 282.294,155.200 282.764 C 154.650 283.233,156.540 282.054,159.400 280.143 C 165.423 276.119,165.036 276.399,164.567 276.404 C 164.365 276.406,162.400 277.646,160.200 279.158 M149.100 286.629 C 148.495 286.957,148.000 287.310,148.000 287.413 C 148.000 287.799,148.632 287.557,149.600 286.800 C 150.789 285.870,150.611 285.809,149.100 286.629 M136.520 288.400 C 136.520 289.610,136.595 290.105,136.687 289.500 C 136.778 288.895,136.778 287.905,136.687 287.300 C 136.595 286.695,136.520 287.190,136.520 288.400 " stroke="none" fill="#b09b33" fill-rule="evenodd"></path><path id="path3" d="M154.705 163.083 C 155.202 163.179,155.922 163.175,156.305 163.075 C 156.687 162.975,156.280 162.896,155.400 162.901 C 154.520 162.905,154.207 162.987,154.705 163.083 M164.893 168.800 C 164.893 169.570,164.975 169.885,165.076 169.500 C 165.176 169.115,165.176 168.485,165.076 168.100 C 164.975 167.715,164.893 168.030,164.893 168.800 M204.109 176.000 C 204.109 176.990,204.187 177.395,204.282 176.900 C 204.378 176.405,204.378 175.595,204.282 175.100 C 204.187 174.605,204.109 175.010,204.109 176.000 M204.131 186.600 C 204.133 188.140,204.205 188.721,204.292 187.891 C 204.379 187.061,204.377 185.801,204.289 185.091 C 204.200 184.381,204.129 185.060,204.131 186.600 M150.109 190.800 C 150.109 191.790,150.187 192.195,150.282 191.700 C 150.378 191.205,150.378 190.395,150.282 189.900 C 150.187 189.405,150.109 189.810,150.109 190.800 M176.517 193.897 C 178.011 193.974,180.351 193.974,181.717 193.896 C 183.082 193.818,181.860 193.755,179.000 193.755 C 176.140 193.756,175.022 193.820,176.517 193.897 M138.901 196.600 C 138.905 197.480,138.987 197.793,139.083 197.295 C 139.179 196.798,139.175 196.078,139.075 195.695 C 138.975 195.313,138.896 195.720,138.901 196.600 M150.493 198.400 C 150.493 199.170,150.575 199.485,150.676 199.100 C 150.776 198.715,150.776 198.085,150.676 197.700 C 150.575 197.315,150.493 197.630,150.493 198.400 M235.714 200.200 C 235.717 201.300,235.795 201.703,235.887 201.095 C 235.979 200.486,235.977 199.586,235.882 199.095 C 235.787 198.603,235.711 199.100,235.714 200.200 M213.891 213.089 C 214.601 213.177,215.861 213.179,216.691 213.092 C 217.521 213.005,216.940 212.933,215.400 212.931 C 213.860 212.929,213.181 213.000,213.891 213.089 " stroke="none" fill="#9c852c" fill-rule="evenodd"></path><path id="path4" d="M196.500 108.698 C 198.425 108.771,201.575 108.771,203.500 108.698 C 205.425 108.625,203.850 108.565,200.000 108.565 C 196.150 108.565,194.575 108.625,196.500 108.698 M185.800 109.200 L 183.800 109.474 185.600 109.490 C 186.590 109.498,187.940 109.368,188.600 109.200 C 190.177 108.799,188.725 108.799,185.800 109.200 M211.400 109.189 C 212.616 109.509,216.273 109.722,215.967 109.455 C 215.875 109.375,214.540 109.211,213.000 109.091 C 211.302 108.959,210.672 108.998,211.400 109.189 M179.800 110.000 L 178.200 110.286 179.600 110.315 C 180.370 110.331,181.360 110.189,181.800 110.000 C 182.743 109.595,182.062 109.595,179.800 110.000 M218.200 109.997 C 218.964 110.328,221.914 110.555,221.567 110.256 C 221.475 110.177,220.500 110.009,219.400 109.882 C 218.113 109.733,217.685 109.774,218.200 109.997 M175.400 110.800 C 174.311 111.077,174.293 111.107,175.200 111.125 C 175.750 111.135,176.560 110.989,177.000 110.800 C 177.986 110.376,177.066 110.376,175.400 110.800 M223.000 110.790 C 223.764 111.128,226.314 111.357,225.967 111.056 C 225.875 110.976,224.990 110.804,224.000 110.673 C 222.798 110.514,222.466 110.553,223.000 110.790 M171.600 111.600 C 170.216 111.891,170.214 111.895,171.400 111.941 C 172.060 111.967,172.870 111.813,173.200 111.600 C 173.866 111.170,173.645 111.170,171.600 111.600 M227.000 111.581 C 227.768 111.929,229.910 112.156,229.567 111.853 C 229.475 111.772,228.680 111.596,227.800 111.462 C 226.685 111.293,226.442 111.329,227.000 111.581 M168.080 112.395 C 167.354 112.567,166.647 112.820,166.509 112.958 C 166.171 113.296,168.844 112.776,169.600 112.357 C 170.316 111.960,169.868 111.971,168.080 112.395 M230.400 112.352 C 230.730 112.538,231.630 112.802,232.400 112.938 C 233.243 113.088,233.561 113.052,233.200 112.848 C 232.870 112.662,231.970 112.398,231.200 112.262 C 230.357 112.112,230.039 112.148,230.400 112.352 M234.033 113.344 C 234.125 113.423,234.740 113.608,235.400 113.756 C 236.276 113.952,236.438 113.915,236.000 113.618 C 235.460 113.253,233.632 112.998,234.033 113.344 M162.800 114.000 C 161.976 114.264,161.941 114.326,162.600 114.354 C 163.040 114.373,163.670 114.213,164.000 114.000 C 164.701 113.547,164.214 113.547,162.800 114.000 M131.600 129.649 C 130.206 130.871,130.205 130.872,131.488 130.019 C 132.196 129.548,132.882 128.991,133.012 128.781 C 133.397 128.157,133.077 128.354,131.600 129.649 M267.949 129.488 C 272.584 133.310,273.998 134.393,273.983 134.115 C 273.965 133.785,270.975 131.387,268.216 129.488 L 266.600 128.377 267.949 129.488 M128.843 131.623 C 128.317 132.061,127.971 132.505,128.075 132.608 C 128.179 132.712,128.686 132.348,129.201 131.798 C 130.324 130.604,130.162 130.525,128.843 131.623 M124.175 135.700 L 123.000 137.000 124.300 135.825 C 125.512 134.730,125.784 134.400,125.475 134.400 C 125.406 134.400,124.821 134.985,124.175 135.700 M274.400 134.525 C 274.400 134.594,274.985 135.179,275.700 135.825 L 277.000 137.000 275.825 135.700 C 274.730 134.488,274.400 134.216,274.400 134.525 M118.368 141.500 C 116.009 144.143,115.474 144.800,115.682 144.800 C 115.803 144.800,116.749 143.810,117.782 142.600 C 119.696 140.360,120.155 139.498,118.368 141.500 M282.149 142.516 C 283.220 143.772,284.182 144.800,284.286 144.800 C 284.554 144.800,281.223 140.861,280.664 140.517 C 280.409 140.361,281.077 141.260,282.149 142.516 M114.000 146.800 C 113.303 147.680,112.823 148.400,112.933 148.400 C 113.043 148.400,113.703 147.680,114.400 146.800 C 115.097 145.920,115.577 145.200,115.467 145.200 C 115.357 145.200,114.697 145.920,114.000 146.800 M285.600 146.800 C 286.297 147.680,286.957 148.400,287.067 148.400 C 287.177 148.400,286.697 147.680,286.000 146.800 C 285.303 145.920,284.643 145.200,284.533 145.200 C 284.423 145.200,284.903 145.920,285.600 146.800 M111.693 149.900 C 110.657 151.396,110.321 152.000,110.523 152.000 C 110.617 152.000,111.170 151.280,111.753 150.400 C 112.936 148.612,112.884 148.179,111.693 149.900 M108.653 154.900 L 107.933 156.200 108.758 155.200 C 109.489 154.313,109.814 153.600,109.486 153.600 C 109.424 153.600,109.049 154.185,108.653 154.900 M290.415 153.800 C 290.417 154.020,290.786 154.650,291.236 155.200 C 291.779 155.864,291.915 155.931,291.640 155.400 C 290.966 154.095,290.412 153.372,290.415 153.800 M150.200 162.800 C 147.358 162.996,147.990 163.045,153.200 163.033 C 157.115 163.024,159.149 162.901,158.200 162.732 C 156.455 162.420,155.590 162.427,150.200 162.800 M126.456 164.013 C 125.229 165.035,125.892 165.023,127.200 164.000 C 127.750 163.570,128.020 163.220,127.800 163.222 C 127.580 163.225,126.975 163.581,126.456 164.013 M238.022 164.243 C 237.340 164.817,236.594 165.672,236.364 166.143 C 236.024 166.841,236.095 166.815,236.749 166.001 C 237.191 165.452,238.058 164.598,238.676 164.103 C 239.294 163.609,239.679 163.203,239.531 163.202 C 239.383 163.201,238.704 163.669,238.022 164.243 M173.762 164.862 L 173.000 165.724 174.100 165.016 C 175.234 164.286,175.449 164.000,174.862 164.000 C 174.676 164.000,174.181 164.388,173.762 164.862 M182.433 164.130 C 182.525 164.201,183.230 164.666,184.000 165.163 L 185.400 166.066 184.200 165.035 C 183.540 164.468,182.835 164.003,182.633 164.002 C 182.432 164.001,182.342 164.058,182.433 164.130 M205.035 165.231 C 203.677 166.845,203.539 167.522,203.700 171.800 L 203.835 175.400 203.918 171.474 C 204.002 167.471,204.270 166.491,205.720 164.900 C 206.171 164.405,206.434 164.000,206.305 164.000 C 206.176 164.000,205.605 164.554,205.035 165.231 M214.132 165.041 C 214.719 165.628,215.200 166.295,215.200 166.521 C 215.200 166.748,215.304 166.829,215.432 166.701 C 215.763 166.370,214.474 164.514,213.708 164.220 C 213.353 164.084,213.544 164.453,214.132 165.041 M270.205 165.435 C 271.082 166.296,271.876 166.954,271.968 166.898 C 272.230 166.741,270.294 164.777,269.405 164.299 C 268.968 164.063,269.328 164.575,270.205 165.435 M255.579 172.603 C 251.278 176.891,247.860 180.400,247.983 180.400 C 248.107 180.400,251.714 176.890,256.000 172.600 C 260.286 168.310,263.704 164.801,263.596 164.803 C 263.488 164.804,259.881 168.314,255.579 172.603 M171.718 167.104 C 170.765 168.835,169.049 173.582,169.290 173.823 C 169.379 173.913,169.862 172.774,170.363 171.293 C 170.863 169.812,171.624 167.992,172.053 167.250 C 172.482 166.507,172.767 165.834,172.687 165.754 C 172.608 165.674,172.172 166.282,171.718 167.104 M246.849 166.809 C 247.454 168.600,247.795 168.948,247.428 167.400 C 247.271 166.740,246.971 166.024,246.761 165.809 C 246.550 165.594,246.590 166.044,246.849 166.809 M124.267 166.667 C 123.900 167.034,123.929 171.109,124.300 171.339 C 124.465 171.441,124.600 170.372,124.600 168.963 C 124.600 167.555,124.585 166.402,124.567 166.401 C 124.548 166.400,124.413 166.520,124.267 166.667 M215.793 184.567 C 215.799 199.838,215.878 202.155,216.400 202.297 C 216.840 202.417,216.868 202.367,216.504 202.110 C 216.126 201.841,215.982 197.642,215.898 184.379 L 215.787 167.000 215.793 184.567 M235.759 172.800 C 235.759 175.990,235.821 177.295,235.897 175.700 C 235.973 174.105,235.973 171.495,235.897 169.900 C 235.821 168.305,235.759 169.610,235.759 172.800 M272.200 169.600 C 272.200 170.658,272.332 171.316,272.494 171.062 C 272.656 170.808,272.788 170.150,272.788 169.600 C 272.788 169.050,272.656 168.392,272.494 168.138 C 272.332 167.884,272.200 168.542,272.200 169.600 M247.740 172.400 C 247.740 174.270,247.809 175.035,247.893 174.100 C 247.977 173.165,247.977 171.635,247.893 170.700 C 247.809 169.765,247.740 170.530,247.740 172.400 M101.800 171.600 C 101.650 172.073,101.617 172.550,101.727 172.660 C 101.837 172.770,102.050 172.473,102.200 172.000 C 102.350 171.527,102.383 171.050,102.273 170.940 C 102.163 170.830,101.950 171.127,101.800 171.600 M265.096 178.704 C 258.380 185.429,257.803 186.250,259.100 187.232 C 259.696 187.682,259.725 187.678,259.300 187.201 C 258.318 186.100,258.884 185.325,265.496 178.704 C 269.178 175.017,272.101 172.000,271.991 172.000 C 271.881 172.000,268.778 175.017,265.096 178.704 M101.022 175.422 C 100.872 176.225,100.828 176.962,100.926 177.060 C 101.024 177.157,101.227 176.581,101.378 175.778 C 101.528 174.975,101.572 174.238,101.474 174.140 C 101.376 174.043,101.173 174.619,101.022 175.422 M298.480 174.600 C 298.480 175.040,298.624 175.850,298.800 176.400 C 299.054 177.192,299.120 177.233,299.120 176.600 C 299.120 176.160,298.976 175.350,298.800 174.800 C 298.546 174.008,298.480 173.967,298.480 174.600 M129.411 174.744 C 129.534 174.867,131.651 174.975,134.117 174.984 L 138.600 175.000 138.810 185.200 L 139.021 195.400 139.104 185.400 C 139.205 173.377,139.702 174.418,133.880 174.475 C 131.299 174.501,129.289 174.622,129.411 174.744 M155.907 174.690 C 156.626 174.779,157.706 174.777,158.307 174.686 C 158.908 174.595,158.320 174.522,157.000 174.524 C 155.680 174.526,155.188 174.601,155.907 174.690 M150.520 177.200 C 150.520 178.410,150.595 178.905,150.687 178.300 C 150.778 177.695,150.778 176.705,150.687 176.100 C 150.595 175.495,150.520 175.990,150.520 177.200 M204.140 180.800 C 204.140 182.670,204.209 183.435,204.293 182.500 C 204.377 181.565,204.377 180.035,204.293 179.100 C 204.209 178.165,204.140 178.930,204.140 180.800 M100.259 180.900 C 99.947 183.496,100.005 191.385,100.347 192.969 C 100.486 193.612,100.600 190.687,100.600 186.469 C 100.600 177.890,100.607 178.005,100.259 180.900 M299.400 186.600 C 299.400 191.000,299.522 193.790,299.670 192.800 C 299.819 191.810,299.941 189.020,299.941 186.600 C 299.941 184.180,299.819 181.390,299.670 180.400 C 299.522 179.410,299.400 182.200,299.400 186.600 M150.053 183.833 C 150.082 186.235,150.240 190.270,150.405 192.800 C 150.603 195.853,150.637 194.441,150.503 188.600 C 150.393 183.760,150.235 179.725,150.151 179.633 C 150.068 179.542,150.024 181.432,150.053 183.833 M235.770 190.000 C 235.770 194.730,235.828 196.665,235.898 194.300 C 235.969 191.935,235.969 188.065,235.898 185.700 C 235.828 183.335,235.770 185.270,235.770 190.000 M260.575 189.332 C 261.191 190.139,261.776 190.800,261.875 190.800 C 262.153 190.800,260.421 188.460,259.909 188.144 C 259.659 187.989,259.959 188.524,260.575 189.332 M194.799 190.785 C 195.641 192.934,196.687 194.930,196.274 193.600 C 195.798 192.067,194.643 189.360,194.311 189.000 C 194.109 188.780,194.328 189.583,194.799 190.785 M203.684 198.600 C 203.645 204.100,203.744 208.809,203.906 209.064 C 204.068 209.318,204.153 205.988,204.096 201.664 C 203.928 189.061,203.762 187.823,203.684 198.600 M262.975 192.532 C 263.591 193.339,264.176 194.000,264.275 194.000 C 264.553 194.000,262.821 191.660,262.309 191.344 C 262.059 191.189,262.359 191.724,262.975 192.532 M248.800 194.437 C 248.267 194.814,248.267 194.841,248.800 194.683 C 249.130 194.585,249.740 194.796,250.157 195.152 C 250.881 195.772,250.889 195.761,250.360 194.900 C 249.733 193.879,249.631 193.849,248.800 194.437 M265.775 196.132 C 266.391 196.939,266.976 197.600,267.075 197.600 C 267.353 197.600,265.621 195.260,265.109 194.944 C 264.859 194.789,265.159 195.324,265.775 196.132 M247.777 195.717 C 247.668 196.001,247.629 199.016,247.691 202.417 L 247.803 208.600 248.001 201.899 C 248.197 195.315,248.174 194.682,247.777 195.717 M100.880 196.600 C 100.880 197.040,101.024 197.850,101.200 198.400 C 101.454 199.192,101.520 199.233,101.520 198.600 C 101.520 198.160,101.376 197.350,101.200 196.800 C 100.946 196.008,100.880 195.967,100.880 196.600 M251.775 197.332 C 252.391 198.139,252.976 198.800,253.075 198.800 C 253.353 198.800,251.621 196.460,251.109 196.144 C 250.859 195.989,251.159 196.524,251.775 197.332 M298.622 197.422 C 298.472 198.225,298.428 198.962,298.526 199.060 C 298.624 199.157,298.827 198.581,298.978 197.778 C 299.128 196.975,299.172 196.238,299.074 196.140 C 298.976 196.043,298.773 196.619,298.622 197.422 M268.175 199.332 C 268.791 200.139,269.376 200.800,269.475 200.800 C 269.753 200.800,268.021 198.460,267.509 198.144 C 267.259 197.989,267.559 198.524,268.175 199.332 M138.550 203.000 C 138.551 205.420,138.616 206.358,138.696 205.085 C 138.776 203.812,138.775 201.832,138.694 200.685 C 138.614 199.538,138.549 200.580,138.550 203.000 M254.255 200.600 C 254.867 201.480,255.420 202.275,255.484 202.367 C 255.548 202.458,255.600 202.362,255.600 202.152 C 255.600 201.942,255.047 201.147,254.371 200.385 L 253.142 199.000 254.255 200.600 M235.331 203.000 C 235.333 204.540,235.405 205.121,235.492 204.291 C 235.579 203.461,235.577 202.201,235.489 201.491 C 235.400 200.781,235.329 201.460,235.331 203.000 M297.829 201.429 C 297.681 202.015,297.638 202.572,297.732 202.666 C 297.827 202.760,298.024 202.358,298.171 201.771 C 298.319 201.185,298.362 200.628,298.268 200.534 C 298.173 200.440,297.976 200.842,297.829 201.429 M223.507 202.290 C 224.226 202.379,225.306 202.377,225.907 202.286 C 226.508 202.195,225.920 202.122,224.600 202.124 C 223.280 202.126,222.788 202.201,223.507 202.290 M217.700 202.676 C 218.085 202.776,218.715 202.776,219.100 202.676 C 219.485 202.575,219.170 202.493,218.400 202.493 C 217.630 202.493,217.315 202.575,217.700 202.676 M256.896 204.195 C 257.393 204.962,257.944 205.592,258.120 205.595 C 258.297 205.598,257.960 204.970,257.373 204.200 C 256.000 202.400,255.732 202.397,256.896 204.195 M232.244 204.380 C 232.488 204.721,232.888 205.360,233.132 205.800 C 233.376 206.240,233.581 206.385,233.588 206.122 C 233.595 205.860,233.195 205.221,232.700 204.703 C 232.205 204.185,232.000 204.040,232.244 204.380 M157.049 204.615 C 156.912 204.973,156.815 205.566,156.834 205.933 C 156.853 206.300,157.027 206.069,157.221 205.420 C 157.598 204.158,157.465 203.533,157.049 204.615 M169.949 204.700 C 169.460 205.323,169.472 205.344,170.051 204.892 C 170.541 204.509,172.769 204.410,179.047 204.492 L 187.393 204.600 188.077 206.000 C 188.454 206.770,188.770 207.247,188.781 207.060 C 188.791 206.874,188.509 206.109,188.154 205.360 L 187.509 204.000 179.003 204.000 C 171.379 204.000,170.441 204.072,169.949 204.700 M259.191 207.188 C 259.657 207.841,260.242 208.502,260.491 208.656 C 260.741 208.811,260.441 208.276,259.825 207.468 C 258.488 205.715,257.984 205.492,259.191 207.188 M235.709 208.000 C 235.709 208.990,235.787 209.395,235.882 208.900 C 235.978 208.405,235.978 207.595,235.882 207.100 C 235.787 206.605,235.709 207.010,235.709 208.000 M200.952 208.937 C 200.970 210.738,201.052 211.045,201.309 210.274 C 201.492 209.724,201.481 208.672,201.285 207.937 C 200.967 206.746,200.930 206.856,200.952 208.937 M156.514 209.000 C 156.517 210.100,156.595 210.503,156.687 209.895 C 156.779 209.286,156.777 208.386,156.682 207.895 C 156.587 207.403,156.511 207.900,156.514 209.000 M188.800 207.884 C 188.800 208.451,189.963 211.200,190.202 211.200 C 190.307 211.200,190.096 210.435,189.732 209.500 C 188.995 207.607,188.800 207.269,188.800 207.884 M150.446 208.467 C 150.421 208.834,150.296 209.464,150.170 209.867 C 149.952 210.562,149.963 210.563,150.397 209.887 C 150.648 209.496,150.773 208.866,150.673 208.487 C 150.511 207.868,150.488 207.866,150.446 208.467 M138.800 209.376 C 138.800 209.913,138.947 210.444,139.128 210.555 C 139.308 210.667,139.377 210.227,139.282 209.579 C 139.072 208.149,138.800 208.035,138.800 209.376 M261.514 210.200 C 262.699 211.949,264.455 213.475,265.600 213.751 C 266.363 213.935,266.303 213.855,265.346 213.414 C 264.657 213.096,263.330 211.972,262.397 210.918 C 261.464 209.863,261.067 209.540,261.514 210.200 M232.399 210.900 C 231.810 211.704,231.713 211.984,232.145 211.633 C 232.801 211.100,233.793 209.600,233.489 209.600 C 233.413 209.600,232.922 210.185,232.399 210.900 M246.420 211.363 C 246.136 211.892,245.303 212.649,244.568 213.045 C 243.833 213.441,243.305 213.838,243.395 213.928 C 243.689 214.223,246.188 212.465,246.728 211.584 C 247.018 211.110,247.183 210.650,247.095 210.562 C 247.007 210.473,246.703 210.834,246.420 211.363 M236.413 211.011 C 236.441 211.873,238.847 214.002,239.789 213.999 C 240.015 213.998,239.636 213.653,238.947 213.233 C 238.257 212.812,237.402 212.053,237.047 211.545 C 236.691 211.037,236.406 210.797,236.413 211.011 M272.400 211.119 C 272.400 211.368,271.728 212.028,270.907 212.586 C 270.086 213.144,269.598 213.600,269.822 213.600 C 270.503 213.600,273.022 211.300,272.700 210.972 C 272.535 210.804,272.400 210.870,272.400 211.119 M139.612 211.464 C 139.597 212.026,141.872 214.001,142.531 213.999 C 142.789 213.998,142.431 213.650,141.735 213.226 C 141.039 212.802,140.280 212.127,140.047 211.727 C 139.815 211.327,139.619 211.209,139.612 211.464 M149.204 211.992 C 148.971 212.428,148.289 213.051,147.690 213.376 C 147.090 213.702,146.785 213.975,147.011 213.984 C 147.642 214.009,149.145 212.850,149.611 211.979 C 149.840 211.551,149.938 211.200,149.828 211.200 C 149.718 211.200,149.437 211.557,149.204 211.992 M157.688 212.613 C 158.286 213.243,158.847 213.677,158.935 213.579 C 159.023 213.480,158.533 212.965,157.847 212.434 L 156.600 211.469 157.688 212.613 M190.817 212.253 C 191.661 213.646,193.349 214.405,195.462 214.341 L 197.400 214.282 195.123 214.038 C 193.343 213.847,192.569 213.533,191.573 212.597 C 190.674 211.752,190.452 211.651,190.817 212.253 M199.478 212.613 C 198.860 213.156,198.511 213.600,198.702 213.600 C 199.068 213.600,200.800 212.101,200.800 211.784 C 200.800 211.485,200.658 211.575,199.478 212.613 M209.100 213.489 C 209.815 213.578,210.985 213.578,211.700 213.489 C 212.415 213.401,211.830 213.328,210.400 213.328 C 208.970 213.328,208.385 213.401,209.100 213.489 M220.100 213.496 C 221.365 213.575,223.435 213.575,224.700 213.496 C 225.965 213.416,224.930 213.351,222.400 213.351 C 219.870 213.351,218.835 213.416,220.100 213.496 M160.066 214.049 C 160.360 214.235,161.500 214.376,162.600 214.362 C 164.995 214.332,164.597 214.129,161.666 213.887 C 160.418 213.784,159.754 213.851,160.066 214.049 M143.900 214.282 C 144.395 214.378,145.205 214.378,145.700 214.282 C 146.195 214.187,145.790 214.109,144.800 214.109 C 143.810 214.109,143.405 214.187,143.900 214.282 M240.900 214.276 C 241.285 214.376,241.915 214.376,242.300 214.276 C 242.685 214.175,242.370 214.093,241.600 214.093 C 240.830 214.093,240.515 214.175,240.900 214.276 M110.243 221.134 C 111.448 223.256,116.991 230.484,118.424 231.800 C 119.142 232.460,118.549 231.599,117.106 229.887 C 115.663 228.175,113.535 225.385,112.379 223.687 C 110.018 220.221,109.108 219.133,110.243 221.134 M287.892 223.316 C 286.653 225.139,284.432 228.064,282.955 229.816 C 281.478 231.567,280.858 232.460,281.576 231.800 C 283.575 229.963,290.937 220.000,290.295 220.000 C 290.212 220.000,289.131 221.492,287.892 223.316 M274.575 238.500 L 273.400 239.800 274.700 238.625 C 275.912 237.530,276.184 237.200,275.875 237.200 C 275.806 237.200,275.221 237.785,274.575 238.500 M271.878 240.613 C 271.260 241.156,270.914 241.600,271.108 241.600 C 271.302 241.600,271.883 241.150,272.400 240.600 C 273.595 239.328,273.331 239.334,271.878 240.613 M130.974 243.158 C 131.361 243.784,136.005 246.899,135.978 246.515 C 135.966 246.342,134.773 245.415,133.328 244.456 C 131.882 243.497,130.823 242.913,130.974 243.158 M267.705 243.725 C 266.993 244.206,266.408 244.747,266.405 244.927 C 266.399 245.288,268.635 243.790,269.012 243.181 C 269.334 242.660,269.196 242.717,267.705 243.725 M136.400 246.979 C 136.400 247.089,136.940 247.459,137.600 247.800 C 138.260 248.141,138.800 248.331,138.800 248.221 C 138.800 248.111,138.260 247.741,137.600 247.400 C 136.940 247.059,136.400 246.869,136.400 246.979 M261.700 247.826 C 259.812 248.958,259.377 249.549,261.100 248.641 C 262.309 248.003,263.916 246.831,263.600 246.817 C 263.490 246.812,262.635 247.266,261.700 247.826 M140.400 249.384 C 140.400 249.494,141.120 249.951,142.000 250.400 C 142.880 250.849,143.600 251.126,143.600 251.016 C 143.600 250.906,142.880 250.449,142.000 250.000 C 141.120 249.551,140.400 249.274,140.400 249.384 M258.300 249.829 C 256.805 250.640,256.896 250.978,258.400 250.200 C 259.060 249.859,259.600 249.494,259.600 249.390 C 259.600 249.132,259.557 249.147,258.300 249.829 M146.533 253.600 C 146.533 254.540,146.624 254.701,146.887 254.231 C 147.091 253.866,147.091 253.334,146.887 252.969 C 146.624 252.499,146.533 252.660,146.533 253.600 M146.046 255.667 C 146.021 256.034,145.896 256.664,145.770 257.067 C 145.552 257.762,145.563 257.763,145.997 257.087 C 146.248 256.696,146.373 256.066,146.273 255.687 C 146.111 255.068,146.088 255.066,146.046 255.667 M144.446 260.867 C 144.421 261.234,144.296 261.864,144.170 262.267 C 143.952 262.962,143.963 262.963,144.397 262.287 C 144.648 261.896,144.773 261.266,144.673 260.887 C 144.511 260.268,144.488 260.266,144.446 260.867 M229.400 261.200 C 228.896 261.417,228.822 261.544,229.200 261.544 C 229.530 261.544,230.160 261.389,230.600 261.200 C 231.104 260.983,231.178 260.856,230.800 260.856 C 230.470 260.856,229.840 261.011,229.400 261.200 M226.000 262.018 C 225.562 262.315,225.724 262.352,226.600 262.156 C 228.071 261.827,228.390 261.598,227.367 261.606 C 226.945 261.609,226.330 261.795,226.000 262.018 M221.800 262.800 C 220.781 263.238,221.832 263.238,223.200 262.800 C 224.004 262.543,224.043 262.477,223.400 262.468 C 222.960 262.462,222.240 262.611,221.800 262.800 M179.976 264.879 C 178.675 265.748,177.493 266.650,177.349 266.883 C 177.205 267.116,178.162 266.576,179.477 265.684 C 180.815 264.775,182.468 264.002,183.233 263.928 C 184.594 263.796,184.595 263.794,183.471 263.547 C 182.579 263.352,181.845 263.631,179.976 264.879 M216.400 263.600 C 215.056 264.031,216.508 264.031,218.200 263.600 C 219.278 263.326,219.298 263.294,218.400 263.287 C 217.850 263.283,216.950 263.424,216.400 263.600 M188.800 264.420 C 189.790 264.597,191.410 264.729,192.400 264.714 L 194.200 264.687 192.000 264.383 C 188.839 263.946,186.301 263.976,188.800 264.420 M207.800 264.400 L 205.800 264.674 207.600 264.708 C 208.590 264.726,210.210 264.597,211.200 264.420 L 213.000 264.100 211.400 264.113 C 210.520 264.120,208.900 264.249,207.800 264.400 M172.036 270.427 C 170.187 271.732,168.807 272.800,168.971 272.800 C 169.351 272.800,175.154 268.797,175.436 268.341 C 175.763 267.812,175.618 267.901,172.036 270.427 M162.707 276.926 C 161.666 277.626,160.811 278.346,160.807 278.525 C 160.800 278.856,164.309 276.471,164.657 275.909 C 164.942 275.447,164.769 275.537,162.707 276.926 M137.022 286.222 C 136.872 287.025,136.838 287.772,136.948 287.882 C 137.058 287.992,137.272 287.425,137.422 286.622 C 137.573 285.819,137.606 285.073,137.496 284.963 C 137.386 284.853,137.173 285.419,137.022 286.222 M148.100 286.846 C 146.737 287.719,146.295 288.306,147.500 287.643 C 148.418 287.139,149.856 286.027,149.600 286.019 C 149.490 286.016,148.815 286.388,148.100 286.846 M145.100 288.629 C 143.605 289.440,143.696 289.778,145.200 289.000 C 145.860 288.659,146.400 288.294,146.400 288.190 C 146.400 287.932,146.357 287.947,145.100 288.629 " stroke="none" fill="#947c2c" fill-rule="evenodd"></path></g></svg>