<svg id="svg" version="1.1" xmlns="http://www.w3.org/2000/svg" xmlns:xlink="http://www.w3.org/1999/xlink" width="400" height="400" viewBox="0, 0, 400,400"><g id="svgg"><path id="path0" d="M18.400 29.600 C 18.400 29.820,18.037 30.000,17.594 30.000 C 16.467 30.000,13.600 30.931,13.600 31.297 C 13.600 31.464,13.240 31.600,12.800 31.600 C 12.360 31.600,12.000 31.780,12.000 32.000 C 12.000 32.220,11.730 32.400,11.400 32.400 C 11.070 32.400,10.800 32.580,10.800 32.800 C 10.800 33.020,10.530 33.200,10.200 33.200 C 9.870 33.200,9.600 33.380,9.600 33.600 C 9.600 33.820,9.404 34.000,9.165 34.000 C 8.596 34.000,4.400 38.372,4.400 38.965 C 4.400 39.217,4.040 39.683,3.600 40.000 C 3.160 40.317,2.800 40.897,2.800 41.288 C 2.800 41.680,2.620 42.000,2.400 42.000 C 2.180 42.000,2.000 42.270,2.000 42.600 C 2.000 42.930,1.820 43.200,1.600 43.200 C 1.380 43.200,1.200 43.635,1.200 44.167 C 1.200 44.698,0.975 45.208,0.700 45.300 C -0.036 45.545,-0.036 352.055,0.700 352.300 C 0.975 352.392,1.200 352.902,1.200 353.433 C 1.200 353.965,1.380 354.400,1.600 354.400 C 1.820 354.400,2.000 354.760,2.000 355.200 C 2.000 355.640,2.180 356.000,2.400 356.000 C 2.620 356.000,2.800 356.182,2.800 356.404 C 2.800 356.626,3.340 357.372,4.000 358.063 C 4.660 358.754,5.200 359.478,5.200 359.673 C 5.200 360.117,7.858 362.800,8.298 362.800 C 8.477 362.800,8.883 363.160,9.200 363.600 C 9.517 364.040,10.007 364.400,10.288 364.400 C 10.570 364.400,10.800 364.580,10.800 364.800 C 10.800 365.020,11.070 365.200,11.400 365.200 C 11.730 365.200,12.000 365.380,12.000 365.600 C 12.000 365.820,12.360 366.000,12.800 366.000 C 13.240 366.000,13.600 366.180,13.600 366.400 C 13.600 366.620,14.140 366.800,14.800 366.800 C 15.460 366.800,16.000 366.980,16.000 367.200 C 16.000 367.420,16.540 367.600,17.200 367.600 C 17.860 367.600,18.400 367.780,18.400 368.000 C 18.400 368.555,319.457 368.555,319.800 368.000 C 319.936 367.780,320.577 367.600,321.224 367.600 C 321.871 367.600,322.400 367.420,322.400 367.200 C 322.400 366.980,322.850 366.800,323.400 366.800 C 323.950 366.800,324.400 366.620,324.400 366.400 C 324.400 366.180,324.760 366.000,325.200 366.000 C 325.640 366.000,326.000 365.820,326.000 365.600 C 326.000 365.380,326.243 365.200,326.541 365.200 C 326.838 365.200,327.646 364.660,328.337 364.000 C 329.028 363.340,329.756 362.800,329.956 362.800 C 330.430 362.800,333.200 360.030,333.200 359.556 C 333.200 359.356,333.697 358.673,334.304 358.038 C 335.646 356.633,337.200 353.803,337.200 352.762 C 337.200 352.343,337.380 352.000,337.600 352.000 C 337.820 352.000,338.000 351.471,338.000 350.824 C 338.000 350.177,338.180 349.536,338.400 349.400 C 338.955 349.057,338.955 48.543,338.400 48.200 C 338.180 48.064,338.000 47.423,338.000 46.776 C 338.000 46.129,337.820 45.600,337.600 45.600 C 337.380 45.600,337.200 45.276,337.200 44.880 C 337.200 43.986,336.306 42.007,335.900 42.003 C 335.735 42.001,335.600 41.757,335.600 41.459 C 335.600 41.162,335.060 40.354,334.400 39.663 C 333.740 38.972,333.200 38.220,333.200 37.990 C 333.200 37.484,330.569 34.800,330.073 34.800 C 329.878 34.800,329.154 34.260,328.463 33.600 C 327.772 32.940,326.936 32.400,326.604 32.400 C 326.272 32.400,326.000 32.220,326.000 32.000 C 326.000 31.780,325.640 31.600,325.200 31.600 C 324.760 31.600,324.400 31.420,324.400 31.200 C 324.400 30.980,324.051 30.800,323.624 30.800 C 323.197 30.800,322.736 30.620,322.600 30.400 C 322.464 30.180,321.823 30.000,321.176 30.000 C 320.529 30.000,320.000 29.820,320.000 29.600 C 320.000 29.334,269.467 29.200,169.200 29.200 C 68.933 29.200,18.400 29.334,18.400 29.600 M78.600 77.200 C 78.736 77.420,79.647 77.600,80.624 77.600 C 81.601 77.600,82.400 77.780,82.400 78.000 C 82.400 78.220,82.940 78.400,83.600 78.400 C 84.260 78.400,84.800 78.580,84.800 78.800 C 84.800 79.020,85.149 79.200,85.576 79.200 C 86.003 79.200,86.464 79.380,86.600 79.600 C 86.736 79.820,87.163 80.000,87.548 80.000 C 87.934 80.000,88.636 80.360,89.108 80.800 C 89.580 81.240,90.151 81.600,90.376 81.600 C 91.183 81.600,96.777 86.968,97.568 88.500 C 97.880 89.105,98.285 89.600,98.468 89.600 C 98.650 89.600,98.800 89.830,98.800 90.112 C 98.800 90.393,99.160 90.883,99.600 91.200 C 100.040 91.517,100.400 92.097,100.400 92.488 C 100.400 92.880,100.580 93.200,100.800 93.200 C 101.020 93.200,101.200 93.740,101.200 94.400 C 101.200 95.060,101.380 95.600,101.600 95.600 C 101.820 95.600,102.000 96.039,102.000 96.576 C 102.000 97.113,102.180 97.664,102.400 97.800 C 102.620 97.936,102.800 98.757,102.800 99.624 C 102.800 100.491,102.980 101.200,103.200 101.200 C 103.441 101.200,103.600 102.859,103.600 105.376 C 103.600 107.729,103.425 109.661,103.200 109.800 C 102.980 109.936,102.800 110.667,102.800 111.424 C 102.800 112.181,102.620 112.800,102.400 112.800 C 102.180 112.800,102.000 113.340,102.000 114.000 C 102.000 114.660,101.820 115.200,101.600 115.200 C 101.380 115.200,101.200 115.560,101.200 116.000 C 101.200 116.440,101.020 116.800,100.800 116.800 C 100.580 116.800,100.400 117.160,100.400 117.600 C 100.400 118.040,100.220 118.400,100.000 118.400 C 99.780 118.400,99.600 118.760,99.600 119.200 C 99.600 119.640,99.420 120.000,99.200 120.000 C 98.980 120.000,98.800 120.264,98.800 120.587 C 98.800 121.332,91.855 128.400,91.123 128.400 C 90.822 128.400,90.317 128.760,90.000 129.200 C 89.683 129.640,89.103 130.000,88.712 130.000 C 88.320 130.000,88.000 130.180,88.000 130.400 C 88.000 130.620,87.640 130.800,87.200 130.800 C 86.760 130.800,86.400 130.980,86.400 131.200 C 86.400 131.420,85.860 131.600,85.200 131.600 C 84.540 131.600,84.000 131.780,84.000 132.000 C 84.000 132.220,83.460 132.400,82.800 132.400 C 82.140 132.400,81.600 132.580,81.600 132.800 C 81.600 133.026,80.467 133.200,79.000 133.200 C 77.533 133.200,76.400 133.374,76.400 133.600 C 76.400 133.820,75.950 134.000,75.400 134.000 C 74.850 134.000,74.400 133.820,74.400 133.600 C 74.400 133.375,73.275 133.200,71.824 133.200 C 70.407 133.200,69.136 133.020,69.000 132.800 C 68.864 132.580,68.234 132.400,67.600 132.400 C 66.966 132.400,66.336 132.220,66.200 132.000 C 66.064 131.780,65.603 131.600,65.176 131.600 C 64.749 131.600,64.400 131.420,64.400 131.200 C 64.400 130.980,64.040 130.800,63.600 130.800 C 63.160 130.800,62.800 130.620,62.800 130.400 C 62.800 130.180,62.440 130.000,62.000 130.000 C 61.560 130.000,61.200 129.820,61.200 129.600 C 61.200 129.380,60.922 129.200,60.582 129.200 C 60.242 129.200,59.514 128.750,58.964 128.200 C 58.414 127.650,57.837 127.195,57.682 127.189 C 57.199 127.169,53.600 123.670,53.600 123.219 C 53.600 122.985,53.060 122.228,52.400 121.537 C 51.740 120.846,51.200 120.038,51.200 119.741 C 51.200 119.443,51.020 119.200,50.800 119.200 C 50.580 119.200,50.400 118.840,50.400 118.400 C 50.400 117.960,50.220 117.600,50.000 117.600 C 49.780 117.600,49.600 117.240,49.600 116.800 C 49.600 116.360,49.420 116.000,49.200 116.000 C 48.980 116.000,48.800 115.561,48.800 115.024 C 48.800 114.487,48.620 113.936,48.400 113.800 C 48.180 113.664,48.000 113.023,48.000 112.376 C 48.000 111.729,47.820 111.200,47.600 111.200 C 47.352 111.200,47.200 109.000,47.200 105.400 C 47.200 101.800,47.352 99.600,47.600 99.600 C 47.820 99.600,48.000 98.880,48.000 98.000 C 48.000 97.120,48.180 96.400,48.400 96.400 C 48.620 96.400,48.800 96.040,48.800 95.600 C 48.800 95.160,48.980 94.800,49.200 94.800 C 49.420 94.800,49.600 94.440,49.600 94.000 C 49.600 93.560,49.780 93.200,50.000 93.200 C 50.220 93.200,50.400 92.840,50.400 92.400 C 50.400 91.960,50.580 91.600,50.800 91.600 C 51.020 91.600,51.200 91.364,51.200 91.075 C 51.200 90.787,51.560 90.164,52.000 89.692 C 52.440 89.220,52.800 88.728,52.800 88.599 C 52.800 88.370,57.719 83.486,59.749 81.700 C 60.311 81.205,61.048 80.800,61.386 80.800 C 61.724 80.800,62.000 80.620,62.000 80.400 C 62.000 80.180,62.360 80.000,62.800 80.000 C 63.240 80.000,63.600 79.820,63.600 79.600 C 63.600 79.380,64.039 79.200,64.576 79.200 C 65.113 79.200,65.664 79.020,65.800 78.800 C 65.936 78.580,66.476 78.400,67.000 78.400 C 67.524 78.400,68.064 78.220,68.200 78.000 C 68.336 77.780,69.157 77.600,70.024 77.600 C 70.891 77.600,71.600 77.420,71.600 77.200 C 71.600 76.965,72.992 76.800,74.976 76.800 C 76.833 76.800,78.464 76.980,78.600 77.200 M241.400 154.200 C 242.720 154.349,243.971 154.635,244.180 154.835 C 244.389 155.036,245.334 155.200,246.280 155.200 C 247.226 155.200,248.000 155.380,248.000 155.600 C 248.000 155.820,248.373 156.000,248.829 156.000 C 249.286 156.000,250.999 156.450,252.638 157.000 C 254.276 157.550,255.883 158.000,256.208 158.000 C 256.534 158.000,256.800 158.180,256.800 158.400 C 256.800 158.620,257.250 158.800,257.800 158.800 C 258.350 158.800,258.800 158.980,258.800 159.200 C 258.800 159.420,259.078 159.600,259.417 159.600 C 259.756 159.600,260.420 159.960,260.892 160.400 C 261.364 160.840,261.987 161.200,262.275 161.200 C 262.564 161.200,262.800 161.380,262.800 161.600 C 262.800 161.820,263.043 162.000,263.341 162.000 C 263.638 162.000,264.446 162.540,265.137 163.200 C 265.828 163.860,266.556 164.400,266.755 164.400 C 267.274 164.400,273.200 170.260,273.200 170.773 C 273.200 171.008,273.380 171.200,273.600 171.200 C 273.820 171.200,274.000 171.470,274.000 171.800 C 274.000 172.130,274.152 172.400,274.337 172.400 C 274.522 172.400,275.013 173.030,275.428 173.800 C 275.843 174.570,276.321 175.200,276.491 175.200 C 276.661 175.200,276.800 175.560,276.800 176.000 C 276.800 176.440,276.948 176.800,277.129 176.800 C 277.499 176.800,280.000 181.947,280.000 182.709 C 280.000 182.979,280.180 183.200,280.400 183.200 C 280.620 183.200,280.800 183.560,280.800 184.000 C 280.800 184.440,280.980 184.800,281.200 184.800 C 281.420 184.800,281.600 185.340,281.600 186.000 C 281.600 186.660,281.780 187.200,282.000 187.200 C 282.220 187.200,282.400 187.740,282.400 188.400 C 282.400 189.060,282.580 189.600,282.800 189.600 C 283.020 189.600,283.200 190.230,283.200 191.000 C 283.200 191.770,283.380 192.400,283.600 192.400 C 283.820 192.400,284.000 193.120,284.000 194.000 C 284.000 194.880,284.180 195.600,284.400 195.600 C 284.620 195.600,284.800 196.500,284.800 197.600 C 284.800 198.700,284.980 199.600,285.200 199.600 C 285.422 199.600,285.600 200.659,285.600 201.976 C 285.600 203.283,285.780 204.464,286.000 204.600 C 286.220 204.736,286.400 206.356,286.400 208.200 C 286.400 210.044,286.580 211.664,286.800 211.800 C 287.063 211.963,287.200 229.937,287.200 264.424 L 287.200 316.800 263.003 316.800 L 238.807 316.800 238.643 270.300 C 238.484 225.269,238.348 218.627,237.568 217.820 C 237.365 217.611,237.200 216.756,237.200 215.920 C 237.200 215.084,237.020 214.400,236.800 214.400 C 236.580 214.400,236.400 213.860,236.400 213.200 C 236.400 212.540,236.220 212.000,236.000 212.000 C 235.780 212.000,235.600 211.676,235.600 211.280 C 235.600 210.386,234.706 208.407,234.300 208.403 C 234.135 208.401,234.000 208.040,234.000 207.600 C 234.000 207.160,233.820 206.800,233.600 206.800 C 233.380 206.800,233.200 206.533,233.200 206.207 C 233.200 205.054,228.282 200.076,226.210 199.132 C 225.655 198.879,225.200 198.520,225.200 198.336 C 225.200 198.151,224.750 198.000,224.200 198.000 C 223.650 198.000,223.200 197.820,223.200 197.600 C 223.200 197.380,222.761 197.200,222.224 197.200 C 221.687 197.200,221.136 197.020,221.000 196.800 C 220.864 196.580,219.863 196.400,218.776 196.400 C 217.689 196.400,216.800 196.220,216.800 196.000 C 216.800 195.755,214.867 195.600,211.800 195.600 C 208.733 195.600,206.800 195.755,206.800 196.000 C 206.800 196.222,205.733 196.400,204.400 196.400 C 203.067 196.400,202.000 196.578,202.000 196.800 C 202.000 197.020,201.460 197.200,200.800 197.200 C 200.140 197.200,199.600 197.380,199.600 197.600 C 199.600 197.820,199.245 198.000,198.812 198.000 C 198.100 198.000,197.454 198.300,194.368 200.062 C 192.595 201.075,187.200 206.971,187.200 207.896 C 187.200 208.173,187.054 208.400,186.875 208.400 C 186.696 208.400,186.302 209.030,186.000 209.800 C 185.698 210.570,185.304 211.200,185.125 211.200 C 184.946 211.200,184.800 211.740,184.800 212.400 C 184.800 213.060,184.620 213.600,184.400 213.600 C 184.180 213.600,184.000 214.140,184.000 214.800 C 184.000 215.460,183.820 216.000,183.600 216.000 C 183.380 216.000,183.200 216.529,183.200 217.176 C 183.200 217.823,183.020 218.464,182.800 218.600 C 182.580 218.736,182.400 219.827,182.400 221.024 C 182.400 222.221,182.220 223.200,182.000 223.200 C 181.757 223.200,181.600 224.992,181.600 227.776 C 181.600 230.396,181.429 232.458,181.200 232.600 C 180.937 232.762,180.800 247.271,180.800 274.824 L 180.800 316.800 156.600 316.800 L 132.400 316.800 132.400 237.200 L 132.400 157.600 155.800 157.600 L 179.200 157.600 179.200 168.400 L 179.200 179.200 180.366 179.200 C 181.278 179.200,181.649 178.938,182.064 178.000 C 182.356 177.340,182.731 176.800,182.898 176.800 C 183.064 176.800,183.200 176.557,183.200 176.259 C 183.200 175.962,183.740 175.154,184.400 174.463 C 185.060 173.772,185.600 173.112,185.600 172.995 C 185.600 172.878,186.545 171.831,187.700 170.668 C 188.855 169.504,190.454 167.798,191.254 166.876 C 192.054 165.954,192.883 165.200,193.095 165.200 C 193.307 165.200,194.006 164.705,194.648 164.100 C 195.289 163.495,196.306 162.745,196.907 162.432 C 197.508 162.120,198.000 161.715,198.000 161.532 C 198.000 161.350,198.320 161.200,198.712 161.200 C 199.103 161.200,199.683 160.840,200.000 160.400 C 200.317 159.960,200.897 159.600,201.288 159.600 C 201.680 159.600,202.000 159.420,202.000 159.200 C 202.000 158.980,202.349 158.800,202.776 158.800 C 203.203 158.800,203.643 158.653,203.754 158.474 C 203.865 158.295,205.046 157.800,206.378 157.374 C 207.710 156.948,208.800 156.465,208.800 156.300 C 208.800 156.135,209.340 156.000,210.000 156.000 C 210.660 156.000,211.200 155.820,211.200 155.600 C 211.200 155.380,211.819 155.200,212.576 155.200 C 213.333 155.200,214.064 155.020,214.200 154.800 C 214.336 154.580,215.146 154.400,216.000 154.400 C 216.854 154.400,217.668 154.214,217.808 153.987 C 218.084 153.541,237.066 153.712,241.400 154.200 M99.600 237.200 L 99.600 316.800 75.400 316.800 L 51.200 316.800 51.200 237.200 L 51.200 157.600 75.400 157.600 L 99.600 157.600 99.600 237.200 M375.800 323.600 C 375.664 323.820,374.404 324.000,373.000 324.000 C 371.596 324.000,370.336 324.180,370.200 324.400 C 370.064 324.620,369.507 324.800,368.963 324.800 C 367.914 324.800,363.892 326.661,363.667 327.251 C 363.593 327.443,363.307 327.600,363.030 327.600 C 362.156 327.600,357.600 332.394,357.600 333.315 C 357.600 333.594,357.240 334.083,356.800 334.400 C 356.360 334.717,356.000 335.297,356.000 335.688 C 356.000 336.080,355.820 336.400,355.600 336.400 C 355.380 336.400,355.200 336.760,355.200 337.200 C 355.200 337.640,355.020 338.000,354.800 338.000 C 354.580 338.000,354.400 338.529,354.400 339.176 C 354.400 339.823,354.220 340.464,354.000 340.600 C 353.780 340.736,353.600 342.061,353.600 343.544 C 353.600 345.138,353.400 346.440,353.110 346.730 C 352.723 347.117,352.723 347.385,353.110 348.005 C 353.380 348.436,353.600 349.861,353.600 351.171 C 353.600 352.481,353.780 353.664,354.000 353.800 C 354.220 353.936,354.400 354.476,354.400 355.000 C 354.400 355.524,354.580 356.064,354.800 356.200 C 355.020 356.336,355.200 356.797,355.200 357.224 C 355.200 357.651,355.380 358.000,355.600 358.000 C 355.820 358.000,356.000 358.320,356.000 358.712 C 356.000 359.103,356.360 359.683,356.800 360.000 C 357.240 360.317,357.600 360.806,357.600 361.085 C 357.600 362.056,362.123 366.800,363.048 366.800 C 363.352 366.800,363.600 366.947,363.600 367.126 C 363.600 367.592,366.731 369.200,367.638 369.200 C 368.057 369.200,368.400 369.380,368.400 369.600 C 368.400 369.820,368.940 370.000,369.600 370.000 C 370.260 370.000,370.800 370.180,370.800 370.400 C 370.800 370.649,373.133 370.800,377.000 370.800 C 380.867 370.800,383.200 370.649,383.200 370.400 C 383.200 370.180,383.740 370.000,384.400 370.000 C 385.060 370.000,385.600 369.820,385.600 369.600 C 385.600 369.380,385.962 369.200,386.405 369.200 C 387.296 369.200,388.540 368.569,389.755 367.500 C 390.193 367.115,390.700 366.800,390.883 366.800 C 391.427 366.800,396.400 361.659,396.400 361.096 C 396.400 360.810,396.760 360.317,397.200 360.000 C 397.640 359.683,398.000 359.103,398.000 358.712 C 398.000 358.320,398.180 358.000,398.400 358.000 C 398.620 358.000,398.800 357.565,398.800 357.033 C 398.800 356.502,399.025 355.992,399.300 355.900 C 399.678 355.774,399.800 353.728,399.800 347.487 C 399.800 341.423,399.668 339.108,399.300 338.740 C 399.025 338.465,398.800 337.826,398.800 337.320 C 398.800 336.814,398.620 336.400,398.400 336.400 C 398.180 336.400,398.000 336.080,398.000 335.688 C 398.000 335.297,397.640 334.717,397.200 334.400 C 396.760 334.083,396.400 333.589,396.400 333.303 C 396.400 331.256,387.421 324.800,384.575 324.800 C 384.065 324.800,383.536 324.620,383.400 324.400 C 383.264 324.180,382.004 324.000,380.600 324.000 C 379.196 324.000,377.936 323.820,377.800 323.600 C 377.664 323.380,377.214 323.200,376.800 323.200 C 376.386 323.200,375.936 323.380,375.800 323.600 M378.000 328.000 C 378.000 328.220,378.810 328.400,379.800 328.400 C 380.790 328.400,381.600 328.580,381.600 328.800 C 381.600 329.020,382.140 329.200,382.800 329.200 C 383.460 329.200,384.000 329.380,384.000 329.600 C 384.000 329.820,384.360 330.000,384.800 330.000 C 385.240 330.000,385.600 330.168,385.600 330.373 C 385.600 330.578,385.963 330.861,386.407 331.002 C 388.461 331.654,394.000 338.400,394.000 340.250 C 394.000 340.553,394.180 340.800,394.400 340.800 C 394.620 340.800,394.800 341.340,394.800 342.000 C 394.800 342.660,394.980 343.200,395.200 343.200 C 395.442 343.200,395.600 344.933,395.600 347.600 C 395.600 350.267,395.442 352.000,395.200 352.000 C 394.980 352.000,394.800 352.540,394.800 353.200 C 394.800 353.860,394.620 354.400,394.400 354.400 C 394.180 354.400,394.000 354.664,394.000 354.986 C 394.000 356.817,388.446 363.600,386.946 363.600 C 386.646 363.600,386.400 363.780,386.400 364.000 C 386.400 364.220,386.040 364.400,385.600 364.400 C 385.160 364.400,384.800 364.580,384.800 364.800 C 384.800 365.020,384.440 365.200,384.000 365.200 C 383.560 365.200,383.200 365.380,383.200 365.600 C 383.200 365.820,382.660 366.000,382.000 366.000 C 381.340 366.000,380.800 366.180,380.800 366.400 C 380.800 366.638,379.275 366.800,377.024 366.800 C 374.937 366.800,373.137 366.621,373.000 366.400 C 372.864 366.180,372.324 366.000,371.800 366.000 C 371.276 366.000,370.736 365.820,370.600 365.600 C 370.464 365.380,369.913 365.200,369.376 365.200 C 368.839 365.200,368.400 365.020,368.400 364.800 C 368.400 364.580,368.080 364.400,367.688 364.400 C 367.297 364.400,366.717 364.040,366.400 363.600 C 366.083 363.160,365.581 362.800,365.286 362.800 C 364.364 362.800,359.600 357.601,359.600 356.595 C 359.600 356.268,359.420 356.000,359.200 356.000 C 358.980 356.000,358.800 355.655,358.800 355.233 C 358.800 354.812,358.623 354.407,358.407 354.333 C 358.057 354.214,357.598 352.080,356.931 347.465 C 356.802 346.572,356.895 345.745,357.155 345.485 C 357.400 345.240,357.600 344.361,357.600 343.531 C 357.600 341.875,359.342 337.777,360.480 336.753 C 360.876 336.397,361.200 335.896,361.200 335.640 C 361.200 335.001,363.848 332.400,364.498 332.400 C 364.787 332.400,365.283 332.040,365.600 331.600 C 365.917 331.160,366.497 330.800,366.888 330.800 C 367.280 330.800,367.600 330.620,367.600 330.400 C 367.600 330.180,367.960 330.000,368.400 330.000 C 368.840 330.000,369.200 329.820,369.200 329.600 C 369.200 329.380,369.560 329.200,370.000 329.200 C 370.440 329.200,370.800 329.020,370.800 328.800 C 370.800 328.580,371.610 328.400,372.600 328.400 C 373.590 328.400,374.400 328.220,374.400 328.000 C 374.400 327.780,375.210 327.600,376.200 327.600 C 377.190 327.600,378.000 327.780,378.000 328.000 M367.600 347.600 L 367.600 360.400 370.400 360.400 L 373.200 360.400 373.200 355.000 L 373.200 349.600 374.551 349.600 C 375.676 349.600,375.986 349.802,376.400 350.800 C 376.673 351.460,377.055 352.000,377.249 352.000 C 377.442 352.000,377.600 352.236,377.600 352.525 C 377.600 352.813,377.915 353.398,378.300 353.825 C 378.685 354.251,379.254 355.092,379.564 355.693 C 379.874 356.295,380.459 357.142,380.864 357.577 C 381.269 358.011,381.600 358.567,381.600 358.812 C 381.600 359.896,382.796 360.400,385.371 360.400 C 388.245 360.400,389.055 359.337,387.200 358.000 C 386.760 357.683,386.400 357.143,386.400 356.800 C 386.400 356.457,386.040 355.917,385.600 355.600 C 385.160 355.283,384.800 354.743,384.800 354.400 C 384.800 354.057,384.440 353.517,384.000 353.200 C 383.560 352.883,383.200 352.369,383.200 352.059 C 383.200 351.748,382.820 351.165,382.356 350.762 C 381.363 349.901,382.055 348.800,383.590 348.800 C 384.573 348.800,386.400 347.122,386.400 346.218 C 386.400 345.878,386.580 345.600,386.800 345.600 C 387.037 345.600,387.200 344.129,387.200 341.987 C 387.200 338.220,385.811 335.600,383.813 335.600 C 383.476 335.600,383.200 335.420,383.200 335.200 C 383.200 334.947,380.333 334.800,375.400 334.800 L 367.600 334.800 367.600 347.600 M380.000 339.200 C 380.000 339.420,380.360 339.600,380.800 339.600 C 381.244 339.600,381.600 339.867,381.600 340.200 C 381.600 340.530,381.780 340.800,382.000 340.800 C 382.727 340.800,382.416 342.776,381.528 343.797 C 381.048 344.349,380.249 344.800,379.751 344.800 C 379.254 344.800,378.736 344.980,378.600 345.200 C 378.464 345.420,377.193 345.600,375.776 345.600 L 373.200 345.600 373.200 342.200 L 373.200 338.800 376.600 338.800 C 378.600 338.800,380.000 338.965,380.000 339.200 " stroke="none" fill="#0464c4" fill-rule="evenodd"></path><path id="path1" d="" stroke="none" fill="#0864c4" fill-rule="evenodd"></path><path id="path2" d="" stroke="none" fill="#0864c4" fill-rule="evenodd"></path><path id="path3" d="" stroke="none" fill="#0864c4" fill-rule="evenodd"></path><path id="path4" d="" stroke="none" fill="#0864c4" fill-rule="evenodd"></path></g></svg>