<?xml version="1.0" standalone="no"?>
<!DOCTYPE svg PUBLIC "-//W3C//DTD SVG 20010904//EN"
 "http://www.w3.org/TR/2001/REC-SVG-20010904/DTD/svg10.dtd">
<svg version="1.0" xmlns="http://www.w3.org/2000/svg"
 width="144.000000pt" height="144.000000pt" viewBox="0 0 144.000000 144.000000"
 preserveAspectRatio="xMidYMid meet">

<g transform="translate(0.000000,144.000000) scale(0.100000,-0.100000)"
fill="#000000" stroke="none">
<path d="M741 1295 c80 -16 133 -42 176 -87 52 -53 67 -101 65 -200 -1 -83 0
-88 20 -88 17 0 18 -2 8 -15 -10 -12 -49 -15 -232 -15 -185 0 -220 2 -224 15
-8 19 -28 19 -43 1 -7 -8 -43 -16 -92 -19 -45 -4 -83 -8 -85 -9 -1 -2 -5 -109
-8 -238 -7 -235 -15 -464 -19 -484 -5 -26 119 -38 403 -39 287 -2 417 9 438
36 5 7 6 167 3 367 l-6 354 -37 8 c-20 4 -47 18 -61 30 -22 20 -25 33 -29 113
-4 72 -10 100 -31 141 -48 95 -136 145 -251 143 l-61 -1 66 -13z"/>
<path d="M551 1155 c-42 -39 -59 -85 -64 -175 -2 -45 1 -55 16 -58 15 -3 17 5
17 70 0 84 22 142 65 176 15 12 23 22 16 22 -6 0 -28 -16 -50 -35z"/>
</g>
</svg>
