<?xml version="1.0" standalone="no"?>
<!DOCTYPE svg PUBLIC "-//W3C//DTD SVG 20010904//EN"
 "http://www.w3.org/TR/2001/REC-SVG-20010904/DTD/svg10.dtd">
<svg version="1.0" xmlns="http://www.w3.org/2000/svg"
 width="1712.000000pt" height="456.000000pt" viewBox="0 0 1712.000000 456.000000"
 preserveAspectRatio="xMidYMid meet">

<g transform="translate(0.000000,456.000000) scale(0.100000,-0.100000)"
fill="#000000" stroke="none">
<path d="M10571 3994 c-91 -92 -160 -163 -152 -159 9 5 12 3 9 -6 -3 -8 -11
-13 -18 -11 -9 2 -11 -7 -7 -35 6 -33 67 -98 578 -609 477 -477 570 -575 567
-595 l-3 -24 -1367 -5 c-751 -3 -1370 -8 -1374 -12 -4 -5 -2 -8 6 -8 10 0 10
-3 0 -15 -7 -8 -16 -12 -21 -9 -5 3 -9 -95 -9 -228 0 -187 3 -238 14 -254 14
-19 43 -19 1383 -24 l1368 -5 3 -24 c3 -19 -93 -121 -572 -600 -537 -538 -576
-579 -576 -611 0 -31 16 -50 168 -202 126 -126 174 -168 192 -168 20 0 225
200 952 928 817 816 928 931 928 957 0 26 -111 141 -928 957 -721 722 -933
928 -951 928 -19 0 -67 -42 -190 -166z m139 123 c0 -1 -64 -65 -142 -142
l-143 -140 140 143 c130 132 145 147 145 139z"/>
<path d="M14850 4153 c-102 -4 -265 -25 -345 -44 -132 -31 -126 -28 -113 -53
10 -19 10 -20 -5 -7 -14 11 -20 11 -32 1 -8 -7 -15 -9 -15 -5 0 4 -7 2 -15 -5
-9 -7 -13 -20 -10 -29 3 -11 0 -10 -10 3 -8 11 -15 15 -15 9 0 -6 -3 -18 -6
-26 -4 -11 4 -15 34 -15 40 -1 46 7 29 36 -5 7 -13 9 -19 6 -7 -5 -8 -2 -4 5
5 7 11 10 14 7 3 -3 11 -1 18 5 8 7 14 7 19 -1 4 -6 3 -9 -2 -8 -4 2 -8 -1 -8
-7 0 -5 4 -9 9 -7 5 2 4 -3 -3 -12 -16 -19 -7 -23 80 -37 41 -6 84 -18 96 -25
12 -8 47 -14 76 -14 46 0 55 -3 60 -20 3 -11 2 -22 -2 -24 -12 -8 -100 -10
-107 -3 -11 10 -34 -13 -34 -34 0 -12 -5 -16 -15 -13 -11 5 -15 -1 -15 -20 0
-26 -3 -27 -55 -30 -13 -1 -21 -9 -23 -23 -3 -18 -13 -24 -55 -33 -29 -5 -74
-11 -102 -12 -27 -1 -54 -5 -60 -9 -14 -10 -74 -22 -111 -23 -18 -1 -41 -9
-52 -19 -11 -10 -23 -17 -28 -15 -5 2 -20 -8 -33 -21 l-24 -24 28 7 c15 4 34
14 42 22 14 13 17 13 34 -2 10 -9 16 -21 12 -27 -3 -6 -1 -7 6 -3 14 9 8 -39
-8 -58 -7 -9 -7 -16 2 -25 10 -11 8 -11 -9 -3 -16 9 -21 8 -21 -3 0 -8 4 -12
9 -9 4 3 8 0 8 -6 0 -6 5 -8 11 -4 8 4 8 0 0 -15 -11 -20 -8 -25 12 -22 5 1 6
-3 2 -9 -5 -8 -11 -7 -21 1 -10 9 -14 9 -14 0 0 -6 7 -14 16 -18 13 -5 13 -8
2 -15 -9 -7 -6 -8 10 -5 13 3 21 3 18 0 -3 -3 -1 -15 5 -27 9 -19 9 -19 -4 -3
-8 9 -18 17 -22 17 -9 0 -34 -31 -35 -42 0 -5 5 -8 11 -8 5 0 7 5 4 10 -3 6
-3 10 1 10 9 0 33 -32 34 -45 0 -5 -4 -3 -10 5 -5 8 -12 11 -16 7 -4 -3 -1
-13 6 -22 11 -13 10 -15 -2 -10 -10 4 -14 -2 -14 -19 0 -14 4 -22 8 -20 5 3 6
9 3 14 -7 11 22 7 32 -5 4 -4 2 -5 -4 -1 -8 4 -13 1 -13 -9 0 -10 5 -13 12 -9
7 4 8 3 4 -4 -4 -7 -1 -12 6 -12 10 0 10 -2 -1 -9 -15 -10 -7 -31 13 -31 14 0
15 27 1 50 -4 8 -5 12 0 8 4 -4 13 -4 20 2 8 6 11 2 11 -15 0 -13 -4 -21 -8
-19 -12 8 -9 -8 7 -36 8 -14 14 -19 15 -11 0 11 4 9 14 -5 16 -21 37 -25 49
-9 4 5 6 0 4 -12 -2 -12 -6 -25 -9 -29 -11 -10 3 -34 16 -27 6 3 8 3 4 -2 -4
-4 -3 -14 2 -20 7 -9 6 -16 -5 -25 -12 -10 -13 -16 -3 -29 12 -14 11 -14 -5
-2 -15 12 -16 16 -3 30 13 14 12 19 -4 38 -9 12 -20 19 -24 16 -3 -4 1 -14 10
-24 12 -13 12 -19 3 -25 -7 -4 -10 -3 -5 4 3 6 1 14 -5 17 -7 5 -10 -2 -7 -21
2 -18 -2 -29 -12 -31 -13 -4 -13 -3 0 6 10 7 11 11 3 11 -9 0 -10 7 -4 23 4
12 6 28 4 35 -3 6 0 12 7 12 6 0 8 5 5 10 -4 6 -3 9 2 8 4 -2 8 1 8 7 0 17
-26 14 -33 -3 -3 -9 -12 -23 -19 -30 -11 -11 -13 -11 -13 0 0 7 -9 19 -20 26
-12 7 -18 18 -14 25 4 7 3 8 -1 4 -12 -10 -16 -39 -5 -32 10 6 41 -35 34 -46
-2 -4 -14 -6 -25 -4 -16 3 -18 1 -10 -9 6 -7 9 -15 6 -18 -3 -3 3 -11 12 -19
10 -7 15 -9 11 -5 -4 5 -3 15 3 23 6 7 8 13 4 13 -5 0 0 9 10 20 21 23 35 18
28 -11 -4 -16 -8 -17 -14 -7 -6 9 -9 9 -9 1 0 -6 4 -14 9 -17 10 -7 9 -25 -3
-44 -6 -10 -11 -10 -21 -2 -9 8 -15 8 -20 0 -3 -6 -10 -8 -14 -6 -4 3 -8 -1
-8 -9 0 -13 3 -13 17 0 22 20 39 1 33 -35 -3 -24 -3 -24 11 -5 9 13 11 24 5
31 -10 12 3 26 34 37 11 4 20 1 23 -8 4 -8 11 -12 18 -8 6 3 8 3 4 -2 -4 -4
-2 -15 4 -24 8 -10 4 -9 -10 3 -23 20 -31 9 -10 -12 14 -14 20 -45 8 -37 -5 3
-11 1 -15 -5 -4 -6 -11 -8 -16 -5 -5 4 -9 2 -9 -3 0 -16 13 -22 27 -11 7 6 13
8 13 4 0 -4 7 -2 15 5 8 7 13 16 10 20 -3 5 -1 11 4 14 13 8 8 -19 -7 -36 -6
-8 -8 -19 -4 -24 4 -4 -1 -2 -10 5 -10 7 -19 11 -19 7 -7 -36 -1 -55 12 -35 6
10 8 7 6 -8 0 -12 -5 -19 -9 -17 -4 3 -8 1 -8 -5 0 -21 16 -19 39 5 13 13 31
25 40 25 9 1 22 2 30 3 8 0 28 21 46 46 45 64 107 90 213 90 33 0 73 5 89 11
36 14 312 19 320 6 3 -6 6 -25 5 -43 -2 -41 25 -58 108 -68 30 -4 75 -16 99
-27 56 -25 74 -24 86 4 13 28 42 27 179 -3 72 -16 105 -19 121 -12 12 5 42 8
67 5 44 -5 46 -4 57 27 10 30 16 130 7 130 -2 0 -23 -7 -47 -15 -34 -12 -49
-13 -65 -4 -17 9 -27 8 -45 -5 -22 -14 -27 -14 -57 6 -29 18 -52 52 -52 76 0
4 15 8 33 8 17 1 50 7 72 14 22 7 60 13 85 12 143 -2 174 -2 178 2 10 11 -21
46 -42 46 -13 0 -29 7 -36 15 -7 8 -19 15 -26 15 -18 0 -18 19 0 39 8 9 12 21
8 28 -9 14 -82 -14 -82 -32 0 -6 -9 -20 -20 -30 -16 -14 -22 -15 -34 -5 -9 6
-18 20 -21 31 -18 56 -102 -25 -97 -93 2 -27 1 -28 -55 -29 -32 -1 -63 -1 -69
0 -6 1 -9 -11 -6 -29 4 -27 2 -30 -23 -30 -29 0 -64 34 -65 61 0 11 -21 25
-57 39 -32 13 -63 30 -70 38 -13 15 -59 42 -74 42 -20 0 -8 -41 15 -50 13 -5
28 -15 33 -23 4 -8 31 -22 58 -32 58 -21 85 -41 41 -31 -23 6 -27 4 -23 -9 4
-9 -5 -28 -21 -46 -25 -28 -30 -30 -55 -18 -32 14 -38 44 -7 34 24 -8 60 2 60
16 0 5 -29 23 -64 39 -36 16 -79 42 -97 59 -36 35 -43 37 -82 16 -19 -9 -43
-12 -77 -8 -46 5 -50 4 -50 -16 0 -16 -6 -21 -26 -21 -17 0 -40 -14 -67 -41
-23 -23 -51 -47 -62 -54 -24 -15 -108 -13 -148 3 -16 7 -32 12 -36 12 -15 0
-19 49 -5 68 7 10 14 31 16 47 l3 30 107 -3 c101 -4 106 -3 113 18 8 25 -7 45
-47 66 -37 19 -26 36 18 28 23 -4 34 -2 34 6 0 6 8 9 18 6 9 -3 24 -1 32 4 17
11 14 11 -47 14 -24 0 -43 -2 -43 -6 0 -4 -11 -7 -25 -6 -28 3 -41 24 -19 32
8 3 13 9 13 13 -4 17 14 43 29 43 13 0 12 3 -4 15 -27 21 -31 19 -44 -19 -10
-31 -16 -36 -56 -42 -28 -4 -50 -2 -56 4 -15 15 12 72 34 72 9 0 20 5 23 10 3
6 17 10 31 10 21 0 24 4 19 20 -8 25 4 48 15 29 6 -9 12 -10 22 -2 7 6 25 13
39 17 23 5 28 2 33 -20 4 -13 4 -30 0 -35 -7 -12 44 -69 62 -69 19 0 28 -20
15 -33 -6 -6 -11 -17 -11 -24 0 -8 15 -4 46 12 26 14 50 22 55 19 5 -3 12 2
15 10 4 10 19 16 40 16 32 0 33 2 28 29 -5 24 -2 30 16 36 28 9 34 2 21 -23
-14 -26 -6 -32 40 -32 45 0 44 12 -2 61 -28 30 -29 30 -61 15 -17 -9 -39 -14
-47 -11 -20 6 -45 60 -37 80 6 16 42 33 91 42 17 4 48 21 69 40 22 18 46 33
54 33 7 0 25 9 39 20 16 13 34 18 48 14 13 -3 32 -1 43 5 27 15 131 18 140 5
4 -6 34 -15 67 -18 134 -17 184 -35 135 -51 -21 -7 -26 -20 -11 -30 11 -6 61
37 61 53 0 21 21 24 35 6 13 -18 15 -18 54 4 24 14 49 21 60 17 15 -4 20 0 23
16 4 28 28 38 29 12 0 -10 3 -13 6 -5 2 6 13 12 24 12 17 0 18 3 7 20 -10 15
-10 22 -1 31 11 11 19 7 91 -52 14 -11 6 -33 -9 -24 -5 3 -6 -1 -3 -9 3 -9 10
-13 15 -10 5 3 6 -3 2 -13 -3 -10 -3 -15 1 -11 11 10 43 -25 38 -41 -3 -8 -1
-12 4 -9 5 4 10 -19 11 -50 3 -72 5 -82 14 -76 4 2 12 -4 18 -13 6 -10 11 -13
11 -7 0 6 -7 17 -15 24 -9 7 -14 19 -11 27 3 8 2 12 -2 9 -5 -3 -9 13 -9 36 0
24 3 35 7 28 5 -7 6 -19 3 -26 -9 -23 7 -36 25 -22 15 11 15 11 5 -3 -7 -9 -9
-20 -5 -24 4 -5 1 -5 -7 0 -9 5 -12 3 -9 -6 3 -8 11 -13 17 -12 6 2 10 0 10
-5 -4 -23 2 -52 12 -52 5 0 7 5 3 12 -4 7 -3 8 5 4 6 -4 9 -11 6 -16 -3 -5 -1
-11 4 -15 6 -3 7 -13 4 -22 -4 -11 -3 -14 5 -9 8 5 10 1 5 -10 -4 -11 -3 -15
4 -11 7 4 10 0 8 -10 -2 -10 -4 -24 -4 -31 -1 -7 -5 -11 -9 -8 -5 3 -9 -1 -9
-9 0 -8 5 -13 10 -12 5 1 11 -6 12 -16 2 -11 6 -22 9 -25 8 -8 2 30 -6 44 -4
6 -1 11 5 11 7 0 13 -10 14 -21 0 -12 4 -30 8 -40 5 -12 5 -17 -2 -13 -5 3
-10 0 -10 -7 0 -7 6 -13 13 -13 7 0 11 3 9 7 -2 3 1 12 7 20 8 13 9 12 5 -2
-3 -9 -3 -19 1 -22 3 -4 7 -19 9 -34 2 -23 1 -24 -6 -7 -5 11 -6 24 -4 28 3 5
-4 4 -14 -2 -11 -6 -24 -7 -29 -3 -5 4 -2 -1 5 -10 14 -19 26 -25 16 -8 -3 6
-2 10 3 10 15 0 21 -37 8 -51 -8 -9 -8 -10 1 -5 6 3 14 2 18 -4 4 -6 11 -7 17
-4 7 4 8 2 4 -5 -4 -6 -11 -9 -16 -6 -4 3 -10 -4 -13 -15 -3 -11 0 -23 5 -27
6 -3 8 -1 4 5 -3 6 -2 13 4 17 5 3 10 -3 10 -15 0 -12 4 -18 10 -15 6 3 7 -1
4 -10 -5 -13 -9 -13 -23 -3 -14 11 -14 11 -4 -3 7 -9 9 -20 5 -24 -4 -5 0 -5
8 0 12 6 13 5 3 -5 -8 -9 -9 -19 -3 -31 7 -12 6 -20 -2 -25 -6 -4 -8 -3 -5 3
3 5 -1 10 -9 10 -10 0 -8 -7 8 -25 13 -14 17 -22 9 -17 -11 6 -13 4 -8 -7 3
-9 0 -21 -6 -28 -9 -10 -9 -11 3 -6 8 4 6 0 -5 -10 -20 -16 -20 -16 5 -11 l25
6 -25 -20 c-16 -12 -18 -17 -7 -13 16 6 16 4 6 -20 -15 -32 -33 -29 -37 7 -2
18 -9 27 -21 27 -18 0 -51 -29 -51 -46 0 -12 48 -64 59 -64 5 0 12 -10 15 -22
7 -22 8 -22 15 -4 5 14 10 16 15 8 10 -16 -1 -32 -22 -33 -14 0 -13 -2 3 -9
18 -8 18 -9 -5 -9 -16 -1 -20 -4 -13 -9 7 -4 11 -17 10 -29 0 -12 -5 -20 -9
-17 -4 3 -5 12 -2 22 5 14 4 14 -4 3 -6 -8 -8 -21 -4 -29 3 -9 1 -13 -5 -9
-11 7 -11 -22 0 -39 3 -6 4 -24 0 -40 -3 -16 -6 -34 -6 -41 0 -7 -4 -10 -8 -7
-5 2 -4 17 2 32 8 20 7 24 -1 16 -6 -6 -13 -27 -14 -45 -2 -26 -7 -33 -20 -31
-11 2 -15 -1 -11 -7 3 -6 -1 -11 -9 -11 -8 0 -19 -7 -24 -16 -14 -24 -23 -14
-67 75 -22 44 -46 81 -52 81 -7 0 -25 19 -40 43 -15 23 -33 45 -39 49 -22 14
-94 115 -94 131 0 10 -4 17 -10 17 -5 0 -10 -9 -10 -20 0 -28 -24 -25 -40 5
-13 25 -30 34 -30 16 0 -8 36 -56 90 -120 11 -13 20 -29 20 -36 0 -6 13 -24
29 -39 16 -15 37 -48 46 -72 9 -24 21 -44 26 -44 5 0 15 -15 23 -34 8 -20 24
-37 38 -41 27 -9 74 -56 83 -85 5 -15 16 -20 48 -22 41 -1 41 -1 7 -5 -47 -6
-62 -20 -49 -44 9 -18 2 -24 -23 -20 -4 0 -4 -7 -1 -16 5 -12 3 -14 -8 -8 -11
7 -12 6 -2 -7 13 -15 8 -28 -11 -28 -6 0 -4 5 4 11 13 9 13 10 0 7 -8 -3 -18
-19 -22 -37 -6 -19 -13 -29 -20 -25 -6 4 -8 3 -4 -4 3 -6 2 -13 -4 -17 -5 -3
-10 -13 -10 -21 0 -8 4 -13 8 -10 5 3 9 -2 9 -10 0 -10 -4 -11 -11 -4 -15 15
-26 12 -19 -7 5 -12 3 -14 -8 -8 -8 4 -11 5 -7 0 4 -4 2 -15 -5 -23 -10 -13
-9 -14 3 -7 9 5 7 -1 -5 -15 -12 -14 -14 -20 -5 -15 12 7 13 6 3 -7 -7 -8 -9
-19 -5 -24 4 -4 0 -3 -9 4 -13 10 -19 9 -30 -5 -13 -16 -12 -17 4 -4 10 8 17
9 17 3 0 -6 -7 -15 -15 -20 -9 -4 -17 -19 -20 -32 -3 -13 -17 -36 -32 -50 -15
-14 -21 -18 -14 -8 9 13 9 18 0 24 -7 4 -9 3 -6 -3 3 -5 -7 -26 -24 -46 -16
-20 -29 -44 -27 -54 2 -14 -3 -18 -24 -17 -19 1 -25 -3 -21 -13 5 -12 7 -12
14 -1 6 9 9 9 9 1 0 -16 -17 -26 -25 -13 -4 6 -11 8 -16 4 -6 -4 -6 -10 1 -19
8 -10 6 -13 -7 -11 -13 1 -18 -6 -17 -21 0 -19 -2 -21 -14 -10 -13 10 -14 9
-2 -13 13 -24 12 -24 -5 -10 -11 9 -16 10 -11 3 4 -8 2 -13 -6 -13 -9 0 -9 -3
2 -10 10 -6 11 -10 2 -10 -6 0 -11 -6 -10 -12 2 -7 -3 -12 -9 -10 -7 1 -13 -3
-13 -10 0 -6 -3 -8 -7 -5 -8 9 -43 -22 -43 -38 0 -7 -8 -19 -17 -26 -16 -13
-17 -12 -4 4 8 9 12 20 9 23 -3 2 -13 -11 -22 -31 -9 -19 -23 -35 -30 -35 -8
0 -19 -14 -26 -31 -10 -22 -15 -27 -21 -17 -6 9 -9 7 -9 -8 0 -12 -8 -28 -17
-35 -10 -8 -14 -9 -10 -2 4 6 3 14 -3 18 -5 3 -10 -1 -10 -9 0 -9 -7 -16 -15
-16 -9 0 -19 -8 -22 -17 -4 -10 -11 -21 -17 -25 -7 -5 -7 -8 1 -8 8 0 4 -10
-9 -25 -15 -17 -25 -22 -33 -15 -13 11 -25 3 -25 -14 0 -6 5 -4 10 4 5 8 10
10 10 4 0 -18 -12 -24 -26 -13 -8 7 -14 7 -19 -1 -3 -5 -3 -10 0 -10 3 0 -1
-10 -9 -22 -9 -12 -16 -32 -16 -43 0 -16 -2 -17 -10 -5 -5 8 -7 22 -5 30 3 8
-14 39 -36 69 -28 37 -44 71 -52 110 -6 31 -26 79 -44 108 -33 51 -34 52 -18
88 8 21 15 46 15 56 0 11 9 27 20 37 18 15 20 24 14 72 -9 73 -43 138 -93 178
-46 37 -48 44 -24 118 l16 53 -26 25 c-24 22 -33 24 -76 19 -44 -5 -50 -3 -56
16 -3 12 -18 29 -31 38 -23 15 -31 15 -107 -1 -48 -9 -118 -15 -167 -14 -47 2
-98 -1 -115 -5 -26 -7 -40 -1 -112 50 -52 37 -82 65 -83 77 0 10 -15 36 -34
56 -29 32 -34 44 -31 76 2 21 -1 46 -6 56 -7 12 -6 25 2 39 9 17 8 20 -3 13
-10 -6 -11 -5 -2 7 15 20 10 89 -6 89 -5 0 -9 -3 -9 -7 3 -20 -2 -33 -12 -33
-8 0 -8 4 0 14 8 10 9 16 1 21 -5 3 -10 1 -10 -5 0 -6 -4 -8 -10 -5 -5 3 -7 0
-4 -8 3 -8 0 -18 -7 -23 -8 -5 -10 -3 -4 6 5 9 4 11 -4 6 -6 -4 -20 -2 -29 5
-15 12 -15 11 1 -7 14 -17 15 -23 5 -31 -24 -19 -100 -54 -105 -49 -10 10 -45
-15 -40 -28 3 -7 1 -19 -4 -27 -7 -11 -9 -11 -9 -1 0 10 -3 10 -15 -2 -8 -8
-15 -21 -15 -28 0 -10 3 -9 10 2 5 8 10 10 10 4 0 -20 -11 -22 -41 -7 -23 11
-27 18 -19 28 8 10 8 15 -2 21 -7 4 -10 4 -6 -1 11 -11 -12 -36 -25 -28 -6 3
-7 1 -3 -6 4 -6 11 -9 15 -7 4 3 18 -5 32 -17 14 -12 19 -18 12 -13 -7 5 -13
5 -13 1 0 -4 -7 -2 -16 5 -13 11 -19 10 -36 -8 l-21 -21 34 4 c26 4 29 3 14
-4 -11 -5 -16 -10 -11 -10 5 -1 3 -7 -3 -14 -6 -8 -8 -17 -4 -21 4 -4 0 -4
-10 0 -9 3 -17 10 -17 16 0 5 4 7 9 3 5 -3 12 -1 15 4 3 5 -5 11 -19 13 -14 3
-25 1 -25 -4 0 -5 -5 -6 -10 -3 -6 4 -7 12 -4 18 4 7 3 8 -2 4 -5 -5 -9 -14
-9 -20 0 -7 -5 -12 -12 -12 -7 0 -18 -7 -25 -15 -11 -12 -11 -12 5 -1 9 7 17
9 17 3 0 -11 -21 -30 -35 -31 -5 -1 -11 -5 -11 -11 -1 -5 -3 -12 -4 -15 -1 -3
-3 -11 -4 -17 -1 -7 -8 -12 -15 -10 -7 1 -15 -7 -18 -18 -3 -11 -9 -18 -12
-15 -7 4 -11 -10 -12 -47 0 -10 -5 -17 -12 -15 -6 1 -11 -3 -12 -10 0 -6 -3
-14 -7 -18 -4 -4 -4 -14 0 -23 5 -15 4 -15 -11 -3 -17 14 -22 8 -18 -25 2 -21
-63 -5 -107 26 -33 23 -40 26 -32 11 5 -11 36 -32 67 -47 32 -15 68 -37 79
-48 12 -12 33 -31 48 -43 37 -31 34 -66 -13 -128 -37 -49 -40 -58 -44 -131 -6
-121 -36 -174 -99 -174 -39 0 -42 -4 -38 -47 1 -24 -22 -98 -46 -145 -11 -22
-13 -33 -5 -41 16 -16 14 -37 -3 -37 -21 0 -14 -42 12 -74 12 -15 24 -36 27
-47 4 -10 13 -19 21 -19 11 0 9 10 -11 43 -26 45 -33 97 -14 97 7 0 9 9 6 22
-7 24 38 128 55 128 5 0 6 5 2 12 -5 7 -3 8 6 3 10 -6 12 -4 7 8 -3 9 1 21 11
29 13 11 14 11 7 -2 -5 -8 -10 -27 -12 -42 -3 -27 9 -35 42 -28 5 1 2 -7 -7
-17 -15 -17 -15 -21 2 -55 10 -21 16 -38 13 -38 -4 0 1 -8 10 -18 10 -10 14
-22 10 -27 -5 -4 -2 -5 5 -1 9 6 10 11 3 20 -8 9 -7 13 3 13 7 0 13 -10 12
-21 -1 -12 4 -20 11 -19 8 2 10 -4 6 -14 -5 -12 -3 -14 7 -8 8 5 11 4 6 -3 -3
-6 -2 -13 4 -17 6 -4 8 -10 5 -15 -3 -5 -2 -11 3 -14 5 -3 7 -18 6 -35 -1 -21
2 -28 11 -25 7 3 16 0 20 -5 3 -6 11 -8 17 -5 7 4 8 2 4 -5 -6 -9 -11 -9 -21
-1 -10 8 -15 8 -21 -1 -4 -8 -3 -9 4 -5 11 7 34 -31 36 -59 1 -5 12 -15 24
-21 17 -8 20 -13 10 -17 -12 -5 15 -11 35 -8 4 0 6 -2 6 -6 -3 -21 2 -44 9
-39 5 3 9 -1 9 -9 0 -20 -16 -8 -27 19 -4 13 -15 23 -24 23 -8 0 -13 -4 -10
-9 4 -5 8 -7 11 -4 11 11 43 -65 39 -89 -3 -15 -1 -23 5 -20 5 4 7 10 4 15 -3
5 -1 11 4 14 5 4 7 -6 5 -22 -4 -24 1 -34 31 -56 19 -15 35 -33 35 -40 0 -8 8
-20 18 -27 16 -13 16 -12 3 6 -7 11 3 2 24 -20 20 -22 41 -39 45 -38 5 1 4
-12 -1 -29 -5 -20 -5 -36 1 -43 15 -18 216 -120 305 -155 98 -38 260 -81 278
-74 8 3 20 -2 27 -11 13 -16 50 -21 50 -6 0 12 96 35 116 27 20 -8 13 -28 -11
-32 -10 -2 -30 -6 -44 -10 -24 -7 -23 -8 14 -16 22 -5 126 -11 230 -14 266 -9
445 18 695 103 110 38 247 109 255 132 3 11 15 23 26 26 10 4 31 17 47 29 15
13 59 45 97 71 387 263 675 701 769 1169 13 67 28 155 31 196 4 41 12 83 17
93 24 47 27 189 7 341 -57 428 -253 816 -565 1116 -110 106 -298 250 -310 237
-2 -2 5 -16 17 -30 18 -23 36 -107 23 -107 -17 0 -44 45 -60 102 -14 52 -21
64 -31 56 -10 -8 -13 -6 -13 5 0 9 -9 21 -20 27 -16 8 -20 8 -20 -4 0 -25 -21
-29 -43 -7 -61 57 -360 160 -552 191 -81 13 -295 26 -375 23z m-423 -108 c0
-8 -12 -25 -26 -37 -14 -13 -20 -16 -13 -7 6 9 8 19 4 23 -4 4 0 6 8 4 8 -1
15 3 16 10 4 27 11 32 11 7z m63 2 c0 -2 -10 -12 -22 -23 l-23 -19 19 23 c18
21 26 27 26 19z m-50 -31 c0 -2 -8 -10 -17 -17 -16 -13 -17 -12 -4 4 13 16 21
21 21 13z m1230 -103 c0 -9 -8 -12 -25 -9 -16 3 -28 -1 -35 -12 -6 -12 -9 -13
-10 -3 0 7 -6 11 -15 7 -19 -7 -20 10 -1 21 25 14 86 11 86 -4z m-115 -22 c0
-8 -6 -16 -12 -18 -7 -3 -13 0 -13 6 0 8 -6 7 -20 -1 -22 -14 -35 -6 -27 16 8
20 72 17 72 -3z m-310 -10 c3 -6 -1 -13 -8 -18 -7 -4 -16 -16 -20 -25 -8 -23
-35 -23 -60 -1 -18 17 -20 17 -37 -5 -18 -21 -60 -31 -60 -13 0 5 -11 12 -25
15 -16 4 -25 13 -25 25 0 17 8 20 56 20 31 0 58 2 62 5 9 10 110 7 117 -3z
m511 -32 c-30 -24 -34 -60 -8 -80 9 -8 15 -13 13 -11 -2 1 -13 -5 -23 -15 -10
-9 -18 -11 -18 -5 0 6 -9 9 -20 7 -16 -3 -20 2 -20 26 0 42 16 68 53 84 46 20
54 18 23 -6z m279 -127 c1 -12 -1 -22 -5 -22 -11 0 -41 36 -34 42 12 13 38 0
39 -20z m-1619 -37 c22 1 45 4 51 8 11 7 53 -28 53 -44 0 -15 -48 -30 -103
-32 -43 -2 -52 1 -73 28 -13 17 -24 35 -24 42 0 16 33 22 45 9 6 -7 28 -11 51
-11z m-311 -35 c-4 -22 5 -26 21 -10 7 7 11 6 11 -5 0 -8 -3 -13 -5 -10 -3 3
-11 0 -17 -5 -8 -7 -18 -3 -31 12 -10 12 -14 18 -8 15 7 -4 14 0 18 8 8 22 16
18 11 -5z m10 -139 c3 -5 2 -12 -3 -15 -5 -3 -9 1 -9 9 0 17 3 19 12 6z m11
-176 c-1 -8 -5 -18 -9 -21 -4 -4 1 -17 10 -28 18 -21 18 -21 -4 -2 -13 10 -19
24 -15 30 3 6 7 14 8 19 3 14 4 17 8 17 2 0 3 -7 2 -15z m2291 -20 c-4 -8 -2
-17 3 -20 6 -4 11 4 11 17 l2 23 4 -22 c2 -13 9 -23 14 -23 6 0 7 5 3 12 -5 7
-3 8 5 3 7 -4 11 -18 8 -31 -2 -14 0 -27 6 -31 5 -3 7 -2 4 3 -3 6 -2 16 4 24
7 13 9 12 9 -2 0 -10 4 -18 9 -18 5 0 14 -13 21 -30 7 -16 17 -30 22 -30 5 0
7 -4 4 -9 -3 -5 1 -11 9 -15 8 -3 15 -12 15 -21 0 -8 5 -15 11 -15 5 0 7 -4 4
-10 -3 -5 -1 -10 5 -10 6 0 8 -4 5 -10 -3 -5 -2 -10 3 -10 11 0 81 -155 111
-242 19 -57 27 -213 12 -236 -5 -8 -4 -31 1 -53 6 -22 7 -64 3 -96 l-8 -58
-22 80 c-12 44 -29 96 -37 115 -13 30 -30 101 -30 127 0 5 -5 14 -11 22 -9 12
-9 13 0 7 9 -5 11 -2 7 8 -3 9 -9 14 -13 11 -4 -2 -8 2 -8 10 0 8 5 11 11 8 6
-4 2 4 -9 17 -12 14 -14 20 -5 15 11 -6 10 -3 -2 11 -13 15 -15 23 -7 31 8 8
7 13 -2 18 -8 6 -10 4 -4 -5 5 -8 4 -11 -3 -6 -6 4 -8 14 -5 23 5 12 3 14 -8
8 -11 -7 -11 -5 1 10 8 10 10 16 4 12 -6 -3 -16 5 -23 19 -6 14 -7 23 -3 20 5
-3 9 1 9 9 0 8 -5 11 -10 8 -6 -4 -8 1 -4 11 4 10 3 15 -3 11 -6 -3 -10 -1
-10 5 0 7 -9 24 -19 38 -10 15 -19 29 -19 32 -2 15 -17 47 -29 62 -13 15 -13
16 3 14 9 -2 19 -13 21 -26 6 -38 12 -36 10 3 -1 19 -5 33 -9 31 -4 -3 -15 4
-25 15 -9 11 -20 18 -25 15 -4 -3 -5 3 -1 12 4 11 3 15 -5 10 -7 -4 -10 1 -7
14 2 11 0 22 -5 25 -5 3 -6 13 -3 23 6 15 5 16 -13 2 -14 -10 -16 -11 -7 0 10
11 10 17 0 29 -9 12 -9 13 1 7 6 -4 12 -2 12 3 0 6 3 11 6 11 3 0 4 -7 1 -15z
m-2270 -10 c0 -8 -4 -12 -9 -9 -5 3 -6 10 -3 15 9 13 12 11 12 -6z m848 -171
c5 -27 2 -41 -9 -52 -22 -23 -28 -10 -21 42 9 55 20 59 30 10z m-860 -73 c3
-5 2 -12 -3 -15 -5 -3 -9 1 -9 9 0 17 3 19 12 6z m139 -19 c3 -5 -1 -9 -9 -9
-8 0 -12 4 -9 9 3 4 7 8 9 8 2 0 6 -4 9 -8z m13 -69 c0 -9 -4 -10 -14 -2 -7 6
-13 12 -13 14 0 1 6 2 13 2 8 0 14 -6 14 -14z m4 -90 c13 -16 12 -17 -3 -4
-10 7 -18 15 -18 17 0 8 8 3 21 -13z m2035 -100 c-10 -10 -19 5 -10 18 6 11 8
11 12 0 2 -7 1 -15 -2 -18z m-27 -67 c-2 -2 -22 -7 -44 -11 -47 -9 -41 4 7 14
31 7 46 6 37 -3z m-2213 -101 c0 -13 -2 -22 -5 -20 -2 3 -11 -1 -20 -8 -14
-10 -14 -10 -3 5 8 9 9 19 4 22 -9 5 -27 -21 -24 -35 1 -3 -10 -4 -24 -1 -18
3 -22 7 -13 13 7 4 16 6 21 3 4 -2 12 5 18 16 6 11 15 18 20 15 5 -3 11 -1 15
5 9 15 11 13 11 -15z m29 16 c3 -5 2 -12 -3 -15 -5 -3 -9 1 -9 9 0 17 3 19 12
6z m2045 -5 c0 -2 -7 -9 -15 -16 -13 -11 -14 -10 -9 4 5 14 24 23 24 12z
m-2145 -58 c5 4 4 0 -1 -8 -5 -8 -9 -18 -9 -22 0 -3 -3 -9 -7 -13 -3 -4 -5 1
-4 12 5 28 -14 33 -50 11 -29 -17 -34 -18 -34 -5 0 9 5 19 12 23 7 4 8 3 4 -4
-10 -16 6 -15 29 2 13 9 25 11 36 5 9 -4 20 -5 24 -1z m90 3 c3 -5 2 -12 -3
-15 -5 -3 -9 1 -9 9 0 17 3 19 12 6z m-129 -36 c-1 -8 -8 -21 -16 -28 -11 -9
-11 -8 0 7 14 18 13 18 -10 12 l-25 -7 25 15 c14 9 26 15 27 16 1 0 0 -7 -1
-15z m-46 -45 c-6 -11 -13 -20 -16 -20 -2 0 0 9 6 20 6 11 13 20 16 20 2 0 0
-9 -6 -20z m-130 -24 c0 -2 -7 -7 -16 -10 -8 -3 -12 -2 -9 4 6 10 25 14 25 6z
m2957 -58 c-3 -7 -5 -2 -5 12 0 14 2 19 5 13 2 -7 2 -19 0 -25z m-2940 9 c0
-8 -6 -14 -14 -14 -9 0 -10 4 -2 14 6 7 12 13 14 13 1 0 2 -6 2 -13z m-82 -33
c0 -18 -4 -36 -8 -40 -4 -5 -5 -1 -2 9 4 9 0 23 -9 33 -18 17 -15 31 7 31 8 0
13 -12 12 -33z m-24 -37 c-5 -12 -13 -23 -20 -23 -22 -3 -23 -4 -12 -18 9 -11
9 -16 0 -22 -7 -4 -9 -3 -5 4 3 6 2 13 -3 16 -15 10 -32 -20 -27 -48 3 -14 1
-28 -3 -31 -5 -2 -8 3 -8 13 0 39 -3 53 -12 48 -4 -3 -7 -17 -6 -31 2 -14 -1
-23 -5 -20 -5 3 -10 -5 -12 -17 -2 -13 -9 -22 -16 -20 -10 2 -12 -7 -8 -29 2
-17 2 -28 -1 -25 -3 3 -14 1 -23 -4 -13 -7 -20 -5 -24 6 -5 12 -2 15 10 10 23
-9 37 3 24 19 -8 9 -8 15 0 20 6 3 7 12 3 18 -4 7 1 6 10 -2 16 -13 17 -11 16
15 -1 16 6 43 15 59 9 17 16 26 16 21 0 -5 7 -3 15 4 8 7 13 16 10 20 -3 5 -1
11 5 15 6 4 7 11 4 17 -4 6 -2 8 3 5 6 -4 16 0 23 8 18 22 41 1 31 -28z m2519
28 c0 -8 -40 -21 -85 -28 -40 -6 -39 -6 10 12 53 20 75 24 75 16z m-2500 -49
c0 -2 -8 -10 -17 -17 -16 -13 -17 -12 -4 4 13 16 21 21 21 13z m2023 -480
c-10 -13 -20 -22 -22 -20 -4 4 29 44 36 44 2 0 -4 -11 -14 -24z m441 -65 c10
-15 -37 -79 -67 -92 -15 -6 -40 -27 -57 -45 -16 -19 -32 -29 -35 -24 -10 16
14 49 47 66 36 19 88 73 88 91 0 15 16 17 24 4z m-630 -182 c-3 -5 -10 -7 -15
-4 -5 4 -9 1 -9 -6 0 -7 -3 -9 -6 -6 -9 9 16 38 27 31 5 -3 7 -10 3 -15z m496
-18 c0 -18 -58 -72 -65 -60 -4 6 5 24 21 40 28 29 44 37 44 20z m-2586 -89 c3
-5 -1 -9 -9 -9 -8 0 -12 4 -9 9 3 4 7 8 9 8 2 0 6 -4 9 -8z m2546 -2 c0 -5 -4
-10 -10 -10 -5 0 -10 5 -10 10 0 6 5 10 10 10 6 0 10 -4 10 -10z m-2520 -98
c0 -7 4 -11 9 -8 11 7 8 -20 -3 -31 -4 -4 -7 -3 -5 2 2 9 -10 45 -27 79 -3 6
2 2 10 -8 9 -11 16 -26 16 -34z m143 -259 c-4 -10 -2 -14 4 -10 7 4 10 0 9
-10 -2 -10 2 -22 8 -26 7 -6 7 -7 -2 -5 -8 2 -12 6 -10 9 2 3 -3 13 -10 22 -8
9 -11 21 -7 27 10 16 15 12 8 -7z m111 -239 c3 -8 2 -12 -4 -9 -6 3 -10 10
-10 16 0 14 7 11 14 -7z m987 -449 c0 -5 -9 -11 -21 -13 -20 -3 -27 8 -13 22
10 9 34 3 34 -9z"/>
<path d="M16427 3277 c-3 -9 -2 -19 4 -22 5 -4 7 -10 5 -14 -3 -4 5 -20 18
-36 16 -20 23 -23 23 -12 0 9 -4 14 -9 11 -4 -3 -9 0 -9 5 -3 26 -4 30 -11 37
-4 4 -2 14 5 22 8 11 8 14 0 9 -6 -4 -13 -2 -15 5 -3 8 -7 6 -11 -5z"/>
<path d="M16509 3108 c-10 -32 2 -61 15 -39 4 5 2 12 -4 16 -6 4 -8 11 -5 16
4 5 4 9 1 9 -3 0 -6 -1 -7 -2z"/>
<path d="M13692 2369 c2 -7 -2 -13 -9 -14 -14 0 -42 -25 -28 -25 4 0 0 -10
-11 -22 -12 -15 -8 -13 12 5 17 15 33 25 36 22 3 -3 8 3 11 15 3 11 1 23 -4
26 -5 3 -8 0 -7 -7z"/>
<path d="M14207 4013 c-16 -16 -4 -24 30 -21 21 2 38 9 41 18 4 12 2 13 -9 3
-10 -8 -20 -9 -29 -3 -18 12 -25 12 -33 3z"/>
<path d="M7995 3900 c-4 -6 -11 -8 -16 -4 -5 3 -9 2 -8 -3 1 -4 1 -15 0 -23
-1 -13 -2 -13 -11 0 -7 11 -10 11 -10 2 0 -7 -4 -11 -9 -7 -13 8 -34 -33 -27
-51 4 -9 2 -12 -5 -8 -6 3 -9 17 -6 30 2 14 1 27 -3 29 -5 3 -7 -13 -6 -35 1
-40 -11 -42 -17 -3 -2 13 -6 25 -10 29 -6 6 -1 -39 8 -63 2 -6 -4 -17 -13 -25
-15 -11 -15 -11 -6 2 17 21 -1 67 -20 51 -7 -6 -17 -7 -21 -3 -5 4 -6 2 -2 -3
3 -6 2 -17 -4 -25 -7 -13 -9 -13 -10 0 -1 8 -1 19 0 23 1 5 -3 6 -8 2 -6 -3
-7 -13 -4 -22 4 -11 3 -14 -5 -9 -18 11 -14 0 5 -15 14 -12 16 -12 8 0 -5 10
-4 12 4 7 6 -4 14 0 17 9 6 14 9 14 16 3 8 -10 9 -9 4 4 -3 10 -1 20 4 23 6 4
10 -3 10 -14 0 -11 -5 -23 -10 -26 -8 -5 -7 -12 2 -23 11 -15 10 -15 -8 0 -15
13 -23 15 -31 7 -13 -13 -6 -42 8 -33 5 3 6 11 3 17 -4 7 -3 8 2 4 5 -5 10
-13 10 -18 1 -5 2 -12 3 -15 0 -4 9 0 19 7 15 12 16 12 6 -1 -9 -13 -11 -45
-5 -91 0 -5 6 -7 11 -4 6 4 7 11 4 17 -4 6 -2 8 4 4 10 -6 7 -49 -5 -69 -3 -6
-1 -7 5 -3 6 3 14 2 17 -4 5 -8 12 -7 22 2 9 7 28 13 43 14 22 0 26 -3 22 -20
-4 -21 -4 -21 11 -1 15 20 16 20 14 0 -1 -11 3 -20 8 -20 6 0 15 -4 22 -8 6
-4 15 -2 19 4 5 8 3 9 -6 4 -8 -5 -11 -4 -6 3 4 7 -1 10 -14 7 -11 -2 -18 0
-15 5 4 7 34 7 43 0 1 -2 6 -3 11 -4 5 0 13 -5 18 -10 5 -5 2 -6 -6 -1 -10 5
-12 4 -7 -4 4 -6 13 -8 19 -4 17 10 57 12 63 2 2 -4 -4 -6 -16 -4 -11 2 -22 0
-25 -5 -3 -4 3 -7 12 -5 10 1 23 0 28 -4 21 -12 37 -10 26 3 -6 7 -9 15 -6 18
6 5 -29 124 -50 173 -47 107 -97 202 -81 153 3 -10 1 -20 -3 -23 -5 -3 -8 9
-7 25 1 17 -2 26 -6 22 -5 -5 -10 -18 -11 -30 -1 -17 -4 -19 -16 -9 -12 10
-14 9 -8 -5 3 -10 2 -20 -2 -22 -7 -5 -8 10 -2 49 1 6 6 3 12 -5 9 -13 10 -13
6 1 -3 9 0 22 6 28 6 6 8 11 5 11 -4 0 -10 -5 -13 -10z m-44 -49 c6 10 8 7 6
-8 -1 -18 -4 -20 -16 -10 -12 10 -14 9 -7 -8 5 -14 4 -17 -4 -9 -6 6 -7 19 -3
29 4 13 8 15 11 6 4 -11 6 -11 13 0z m-47 -272 c-6 -11 -24 -2 -24 11 0 5 7 7
15 4 8 -4 12 -10 9 -15z"/>
<path d="M13933 3855 c-8 -22 6 -33 17 -15 13 20 12 30 0 30 -6 0 -13 -7 -17
-15z"/>
<path d="M13892 3796 c1 -10 8 -17 13 -17 15 1 12 24 -3 29 -9 3 -13 -2 -10
-12z"/>
<path d="M7713 3773 c4 -3 1 -13 -6 -22 -11 -14 -10 -14 5 -2 16 12 16 31 1
31 -4 0 -3 -3 0 -7z"/>
<path d="M7742 3764 c-6 -12 -7 -26 -2 -34 4 -7 7 -21 5 -31 -2 -10 0 -21 5
-24 5 -3 7 3 5 15 -2 11 0 22 6 25 8 6 12 -7 12 -47 0 -9 5 -16 11 -15 5 1 10
-10 10 -26 -1 -21 2 -25 11 -17 9 8 15 8 20 0 3 -6 11 -7 17 -4 7 5 9 1 5 -9
-9 -24 0 -21 14 4 7 14 7 19 0 15 -14 -9 -28 23 -26 57 1 15 -4 32 -12 38 -10
9 -13 8 -13 -5 0 -10 3 -15 8 -13 4 3 7 -6 7 -18 0 -13 -3 -21 -6 -17 -10 11
-33 86 -30 97 1 6 -1 7 -5 3 -4 -4 -13 0 -19 9 -11 15 -13 15 -23 -3z m53 -76
c4 -15 11 -30 16 -33 5 -4 14 -16 19 -28 10 -20 10 -21 -3 -4 -8 10 -17 14
-19 10 -3 -4 -3 -3 -2 4 2 6 -4 17 -11 23 -8 7 -13 15 -11 19 2 3 -2 20 -9 36
-7 17 -14 23 -14 15 -1 -13 -3 -13 -10 -1 -5 8 -7 21 -4 28 7 18 40 -29 48
-69z"/>
<path d="M7715 3721 c-3 -5 -2 -12 3 -15 5 -3 9 1 9 9 0 17 -3 19 -12 6z"/>
<path d="M15979 3637 c14 -35 14 -50 1 -42 -15 9 -12 -1 4 -14 12 -10 14 -6
11 24 -2 21 -8 42 -15 49 -8 8 -9 4 -1 -17z"/>
<path d="M15500 3641 c0 -12 29 -35 36 -28 11 10 -5 37 -21 37 -8 0 -15 -4
-15 -9z"/>
<path d="M7750 3635 c0 -2 6 -8 13 -14 10 -8 14 -7 14 2 0 8 -6 14 -14 14 -7
0 -13 -1 -13 -2z"/>
<path d="M15234 3614 c-9 -13 -20 -21 -25 -18 -13 8 -49 -15 -49 -31 0 -8 10
-19 21 -26 l21 -11 -23 -24 c-40 -40 -43 -43 -69 -63 -39 -30 -16 -45 42 -27
33 9 50 10 57 3 7 -7 18 -7 36 3 14 7 23 15 20 18 -2 3 0 13 6 24 8 15 17 18
42 13 25 -5 28 -4 15 5 -9 6 -15 17 -12 25 7 18 55 20 72 3 15 -15 26 -4 18
17 -5 14 -14 15 -49 10 -23 -4 -49 -11 -57 -15 -23 -13 -50 8 -50 39 0 20 7
31 26 39 28 13 25 27 -6 35 -14 4 -25 -2 -36 -19z"/>
<path d="M13697 3583 c-2 -5 0 -21 4 -38 7 -29 7 -29 8 8 1 35 -3 46 -12 30z"/>
<path d="M14073 3569 c-2 -23 3 -25 10 -4 4 8 3 16 -1 19 -4 3 -9 -4 -9 -15z"/>
<path d="M7924 3565 c3 -23 12 -26 13 -5 1 11 -2 20 -7 20 -4 0 -7 -7 -6 -15z"/>
<path d="M7951 3564 c0 -11 3 -14 6 -6 3 7 2 16 -1 19 -3 4 -6 -2 -5 -13z"/>
<path d="M13654 3453 c4 -7 2 -22 -4 -33 -6 -11 -7 -20 -2 -20 15 0 23 44 10
55 -8 7 -9 6 -4 -2z"/>
<path d="M14036 3435 c-3 -10 -11 -13 -18 -9 -10 6 -11 5 -1 -8 7 -8 11 -18 8
-21 -3 -4 -2 -4 3 -1 4 3 7 9 7 12 0 4 4 13 9 20 4 7 6 15 3 18 -2 3 -7 -2
-11 -11z"/>
<path d="M16083 3425 c0 -8 4 -12 9 -9 5 3 6 10 3 15 -9 13 -12 11 -12 -6z"/>
<path d="M14046 3398 c-15 -30 -15 -31 2 -15 10 10 19 24 19 32 0 21 -4 19
-21 -17z"/>
<path d="M16070 3393 c0 -6 5 -15 10 -18 6 -4 8 -10 5 -15 -3 -4 2 -7 10 -6
18 3 19 10 6 34 -8 13 -10 14 -11 2 0 -13 -1 -13 -10 0 -6 9 -10 10 -10 3z"/>
<path d="M13990 3297 c0 -2 6 -10 14 -16 11 -9 16 -9 22 1 4 7 4 10 -1 6 -4
-4 -14 -3 -22 3 -7 6 -13 9 -13 6z"/>
<path d="M15984 3282 c4 -7 -3 -17 -18 -24 -14 -6 -26 -16 -26 -23 0 -25 26
-64 56 -85 28 -19 32 -26 27 -55 -6 -36 0 -42 57 -62 59 -21 73 16 23 65 -17
18 -17 32 1 32 24 0 29 20 10 35 -16 11 -20 10 -31 -4 -11 -14 -12 -13 -13 7
0 19 -4 22 -20 17 -25 -8 -38 20 -22 46 16 26 15 49 -2 49 -8 0 -22 3 -32 7
-12 4 -15 3 -10 -5z"/>
<path d="M14025 3251 c-3 -5 -1 -13 5 -16 8 -5 7 -12 -2 -23 -12 -15 -11 -16
5 -3 14 11 15 16 5 29 -11 13 -10 15 5 9 11 -4 16 -3 12 3 -8 13 -22 13 -30 1z"/>
<path d="M1520 3229 c-128 -12 -334 -47 -395 -67 -41 -14 -53 -24 -68 -54 -25
-51 -16 -98 18 -98 14 0 93 11 177 25 84 13 232 31 328 40 166 14 176 16 198
41 26 30 29 85 6 108 -18 18 -102 19 -264 5z"/>
<path d="M2802 3228 c-20 -20 -15 -91 8 -116 12 -12 24 -22 28 -22 57 0 378
-36 511 -57 171 -27 173 -27 187 -8 18 25 9 72 -19 103 -26 28 -84 45 -239 71
-227 37 -454 51 -476 29z"/>
<path d="M14080 3193 c0 -5 5 -15 10 -23 7 -12 9 -10 7 8 -1 19 -17 33 -17 15z"/>
<path d="M14133 3165 c0 -27 12 -34 20 -11 3 8 0 19 -7 25 -11 9 -13 6 -13
-14z"/>
<path d="M14166 3163 c-3 -3 -6 -16 -5 -27 0 -15 2 -17 6 -6 3 8 10 18 16 21
6 4 6 9 -1 12 -5 4 -12 4 -16 0z"/>
<path d="M14094 3102 c4 -3 14 -7 22 -8 9 -1 13 0 10 4 -4 3 -14 7 -22 8 -9 1
-13 0 -10 -4z"/>
<path d="M14076 3081 c-3 -5 2 -15 12 -22 15 -12 16 -12 5 2 -7 9 -10 19 -6
22 3 4 4 7 0 7 -3 0 -8 -4 -11 -9z"/>
<path d="M14093 3027 c0 -8 6 -14 14 -14 9 0 10 4 2 14 -6 7 -12 13 -14 13 -1
0 -2 -6 -2 -13z"/>
<path d="M14210 3000 c0 -5 -6 -9 -12 -7 -7 1 -12 -4 -10 -12 1 -7 -2 -19 -7
-25 -9 -11 -18 -41 -20 -70 -1 -5 -4 -6 -8 -2 -7 6 -12 31 -15 73 -2 17 -5 20
-15 11 -10 -8 -10 -14 2 -31 18 -26 19 -41 3 -31 -7 4 -10 3 -5 -1 4 -5 0 -19
-8 -32 -9 -13 -13 -28 -10 -33 3 -5 1 -12 -5 -15 -8 -5 -8 -11 -1 -19 6 -7 7
-17 3 -21 -4 -5 -1 -5 6 -1 6 4 12 2 12 -3 0 -6 -4 -11 -10 -11 -5 0 -10 -5
-10 -11 0 -8 4 -9 13 0 8 6 17 8 21 4 4 -4 4 0 0 10 -3 10 -1 17 6 17 6 0 8 5
5 10 -3 6 0 10 7 10 10 0 9 3 -2 9 -19 13 -31 4 -23 -17 6 -15 5 -15 -10 -3
-12 9 -14 17 -7 26 5 6 7 15 4 18 -3 3 1 15 9 27 8 12 18 17 21 11 4 -5 2 -12
-4 -16 -5 -3 -10 -11 -10 -18 0 -6 11 4 25 23 22 29 31 28 26 -2 0 -5 5 -8 13
-8 25 0 17 -60 -9 -72 -12 -5 -22 -17 -22 -25 0 -13 3 -12 14 3 7 10 13 15 13
11 0 -4 8 0 19 10 18 18 22 48 7 71 -4 6 -4 12 0 12 4 0 -1 9 -10 19 -17 19
-14 47 4 36 4 -3 13 1 19 9 9 10 8 16 -4 26 -9 7 -13 21 -10 31 4 11 4 19 1
19 -3 0 -6 -4 -6 -10z m9 -58 c0 -14 -2 -13 -9 3 -5 11 -9 15 -9 9 -1 -5 -8
-19 -16 -30 -14 -16 -14 -15 0 14 16 33 36 35 34 4z"/>
<path d="M14090 2895 c5 -7 6 -16 2 -21 -4 -5 -3 -5 2 -1 15 12 15 34 0 34 -9
0 -11 -4 -4 -12z"/>
<path d="M14074 2856 c1 -8 5 -18 8 -22 4 -3 5 1 4 10 -1 8 -5 18 -8 22 -4 3
-5 -1 -4 -10z"/>
<path d="M14182 2834 c-7 -8 -10 -19 -6 -26 5 -7 10 -3 16 12 10 28 7 33 -10
14z"/>
<path d="M14044 2822 c4 -3 14 -7 22 -8 9 -1 13 0 10 4 -4 3 -14 7 -22 8 -9 1
-13 0 -10 -4z"/>
<path d="M14033 2789 c-2 -23 3 -25 10 -4 4 8 3 16 -1 19 -4 3 -9 -4 -9 -15z"/>
<path d="M14060 2795 c0 -2 6 -8 13 -14 10 -8 14 -7 14 2 0 8 -6 14 -14 14 -7
0 -13 -1 -13 -2z"/>
<path d="M14060 2762 c9 -19 30 -23 30 -5 0 4 -3 3 -7 0 -3 -4 -12 1 -20 11
-13 15 -13 15 -3 -6z"/>
<path d="M14021 2746 c-8 -10 -9 -16 -1 -21 6 -4 9 -2 8 3 -2 6 1 12 6 14 5 1
10 -7 11 -19 1 -13 4 -26 8 -29 3 -3 5 6 3 20 -4 36 -20 51 -35 32z"/>
<path d="M14123 2732 c-7 -4 -9 -13 -5 -19 5 -8 11 -7 19 3 14 15 3 27 -14 16z"/>
<path d="M14083 2714 c-8 -8 -9 -15 -3 -19 6 -3 10 0 10 7 0 9 3 9 10 -2 5 -8
10 -10 10 -5 0 23 -15 33 -27 19z"/>
<path d="M14004 2702 c23 -26 23 -26 23 -7 0 8 -3 13 -5 10 -3 -3 -12 1 -21 7
-10 8 -9 4 3 -10z"/>
<path d="M13973 2685 c0 -8 4 -12 9 -9 5 3 6 10 3 15 -9 13 -12 11 -12 -6z"/>
<path d="M13949 2688 c-5 -18 -6 -38 -1 -34 7 8 12 36 6 36 -2 0 -4 -1 -5 -2z"/>
<path d="M1422 2670 c-86 -20 -131 -137 -82 -217 38 -64 152 -67 199 -6 86
109 11 252 -117 223z"/>
<path d="M3094 2669 c-97 -28 -112 -176 -24 -241 60 -43 155 -27 185 33 56
108 -46 240 -161 208z"/>
<path d="M13994 2653 c2 -10 -2 -25 -8 -33 -9 -13 -9 -13 6 -2 16 12 18 35 6
48 -4 3 -5 -2 -4 -13z"/>
<path d="M13894 2646 c1 -8 5 -18 8 -22 4 -3 5 1 4 10 -1 8 -5 18 -8 22 -4 3
-5 -1 -4 -10z"/>
<path d="M13961 2647 c-8 -10 -7 -14 2 -14 8 0 14 6 14 14 0 7 -1 13 -2 13 -2
0 -8 -6 -14 -13z"/>
<path d="M13923 2635 c0 -8 4 -12 9 -9 5 3 6 10 3 15 -9 13 -12 11 -12 -6z"/>
<path d="M13906 2593 c-6 -14 -5 -15 5 -6 7 7 10 15 7 18 -3 3 -9 -2 -12 -12z"/>
<path d="M13845 2550 c-2 -3 0 -11 4 -18 5 -8 10 -6 18 7 9 14 8 18 -3 18 -8
0 -17 -3 -19 -7z"/>
<path d="M13754 2491 c8 -12 -19 -33 -29 -23 -5 4 -5 1 -1 -6 6 -11 12 -10 27
4 16 14 18 34 3 34 -3 0 -3 -4 0 -9z"/>
<path d="M13281 2320 c0 -19 3 -42 9 -50 15 -24 17 -8 4 40 -12 45 -12 45 -13
10z"/>
<path d="M13316 2237 c3 -10 9 -15 12 -12 3 3 0 11 -7 18 -10 9 -11 8 -5 -6z"/>
<path d="M13523 2205 c0 -8 4 -12 9 -9 5 3 6 10 3 15 -9 13 -12 11 -12 -6z"/>
<path d="M2173 2161 c-49 -23 -63 -45 -63 -103 0 -51 45 -136 88 -167 75 -53
132 -49 200 13 56 51 82 103 82 161 0 81 -59 115 -195 115 -47 0 -84 -7 -112
-19z"/>
<path d="M5599 2146 c7 -8 21 -13 33 -11 14 3 18 0 14 -11 -3 -9 -2 -12 5 -9
6 4 8 13 5 20 -3 9 2 12 15 10 10 -2 19 0 19 6 0 13 -34 11 -48 -3 -9 -9 -12
-9 -12 3 0 12 -2 12 -10 -1 -6 -10 -10 -11 -10 -2 0 6 -5 12 -11 12 -8 0 -8
-4 0 -14z"/>
<path d="M5696 2143 c-11 -28 -6 -35 12 -16 9 10 14 14 10 9 -15 -19 -8 -28 9
-15 9 8 14 9 10 3 -4 -7 3 -15 16 -19 35 -12 41 -12 59 -3 12 6 20 3 27 -9 8
-13 10 -14 11 -4 0 11 4 10 16 -5 8 -10 13 -13 9 -6 -4 7 0 12 10 12 9 0 14
-4 11 -9 -7 -10 20 -9 30 2 4 4 15 0 25 -9 12 -11 19 -12 24 -4 5 8 12 5 22
-7 8 -10 12 -12 8 -5 -4 7 0 12 10 12 10 0 13 -5 9 -12 -5 -9 -2 -9 9 1 14 11
17 11 17 0 0 -11 2 -11 10 1 5 8 10 10 10 3 0 -6 8 -10 18 -9 9 2 20 -2 24 -8
5 -7 8 -6 8 3 0 11 4 10 16 -5 8 -10 13 -13 9 -6 -3 6 -1 12 4 12 6 0 11 -6
11 -12 0 -9 4 -8 10 2 9 13 10 13 10 0 0 -13 1 -13 10 0 6 9 10 10 10 3 0 -6
9 -10 20 -8 11 2 20 -2 20 -8 0 -7 4 -6 10 3 8 12 10 12 11 -5 0 -11 3 -14 6
-7 4 10 8 10 21 0 10 -8 13 -9 9 -1 -8 13 18 12 30 -2 4 -4 2 -5 -6 0 -10 6
-12 4 -6 -4 5 -8 11 -9 17 -3 11 11 50 4 43 -7 -2 -4 2 -8 10 -8 8 0 12 4 10
8 -7 10 22 5 32 -6 4 -4 2 -5 -6 0 -10 6 -12 4 -7 -4 6 -9 11 -9 21 -1 10 8
16 7 24 -7 6 -10 11 -12 11 -5 0 6 5 12 11 12 5 0 7 -6 3 -12 -6 -10 -4 -10 8
0 13 10 18 10 24 1 5 -8 3 -9 -6 -4 -9 5 -11 4 -6 -4 4 -6 13 -8 19 -4 18 11
36 12 42 3 3 -5 -4 -7 -15 -5 -11 2 -18 0 -15 -5 4 -6 40 -7 40 0 0 1 8 3 18
5 9 2 15 0 12 -5 -3 -4 2 -11 11 -14 12 -5 15 -2 10 9 -3 9 -2 13 4 10 6 -3
10 -14 11 -23 0 -14 2 -13 9 3 l9 20 1 -20 1 -20 9 20 c8 19 9 19 9 1 1 -20 1
-20 15 0 14 18 15 18 25 -6 5 -14 10 -19 10 -12 1 6 5 12 11 12 5 0 7 -8 3
-17 -5 -15 -3 -14 10 2 9 11 17 16 17 11 0 -5 6 -3 13 3 10 8 14 7 14 -3 0 -8
-8 -13 -19 -11 -11 2 -16 0 -12 -6 3 -6 9 -8 12 -5 3 3 12 0 20 -7 11 -8 14
-8 9 0 -4 6 -3 14 3 18 6 4 7 12 4 18 -4 7 -3 8 2 4 5 -5 9 -16 9 -25 0 -10 9
-16 28 -17 30 -2 33 4 15 24 -11 11 -10 12 0 6 7 -4 17 -17 22 -29 8 -20 9
-20 10 -1 0 17 2 17 10 5 7 -11 10 -12 10 -2 0 10 3 10 15 -1 11 -12 50 -17
50 -7 0 7 36 6 41 -1 3 -6 12 -5 20 2 9 7 14 8 13 3 -1 -5 -1 -16 1 -24 1 -11
4 -9 10 5 8 19 9 19 9 1 1 -11 4 -16 8 -13 3 4 13 1 21 -6 9 -6 13 -7 10 -2
-10 17 16 34 29 19 7 -6 9 -14 6 -17 -2 -3 3 -4 14 -3 10 2 22 -2 26 -8 6 -7
7 -6 4 4 -2 8 -9 14 -14 13 -5 -1 -10 5 -10 13 0 12 3 12 17 -1 13 -12 19 -12
30 -2 12 10 12 9 1 -5 -10 -13 -10 -18 -2 -18 7 0 9 -5 5 -12 -5 -7 -3 -8 7
-2 13 8 19 10 53 17 8 2 20 8 28 14 11 10 14 8 15 -10 2 -15 0 -18 -6 -8 -6 9
-11 10 -15 2 -4 -6 -11 -9 -16 -6 -5 3 -11 1 -15 -4 -3 -6 6 -8 21 -5 18 3 23
1 18 -7 -5 -8 -3 -9 7 -3 24 15 41 14 35 -2 -4 -9 -2 -12 5 -8 6 3 9 15 6 25
-3 10 -1 22 4 25 5 3 9 2 8 -3 -1 -4 -1 -17 1 -28 l1 -20 9 20 9 20 0 -20 c1
-16 3 -17 10 -5 6 8 7 19 3 25 -3 5 2 3 13 -5 10 -8 21 -14 24 -12 3 2 8 -5
12 -15 7 -17 8 -17 9 2 1 19 2 19 10 -1 9 -22 32 -43 29 -27 -1 4 -1 15 0 23
1 13 3 13 10 0 6 -8 7 -19 3 -25 -3 -6 0 -6 9 1 8 6 22 10 31 9 10 -2 20 1 23
5 3 5 -4 7 -15 5 -11 -2 -18 0 -15 5 6 9 31 8 41 -3 4 -4 17 1 28 10 15 14 18
14 8 2 -6 -9 -8 -20 -4 -24 4 -5 2 -5 -5 -2 -13 8 -12 -18 2 -30 4 -4 6 -3 2
2 -3 6 2 19 10 30 15 19 15 19 8 -5 -5 -19 -4 -21 4 -10 10 14 16 7 12 -14 -1
-5 5 -4 13 4 13 10 16 10 16 -1 0 -12 2 -12 9 -1 11 18 20 17 35 -3 11 -15 12
-14 12 3 0 13 -6 19 -17 17 -17 -3 -20 17 -5 32 4 4 6 1 4 -7 -1 -8 3 -15 10
-16 6 -1 14 -3 17 -4 3 -1 13 -3 23 -4 9 -1 23 -5 31 -10 11 -7 13 -5 8 10 -7
18 -7 18 8 0 14 -18 20 -15 16 8 -1 5 5 4 13 -3 8 -7 12 -19 9 -27 -3 -9 0
-14 8 -12 8 2 13 -4 11 -12 -3 -12 -1 -12 9 -3 10 10 15 9 26 -5 12 -16 12
-15 6 3 l-6 20 23 -20 c13 -11 20 -14 15 -6 -5 9 -3 12 6 9 8 -3 13 -11 11
-17 -1 -7 8 -4 22 6 13 10 22 22 19 27 -3 4 -9 2 -14 -5 -6 -10 -8 -7 -6 8 1
22 2 22 22 4 11 -10 28 -17 37 -16 10 2 20 0 23 -5 2 -4 -9 -6 -25 -5 -18 2
-35 -4 -42 -14 -11 -14 -11 -14 4 -3 11 9 18 10 23 2 5 -8 10 -8 20 0 10 8 16
7 24 -7 7 -12 10 -13 11 -4 0 10 3 11 14 2 16 -14 41 11 31 31 -4 7 -1 6 7 -2
17 -20 74 -19 70 1 -2 8 0 10 4 6 20 -20 11 -34 -20 -32 -20 2 -33 -2 -33 -10
0 -6 6 -12 13 -12 7 0 10 5 7 10 -3 5 0 8 8 5 8 -3 14 -10 14 -15 0 -6 4 -15
9 -20 5 -4 6 -3 3 3 -4 7 1 18 10 25 15 12 16 12 10 -6 -6 -17 -4 -17 9 3 9
12 23 22 30 22 8 0 14 3 15 8 6 43 4 62 -5 62 -8 0 -8 2 0 8 14 9 24 71 12 78
-5 3 -5 11 -1 17 18 29 22 131 6 153 -7 9 -10 21 -6 27 3 6 1 7 -6 3 -6 -4 -9
-11 -6 -16 3 -5 1 -11 -4 -14 -5 -4 -8 4 -7 17 2 13 -2 24 -9 24 -7 0 -10 -9
-7 -21 5 -19 3 -19 -17 4 -12 14 -20 19 -16 13 4 -9 -2 -13 -17 -13 -13 0 -29
-5 -35 -11 -8 -8 -13 -8 -17 0 -4 6 -12 11 -18 11 -6 0 -5 -7 3 -17 13 -16 12
-17 -3 -4 -10 7 -16 17 -13 21 3 5 0 12 -6 16 -8 4 -9 3 -5 -4 4 -7 2 -12 -4
-12 -6 0 -8 -5 -4 -12 4 -7 3 -8 -5 -4 -6 4 -9 11 -6 16 3 5 0 12 -6 16 -8 4
-9 3 -5 -4 4 -7 2 -12 -5 -12 -8 0 -7 -5 2 -17 13 -16 12 -17 -3 -4 -10 7 -16
17 -13 21 3 5 0 12 -6 16 -8 4 -9 3 -5 -4 4 -7 2 -12 -4 -12 -6 0 -8 -5 -4
-12 4 -7 3 -8 -5 -4 -6 4 -9 11 -6 16 3 5 0 12 -6 16 -8 4 -9 3 -5 -4 4 -7 2
-12 -4 -12 -6 0 -8 -6 -4 -12 4 -8 3 -10 -2 -5 -5 5 -9 13 -9 18 0 5 -4 9 -10
9 -5 0 -10 -4 -10 -10 0 -12 -14 -15 -23 -4 -4 4 -1 4 5 0 9 -5 11 -2 7 9 -6
14 -9 13 -21 -5 -10 -14 -19 -18 -26 -12 -7 5 -20 8 -30 7 -9 -2 -15 1 -12 5
3 5 0 12 -6 16 -8 4 -9 3 -5 -4 4 -7 2 -12 -4 -12 -6 0 -8 -5 -4 -12 4 -7 3
-8 -5 -4 -6 4 -9 11 -6 16 3 5 1 11 -4 14 -5 4 -13 1 -17 -5 -5 -8 -3 -9 6 -4
8 5 11 4 6 -3 -4 -6 -14 -8 -23 -5 -12 5 -14 3 -8 -7 6 -10 4 -11 -6 -4 -22
13 -110 13 -102 0 5 -8 3 -8 -8 0 -17 12 -48 12 -68 0 -10 -6 -12 -5 -7 2 8
14 -20 12 -43 -2 -10 -6 -12 -5 -7 2 10 16 -7 15 -23 0 -8 -7 -11 -8 -8 -3 3
6 2 17 -4 25 -7 13 -9 12 -9 -2 0 -9 -4 -19 -9 -22 -5 -4 -7 4 -4 16 5 23 5
23 -10 3 -15 -19 -16 -19 -22 -2 -7 17 -8 17 -20 0 -13 -17 -14 -17 -20 0 -7
17 -8 17 -20 0 -13 -17 -14 -17 -21 0 -5 14 -9 15 -15 6 -10 -16 -39 -21 -33
-5 3 7 -10 11 -37 12 -22 1 -35 -2 -29 -6 8 -5 4 -9 -10 -13 -14 -3 -23 0 -27
10 -5 12 -7 12 -14 1 -7 -10 -9 -10 -9 2 0 13 -1 13 -10 0 -8 -13 -10 -13 -10
-1 0 11 -4 10 -13 -4 -11 -14 -16 -15 -22 -5 -5 9 -4 11 3 6 7 -4 12 -2 12 3
0 15 -13 14 -29 -1 -11 -10 -13 -10 -7 0 4 6 3 12 -3 12 -5 0 -12 -6 -14 -12
-4 -10 -6 -10 -6 0 -1 6 -6 12 -12 12 -5 0 -7 -6 -3 -12 5 -8 0 -7 -11 2 -11
8 -16 10 -11 3 5 -9 2 -11 -8 -7 -9 3 -13 10 -10 15 3 5 -2 6 -10 3 -9 -3 -13
-11 -9 -18 3 -6 1 -6 -8 2 -20 18 -33 15 -18 -5 13 -16 12 -17 -3 -4 -10 7
-18 10 -18 6 0 -4 -6 -3 -12 2 -21 16 -50 12 -43 -6 5 -13 4 -13 -12 1 -20 17
-42 14 -60 -10 -11 -13 -13 -13 -13 -1 0 12 -2 12 -10 -1 -9 -13 -10 -13 -10
0 0 13 -1 13 -10 0 -9 -13 -10 -13 -10 0 0 13 -1 13 -10 0 -7 -11 -10 -11 -10
-2 0 7 -5 10 -10 7 -6 -4 -7 -11 -4 -17 4 -7 2 -8 -5 -4 -6 4 -9 11 -6 16 3 5
1 11 -4 14 -5 4 -13 1 -17 -5 -5 -8 -3 -9 6 -4 9 5 11 4 6 -4 -6 -8 -12 -9
-20 -2 -9 7 -17 7 -26 -2 -9 -8 -11 -9 -6 0 3 6 1 15 -5 19 -7 4 -9 3 -5 -4 3
-6 2 -13 -4 -17 -5 -3 -10 -1 -10 5 0 7 -7 7 -22 -1 -21 -11 -22 -11 -9 4 17
21 8 22 -13 1 -9 -8 -16 -11 -16 -5 0 15 -27 14 -33 -1 -4 -10 -6 -10 -6 0 -1
6 -10 12 -22 12 -13 0 -18 -4 -14 -12 4 -7 0 -5 -7 4 -13 15 -15 15 -26 0 -7
-9 -10 -12 -7 -5 3 6 1 14 -5 18 -5 3 -10 0 -10 -7 0 -8 -3 -9 -8 -3 -4 6 -20
11 -37 12 -16 1 -64 4 -105 7 -153 11 -190 15 -201 22 -8 5 -9 3 -4 -6 5 -9 4
-11 -4 -6 -19 12 -86 19 -271 31 -52 4 -114 8 -137 9 -30 3 -43 -1 -47 -11z
m86 -28 c3 0 9 -3 13 -7 4 -3 0 -5 -9 -4 -9 1 -22 8 -29 16 -10 10 -9 11 3 4
8 -5 18 -9 22 -9z m1558 -21 c0 -8 -19 -13 -24 -6 -3 5 1 9 9 9 8 0 15 -2 15
-3z m-487 -167 c3 -8 -1 -14 -8 -14 -7 0 -11 6 -8 14 3 7 6 13 8 13 2 0 5 -6
8 -13z m123 -19 c3 -4 -1 -5 -10 -4 -8 1 -18 5 -22 8 -3 4 1 5 10 4 8 -1 18
-5 22 -8z m144 -14 c0 -8 -19 -13 -24 -6 -3 5 1 9 9 9 8 0 15 -2 15 -3z m152
-16 c-14 -14 -44 -20 -36 -7 3 5 9 7 14 4 5 -3 11 -1 15 5 3 5 9 10 13 10 3 0
1 -5 -6 -12z m235 -33 c-7 -13 -14 -20 -15 -14 -2 5 2 16 8 24 18 21 20 18 7
-10z m36 -10 c-7 -21 -12 -19 -10 4 0 11 5 18 9 15 4 -3 5 -11 1 -19z m134
-17 c2 -17 0 -19 -7 -8 -5 8 -6 18 -4 22 8 12 10 10 11 -14z m240 -30 c2 -17
0 -19 -7 -8 -5 8 -6 18 -4 22 8 12 10 10 11 -14z m-23 -4 c3 -8 2 -12 -4 -9
-6 3 -10 10 -10 16 0 14 7 11 14 -7z m72 4 c5 4 8 6 7 3 -1 -2 2 -13 8 -25 9
-19 9 -19 -4 -4 -10 13 -16 15 -25 6 -7 -7 -12 -10 -13 -7 0 2 -2 12 -4 22 -3
13 0 15 9 8 7 -6 17 -7 22 -3z m320 -13 c1 -8 -1 -17 -5 -19 -4 -3 -7 6 -7 19
0 25 8 25 12 0z m-187 8 c-3 -20 2 -34 10 -28 5 3 12 1 15 -4 4 -5 2 -12 -3
-15 -5 -4 -12 -2 -16 4 -4 6 -10 8 -14 6 -6 -4 -7 26 -2 42 2 6 11 1 10 -5z
m154 -38 c-7 -21 -12 -19 -10 4 0 11 5 18 9 15 4 -3 5 -11 1 -19z"/>
<path d="M5671 2124 c0 -11 3 -14 6 -6 3 7 2 16 -1 19 -3 4 -6 -2 -5 -13z"/>
<path d="M7576 2099 c4 -8 30 -6 38 2 3 3 -5 5 -19 5 -13 0 -22 -3 -19 -7z"/>
<path d="M7716 2100 c7 -7 94 -7 99 0 2 3 -21 5 -50 5 -30 0 -52 -2 -49 -5z"/>
<path d="M7926 2101 c-4 -5 -2 -12 3 -15 5 -4 12 -2 15 3 4 5 2 12 -3 15 -5 4
-12 2 -15 -3z"/>
<path d="M8161 2094 c0 -11 3 -14 6 -6 3 7 2 16 -1 19 -3 4 -6 -2 -5 -13z"/>
<path d="M15802 1948 c2 -7 -2 -12 -9 -11 -7 2 -10 -4 -7 -12 8 -20 11 -19 24
4 7 14 7 22 0 26 -6 4 -9 1 -8 -7z"/>
<path d="M6701 1934 c0 -11 3 -14 6 -6 3 7 2 16 -1 19 -3 4 -6 -2 -5 -13z"/>
<path d="M6996 1889 c3 -5 9 -7 14 -4 4 3 11 0 13 -5 3 -6 4 -5 3 1 -1 7 -10
13 -19 15 -9 1 -15 -2 -11 -7z"/>
<path d="M7421 1844 c-1 -6 5 -16 12 -22 10 -8 13 -6 14 11 2 15 0 18 -6 8 -7
-11 -9 -11 -14 0 -3 8 -6 9 -6 3z"/>
<path d="M7586 1803 c-6 -14 -5 -15 5 -6 7 7 10 15 7 18 -3 3 -9 -2 -12 -12z"/>
<path d="M7756 1791 c3 -3 11 -6 17 -6 7 -1 11 -7 9 -15 -3 -11 0 -11 13 0 19
16 12 24 -21 26 -13 0 -22 -2 -18 -5z"/>
<path d="M7843 1783 c-3 -10 -8 -22 -11 -27 -3 -5 0 -6 5 -3 11 7 25 47 17 47
-3 0 -7 -8 -11 -17z"/>
<path d="M7816 1773 c-6 -14 -5 -15 5 -6 7 7 10 15 7 18 -3 3 -9 -2 -12 -12z"/>
<path d="M8136 1723 c-6 -14 -5 -15 5 -6 7 7 10 15 7 18 -3 3 -9 -2 -12 -12z"/>
<path d="M8268 1723 c7 -3 16 -2 19 1 4 3 -2 6 -13 5 -11 0 -14 -3 -6 -6z"/>
<path d="M15381 1454 c0 -11 3 -14 6 -6 3 7 2 16 -1 19 -3 4 -6 -2 -5 -13z"/>
<path d="M15276 1343 c-6 -14 -5 -15 5 -6 7 7 10 15 7 18 -3 3 -9 -2 -12 -12z"/>
<path d="M13530 1293 c0 -7 5 -15 10 -18 6 -4 8 -10 5 -15 -3 -4 2 -13 10 -20
8 -7 12 -17 8 -23 -3 -6 -1 -7 6 -3 9 6 9 11 -1 23 -7 9 -12 19 -12 22 1 3 -5
15 -12 26 -8 11 -14 14 -14 8z"/>
<path d="M13391 1176 c-17 -20 3 -56 29 -56 24 0 24 3 5 40 -18 34 -19 35 -34
16z"/>
<path d="M13760 856 c0 -2 8 -10 18 -17 15 -13 16 -12 3 4 -13 16 -21 21 -21
13z"/>
<path d="M3387 615 c-43 -19 -83 -35 -89 -35 -6 0 -20 -8 -31 -17 -11 -10 -17
-13 -14 -6 5 7 0 9 -13 6 -11 -3 -18 -9 -15 -13 2 -4 -7 -6 -20 -4 -18 1 -25
-3 -25 -14 0 -15 -2 -15 -10 -2 -5 8 -10 10 -10 4 0 -6 -6 -11 -12 -12 -15 -1
-53 -10 -53 -12 0 -2 -16 -5 -58 -14 -16 -3 -36 -11 -45 -18 -13 -11 -14 -11
-7 2 7 12 4 12 -17 -2 -17 -11 -29 -13 -35 -7 -7 7 -15 5 -26 -5 -12 -12 -17
-13 -20 -3 -4 9 -6 9 -6 0 -1 -7 -8 -10 -18 -6 -10 4 -14 2 -10 -4 3 -5 0 -10
-8 -10 -8 0 -12 5 -8 10 3 5 -4 4 -16 -2 -11 -7 -21 -9 -21 -5 0 3 -8 0 -17
-7 -11 -9 -14 -10 -9 -2 8 15 -19 7 -43 -11 -11 -8 -13 -8 -8 0 9 15 -37 12
-56 -4 -11 -10 -17 -10 -22 -1 -6 8 -10 7 -16 -2 -7 -12 -9 -11 -9 0 0 11 -4
10 -16 -5 -8 -10 -13 -13 -9 -6 4 7 0 12 -10 12 -9 0 -14 -4 -11 -9 4 -5 -2
-8 -11 -6 -10 2 -18 4 -18 5 0 1 -8 3 -18 5 -9 2 -15 0 -12 -5 3 -4 -2 -11
-11 -14 -11 -4 -15 -2 -11 8 4 10 1 13 -8 9 -8 -3 -12 -10 -8 -16 4 -6 1 -7
-8 -1 -19 12 -51 12 -66 1 -9 -6 -13 -5 -14 4 0 8 -4 5 -9 -6 -5 -11 -9 -14
-9 -7 -1 6 -6 12 -12 12 -5 0 -8 -4 -5 -8 3 -5 -1 -9 -9 -9 -8 0 -12 4 -9 9
10 16 -9 8 -22 -9 -11 -15 -13 -15 -9 -2 8 21 -35 20 -60 -1 -10 -8 -21 -13
-24 -12 -33 20 -41 22 -41 10 0 -6 -6 -3 -14 8 -14 18 -15 18 -22 1 -5 -15 -9
-16 -15 -5 -7 10 -9 10 -9 -2 0 -13 -1 -13 -10 0 -9 13 -10 13 -10 0 0 -13 -1
-13 -10 0 -9 13 -10 13 -10 0 0 -13 -1 -13 -10 0 -9 13 -10 13 -10 0 0 -13 -1
-13 -10 0 -9 13 -10 13 -10 0 0 -13 -1 -13 -10 0 -9 13 -10 13 -10 0 0 -13 -1
-13 -10 0 -9 13 -10 13 -10 0 0 -13 -1 -13 -10 0 -9 13 -10 13 -10 0 0 -13 -1
-13 -11 0 -8 12 -10 12 -7 1 2 -8 13 -16 24 -17 176 -27 427 -31 608 -9 164
19 328 55 481 106 118 39 327 133 333 150 2 5 9 9 16 9 7 0 21 7 32 15 28 21
17 18 -69 -20z m-677 -191 c0 -8 -19 -13 -24 -6 -3 5 1 9 9 9 8 0 15 -2 15 -3z
m-420 -40 c0 -8 -19 -13 -24 -6 -3 5 1 9 9 9 8 0 15 -2 15 -3z"/>
</g>
</svg>
